<svg width="40" height="40" viewBox="0 0 40 40" fill="none" xmlns="http://www.w3.org/2000/svg">
<path fill-rule="evenodd" clip-rule="evenodd" d="M10 20.0001C10 19.6686 10.1317 19.3507 10.3661 19.1162C10.6005 18.8818 10.9185 18.7501 11.25 18.7501H25.7325L20.365 13.3851C20.1303 13.1504 19.9984 12.8321 19.9984 12.5001C19.9984 12.1682 20.1303 11.8498 20.365 11.6151C20.5997 11.3804 20.9181 11.2485 21.25 11.2485C21.5819 11.2485 21.9003 11.3804 22.135 11.6151L29.635 19.1151C29.7514 19.2312 29.8438 19.3692 29.9068 19.521C29.9698 19.6729 30.0022 19.8357 30.0022 20.0001C30.0022 20.1645 29.9698 20.3273 29.9068 20.4792C29.8438 20.6311 29.7514 20.769 29.635 20.8851L22.135 28.3851C21.9003 28.6198 21.5819 28.7517 21.25 28.7517C20.9181 28.7517 20.5997 28.6198 20.365 28.3851C20.1303 28.1504 19.9984 27.8321 19.9984 27.5001C19.9984 27.1682 20.1303 26.8498 20.365 26.6151L25.7325 21.2501H11.25C10.9185 21.2501 10.6005 21.1184 10.3661 20.884C10.1317 20.6496 10 20.3316 10 20.0001Z" fill="white"/>
</svg>
