<svg width="18" height="18" viewBox="0 0 18 18" fill="none" xmlns="http://www.w3.org/2000/svg">
<path d="M10.0775 12.296C9.98541 12.2956 9.89432 12.2767 9.80971 12.2402C9.7251 12.2038 9.64872 12.1507 9.58516 12.084L6.94548 9.34858C6.82018 9.22074 6.75 9.04888 6.75 8.86988C6.75 8.69088 6.82018 8.51901 6.94548 8.39118L9.6809 5.65577C9.74466 5.59201 9.82036 5.54143 9.90366 5.50692C9.98697 5.47241 10.0763 5.45465 10.1664 5.45465C10.2566 5.45465 10.3459 5.47241 10.4292 5.50692C10.5125 5.54143 10.5882 5.59201 10.652 5.65577C10.7157 5.71953 10.7663 5.79522 10.8008 5.87853C10.8353 5.96184 10.8531 6.05113 10.8531 6.1413C10.8531 6.23147 10.8353 6.32076 10.8008 6.40407C10.7663 6.48738 10.7157 6.56308 10.652 6.62684L8.39525 8.87672L10.5699 11.1334C10.6973 11.2616 10.7688 11.4349 10.7688 11.6155C10.7688 11.7962 10.6973 11.9695 10.5699 12.0977C10.5052 12.1619 10.4283 12.2125 10.3437 12.2465C10.2592 12.2806 10.1687 12.2974 10.0775 12.296Z" fill="white"/>
</svg>
