<svg width="60" height="60" viewBox="0 0 60 60" fill="none" xmlns="http://www.w3.org/2000/svg">
<path d="M29.4798 49L16.0033 45.3013L13 12H46L42.9936 45.2962L29.4798 49Z" fill="#264DE4"/>
<path d="M40.4198 43.1759L42.9889 14.7228H29.5V46.1688L40.4198 43.1759Z" fill="#2965F1"/>
<path d="M19.8847 27.0738L20.2549 31.158H29.4998V27.0738H19.8847ZM19.1406 18.8071L19.5161 22.8914H29.4998V18.8071H19.1406ZM29.4998 37.6811L29.4817 37.6858L24.8808 36.4576L24.5866 33.2002H20.4395L21.0182 39.6132L29.4808 41.9356L29.4998 41.9304V37.6811Z" fill="#EBEBEB"/>
<path d="M39.089 27.0738L39.8347 18.8071H29.486V22.8914H35.3072L34.9313 27.0738H29.486V31.158H34.5731L34.0935 36.455L29.4858 37.6845V41.9336L37.9552 39.6132L38.0172 38.9231L38.9882 28.1705L39.089 27.0738Z" fill="white"/>
</svg>
