<svg width="229" height="30" viewBox="0 0 229 30" fill="none" xmlns="http://www.w3.org/2000/svg">
<g clip-path="url(#clip0_2_2929)">
<path d="M11.1408 3.75406C10.6609 3.28055 9.83811 3.28055 9.35817 3.75406L0.582123 12.3786C0.102183 12.8521 0.102183 13.6639 0.582123 14.1374C1.06206 14.6109 1.88482 14.6109 2.36476 14.1374L11.1065 5.51279C11.6207 5.03929 11.6207 4.22756 11.1408 3.75406Z" fill="url(#paint0_linear_2_2929)"/>
<path d="M13.7811 14.2726C13.3012 13.7991 12.4784 13.7991 11.9985 14.2726L4.14804 22.0178C3.6681 22.4913 3.6681 23.3031 4.14804 23.7766C4.62798 24.2501 5.45074 24.2501 5.93068 23.7766L13.7811 16.0313C14.2611 15.5578 14.2611 14.7461 13.7811 14.2726Z" fill="url(#paint1_linear_2_2929)"/>
<path d="M15.2894 3.95694C14.8095 3.48343 13.9867 3.48343 13.5068 3.95694L3.35947 13.9344C2.87953 14.4079 2.87953 15.2196 3.35947 15.6931C3.83941 16.1666 4.66216 16.1666 5.1421 15.6931L15.2551 5.71567C15.7693 5.20835 15.7693 4.43044 15.2894 3.95694Z" fill="url(#paint2_linear_2_2929)"/>
<path d="M10.5581 13.0216C10.0782 12.5481 9.25541 12.5481 8.77547 13.0216L1.54208 20.158C1.06214 20.6316 1.06214 21.4433 1.54208 21.9168C2.02202 22.3903 2.84478 22.3903 3.32472 21.9168L10.5581 14.7804C11.038 14.273 11.038 13.4951 10.5581 13.0216Z" fill="url(#paint3_linear_2_2929)"/>
<path d="M3.05069 15.9299C2.53647 15.4564 1.74799 15.4903 1.26805 15.9976L0.342456 16.9446C-0.137484 17.4519 -0.103203 18.2298 0.411019 18.7033C0.92524 19.1768 1.71371 19.143 2.19365 18.6357L3.11925 17.6549C3.56491 17.1814 3.56491 16.4035 3.05069 15.9299Z" fill="url(#paint4_linear_2_2929)"/>
<path d="M14.9463 9.63916V24.4531C14.9463 26.6177 13.1294 28.3765 10.9353 28.4103C8.74133 28.4103 6.9587 26.6854 6.89014 24.5546V24.5208C6.89014 24.487 6.89014 24.487 6.89014 24.4531V9.63916H14.9463Z" fill="url(#paint5_linear_2_2929)"/>
<path d="M26.9085 9.87599C26.9085 10.451 26.8743 11.0259 26.7714 11.5671C26.4629 13.3258 25.6744 14.9154 24.5774 16.2345C24.2689 16.6065 23.9603 16.9109 23.5832 17.2492C22.0406 18.602 20.0865 19.5152 17.9268 19.7181C17.7554 19.7181 17.6183 19.752 17.4469 19.752C17.344 19.752 17.2412 19.752 17.1383 19.752C17.1041 19.752 17.0698 19.752 17.0355 19.752C17.0012 19.752 16.9326 19.752 16.8984 19.752C16.5555 19.752 16.247 19.752 15.9042 19.7181C15.8014 19.7181 15.7328 19.6843 15.6299 19.6843H15.5957C15.4928 19.6505 15.39 19.6505 15.2529 19.6505C15.15 19.6167 15.0472 19.6167 14.9443 19.5829C14.6358 19.5152 14.3273 19.4476 14.0187 19.3461C13.5045 19.177 12.9903 19.0079 12.5103 18.7711C12.4418 18.7373 12.4075 18.7035 12.3389 18.7035C12.0647 18.5682 11.7904 18.4329 11.5505 18.2638C11.4476 18.1962 11.3448 18.1285 11.2419 18.0609C11.1391 17.9932 11.0362 17.9256 10.9334 17.8579C10.7277 17.7227 10.5563 17.5874 10.3849 17.4183C10.2478 17.3168 10.1106 17.1815 10.0078 17.08C8.19088 15.389 7.02531 13.0214 6.88818 10.3833C6.88818 10.2142 6.88818 10.0789 6.88818 9.90981C6.88818 9.80834 6.88818 9.7407 6.88818 9.63923C6.95675 6.4938 8.53369 3.72041 10.9334 1.96167C11.2419 1.72492 11.5505 1.52198 11.8933 1.35287C13.3331 0.473506 15.0472 0 16.8984 0C17.2412 0 17.584 0 17.8925 0.0338219C20.5322 0.304397 22.8633 1.55581 24.5088 3.44983C24.5431 3.48365 24.5431 3.51747 24.5774 3.51747C24.6117 3.58512 24.6802 3.61894 24.7145 3.68658C24.8174 3.78805 24.9202 3.92334 24.9888 4.05862C25.3316 4.53213 25.6401 5.03946 25.9144 5.54679C26.2229 6.15558 26.4629 6.7982 26.6343 7.47463C26.8057 8.25254 26.9085 9.06426 26.9085 9.87599Z" fill="url(#paint6_linear_2_2929)"/>
<path d="M15.0149 19.6505V26.0091C15.0149 27.5649 14.0893 28.9177 12.7866 29.5942C12.2381 29.8647 11.6211 30.0339 10.9354 30.0339C10.4212 30.0339 9.94129 29.9324 9.49563 29.7633C7.95296 29.1883 6.85596 27.734 6.85596 26.0091V24.5547C7.43874 22.7283 8.77572 21.2063 10.5241 20.327C10.8669 20.1579 11.244 20.0226 11.6211 19.8873C12.3067 19.6844 13.0609 19.5491 13.8151 19.5491C14.1236 19.5491 14.4322 19.5829 14.7064 19.6167C14.8093 19.6167 14.8778 19.6505 14.9807 19.6505C14.9807 19.6505 14.9807 19.6505 15.0149 19.6505Z" fill="url(#paint7_linear_2_2929)"/>
<path d="M15.0147 19.8535V25.9753C15.0147 27.5311 14.0891 28.884 12.7864 29.5604C11.4837 28.884 10.5581 27.5649 10.5581 26.0091V24.5548C10.5581 24.5209 10.5581 24.521 10.5581 24.4871V20.6991C11.6208 20.1241 12.8207 19.7859 14.1234 19.7859C14.2262 19.7859 14.3291 19.7859 14.4662 19.7859C14.6033 19.8197 14.809 19.8197 15.0147 19.8535C15.0147 19.8535 14.9804 19.8535 15.0147 19.8535Z" fill="url(#paint8_linear_2_2929)"/>
<path d="M26.9102 9.8756C26.9102 10.4506 26.8759 11.0255 26.7731 11.5667C26.3617 12.8181 25.7104 13.968 24.8876 14.9489C24.5791 15.3209 24.2705 15.6253 23.8934 15.9635C22.3508 17.3164 20.3967 18.2296 18.237 18.4325C17.8942 18.4325 17.6199 18.4664 17.3457 18.4664C17.3114 18.4664 17.2771 18.4664 17.2428 18.4664C17.14 18.4664 17.0714 18.5002 16.9686 18.5002C16.7629 18.534 16.5229 18.5678 16.3172 18.6355H16.283H16.2487H16.2144C15.9401 18.7031 15.6316 18.7708 15.3231 18.8722H15.2888H15.2545C15.1517 18.906 15.0488 18.9399 14.9803 18.9737C14.6717 19.0751 14.3632 19.1766 14.0547 19.3119C13.9175 19.3795 13.7461 19.4472 13.609 19.481C13.369 19.5825 13.1291 19.7178 12.8891 19.8192C11.9978 20.2927 11.175 20.9015 10.5922 21.6456C10.4551 21.8147 10.3523 21.9838 10.2151 22.1868C10.1809 22.2544 10.1466 22.2882 10.1123 22.3559C10.1123 22.3559 10.1123 22.0853 10.1466 21.6456C10.1809 21.4765 10.1809 21.2736 10.2494 21.0368C10.2837 20.9015 10.318 20.7662 10.3523 20.5971C10.3523 20.5633 10.3523 20.5633 10.3523 20.5295C10.3866 20.4618 10.3866 20.3604 10.4208 20.2927C10.5237 19.8869 10.6608 19.4134 10.8665 18.9399C10.8665 18.9399 10.8665 18.9399 10.8665 18.906C11.0036 18.6016 11.1407 18.2972 11.2779 17.959C11.4493 17.6208 11.655 17.2826 11.8607 16.9106C11.8607 16.9106 11.8607 16.9106 11.8607 16.8767C11.8607 16.8767 11.8607 16.8767 11.8607 16.8429C12.5806 15.7268 13.5747 14.543 14.946 13.3931C15.0488 13.2916 15.1517 13.224 15.2545 13.1225C15.3916 13.021 15.5288 12.8857 15.7002 12.7843C15.7345 12.7843 15.7345 12.7505 15.7687 12.7505C16.4544 12.2431 17.2086 11.7696 18.0656 11.3299C21.9394 9.36827 23.6535 6.52724 24.4077 4.15971C24.4762 3.95677 24.5448 3.72002 24.5791 3.51709C24.6134 3.58473 24.6819 3.61856 24.7162 3.6862C24.819 3.78766 24.9219 3.92295 24.9904 4.05824C25.3333 4.53175 25.6418 5.03907 25.916 5.5464C26.2246 6.1552 26.4646 6.79781 26.636 7.47425C26.8074 8.25215 26.9102 9.06388 26.9102 9.8756Z" fill="url(#paint9_linear_2_2929)"/>
<path d="M26.9108 9.87596C26.9108 10.4509 26.8766 11.0259 26.7737 11.5671C26.4652 13.3258 25.6767 14.9154 24.5797 16.2345C24.2712 16.6065 23.9626 16.9109 23.5855 17.2491C22.0429 18.602 20.0888 19.5152 17.9291 19.7181C17.5863 19.7181 17.312 19.7519 17.0378 19.7519C17.0035 19.7519 16.9692 19.7519 16.9349 19.7519C16.8321 19.7519 16.7635 19.7858 16.6607 19.7858C16.455 19.8196 16.215 19.8534 16.0093 19.9211H15.9751H15.9408H15.9065C15.6322 19.9887 15.3237 20.0563 15.0152 20.1578C15.0152 20.1578 15.0152 20.1578 14.9809 20.1578H14.9466H14.9123C13.3697 20.699 11.6556 21.443 10.5243 22.6606C10.2501 22.9312 10.0444 23.2356 9.83868 23.5738C9.8044 23.6415 9.77012 23.6753 9.73584 23.7429C9.73584 23.7429 9.73584 23.4724 9.77012 23.0327C9.8044 22.7621 9.87297 22.3901 9.94153 22.018C9.94153 21.9842 9.94153 21.9842 9.94153 21.9504C10.0101 21.7136 10.0787 21.443 10.1472 21.1725C10.2158 20.9357 10.3186 20.6651 10.4215 20.3946C10.4215 20.3946 10.4215 20.3946 10.4215 20.3607C10.6614 19.7519 11.0043 19.0755 11.4156 18.3653C11.4156 18.3653 11.4156 18.3653 11.4156 18.3314C11.4156 18.3314 11.4156 18.2976 11.4499 18.2976C12.2041 17.08 13.3011 15.7948 14.8438 14.611C14.9809 14.5096 15.118 14.3743 15.2894 14.2728C15.3237 14.2728 15.3237 14.239 15.358 14.239C16.0436 13.7317 16.7978 13.2581 17.6549 12.8185C22.2828 10.3156 23.8598 6.83199 24.3055 4.26153C24.3397 4.02478 24.374 3.78802 24.4083 3.55127C24.4426 3.58509 24.4426 3.61891 24.4769 3.61891C24.5111 3.68656 24.5797 3.72038 24.614 3.78802C24.7168 3.88949 24.8197 4.02478 24.8882 4.16006C25.2311 4.63357 25.5396 5.1409 25.8138 5.64823C26.1224 6.25702 26.3623 6.89964 26.5337 7.57607C26.808 8.25251 26.9108 9.06424 26.9108 9.87596Z" fill="url(#paint10_linear_2_2929)"/>
<path d="M46.1771 7.91425C47.1712 8.7598 47.6512 9.94356 47.6512 11.4655C47.6512 13.0552 47.1712 14.3066 46.1771 15.186C45.1829 16.0653 43.8117 16.505 42.029 16.505H38.9094V20.6313H36.2012V6.66284H42.029C43.8117 6.66284 45.2172 7.0687 46.1771 7.91425ZM44.2573 13.4949C44.8058 13.0552 45.0801 12.4126 45.0801 11.5332C45.0801 10.6876 44.8058 10.045 44.2573 9.60534C43.7088 9.16566 42.9203 8.96273 41.8919 8.96273H38.9437V14.1375H41.8919C42.9203 14.1713 43.7088 13.9345 44.2573 13.4949Z" fill="white"/>
<path d="M53.9243 10.4173C54.5414 10.0452 55.2956 9.87611 56.1183 9.84229V12.3789C54.987 12.3113 54.0957 12.5819 53.4444 13.1568C52.7587 13.7318 52.4502 14.5097 52.4502 15.5244V20.6991H49.8105V9.94375H52.4502V12.0069C52.793 11.3304 53.3073 10.7893 53.9243 10.4173Z" fill="white"/>
<path d="M65.6837 10.5524C66.5407 10.9921 67.2263 11.6347 67.7063 12.4464C68.1862 13.2582 68.4262 14.2052 68.4262 15.2875C68.4262 16.3698 68.1862 17.3168 67.7063 18.1623C67.2263 18.9741 66.5407 19.6167 65.6837 20.0902C64.8266 20.5299 63.8325 20.7666 62.7012 20.7666C61.5699 20.7666 60.5757 20.5299 59.6844 20.0902C58.8274 19.6505 58.1417 19.0079 57.6618 18.1623C57.1819 17.3506 56.9419 16.3698 56.9419 15.2875C56.9419 14.2052 57.1819 13.292 57.6618 12.4464C58.1417 11.6347 58.8274 10.9921 59.6844 10.5524C60.5414 10.1127 61.5356 9.87598 62.7012 9.87598C63.8325 9.87598 64.8266 10.1127 65.6837 10.5524ZM60.5072 12.9876C59.9244 13.5964 59.6501 14.3743 59.6501 15.3213C59.6501 16.2683 59.9244 17.0462 60.5072 17.655C61.0899 18.2638 61.8099 18.5682 62.7355 18.5682C63.6268 18.5682 64.3467 18.2638 64.9295 17.655C65.5123 17.0462 65.7865 16.2683 65.7865 15.3213C65.7865 14.3743 65.5123 13.5964 64.9295 12.9876C64.3467 12.3788 63.6268 12.0744 62.7355 12.0744C61.8099 12.0744 61.0557 12.3788 60.5072 12.9876Z" fill="white"/>
<path d="M80.6299 9.94339V19.6164C80.6299 20.6311 80.3899 21.5105 79.9443 22.2546C79.4643 22.9986 78.813 23.5736 77.956 23.9795C77.0989 24.3853 76.1048 24.5883 74.9735 24.5883C73.328 24.5883 71.7853 24.1148 70.3798 23.1677L71.4425 21.2737C72.4709 22.0178 73.6022 22.3898 74.8364 22.3898C75.7962 22.3898 76.5847 22.1531 77.1675 21.6458C77.7503 21.1384 78.0245 20.462 78.0245 19.6164V18.365C77.6474 18.9062 77.2018 19.3121 76.619 19.6164C76.0362 19.887 75.3506 20.0561 74.5964 20.0561C73.6365 20.0561 72.8137 19.8532 72.0938 19.4135C71.3739 18.9738 70.7911 18.365 70.3798 17.5871C69.9684 16.8092 69.7627 15.896 69.7627 14.8814C69.7627 13.8667 69.9684 12.9874 70.3798 12.2433C70.7911 11.4654 71.3396 10.8904 72.0938 10.4507C72.8137 10.011 73.6708 9.80811 74.5964 9.80811C75.3506 9.80811 76.0362 9.94339 76.619 10.2478C77.2018 10.5522 77.6817 10.958 78.0588 11.4992V9.90957H80.6299V9.94339ZM77.2018 17.2151C77.7503 16.6401 77.9902 15.896 77.9902 15.0167C77.9902 14.1373 77.716 13.3594 77.2018 12.8183C76.6533 12.2433 75.9676 11.9727 75.1106 11.9727C74.2536 11.9727 73.5679 12.2433 73.0194 12.8183C72.4709 13.3932 72.1967 14.1373 72.1967 15.0167C72.1967 15.9299 72.4709 16.6739 73.0194 17.2151C73.5679 17.7901 74.2536 18.0606 75.1106 18.0606C75.9676 18.0606 76.6533 17.7901 77.2018 17.2151Z" fill="white"/>
<path d="M87.8638 10.4173C88.4808 10.0452 89.235 9.87611 90.0578 9.84229V12.3789C88.9265 12.3113 88.0352 12.5819 87.3838 13.1568C86.6982 13.7318 86.3897 14.5097 86.3897 15.5244V20.6991H83.75V9.94375H86.3897V12.0069C86.7325 11.3304 87.2467 10.7893 87.8638 10.4173Z" fill="white"/>
<path d="M97.9417 20.6655V19.3803C97.5646 19.8538 97.0847 20.192 96.4676 20.4288C95.8848 20.6655 95.1992 20.8008 94.4107 20.8008C93.6565 20.8008 92.9709 20.6655 92.4224 20.3611C91.8396 20.0905 91.3939 19.6847 91.0854 19.1774C90.7769 18.67 90.6055 18.095 90.6055 17.4863C90.6055 16.4716 90.9483 15.6937 91.6682 15.1187C92.3881 14.5438 93.3823 14.2732 94.7192 14.2394H97.8731V13.9688C97.8731 13.3262 97.6674 12.8527 97.2561 12.5144C96.8447 12.1762 96.2276 12.0071 95.4392 12.0071C94.4107 12.0071 93.348 12.3453 92.2167 13.0218L91.2568 11.2292C92.1139 10.7557 92.868 10.4175 93.588 10.2146C94.2736 10.0116 95.0963 9.91016 96.0219 9.91016C97.4275 9.91016 98.5245 10.2484 99.313 10.9248C100.101 11.6012 100.479 12.5144 100.513 13.732L100.547 20.7332H97.9417V20.6655ZM96.9818 18.2303C97.5303 17.8921 97.8389 17.4524 97.9074 16.9113V15.9643H95.1649C94.445 15.9643 93.9308 16.0657 93.6222 16.2687C93.2794 16.4716 93.1423 16.8098 93.1423 17.2833C93.1423 17.723 93.3137 18.095 93.6565 18.3656C93.9993 18.6362 94.4793 18.7715 95.0621 18.7715C95.8162 18.7715 96.4676 18.6024 96.9818 18.2303Z" fill="white"/>
<path d="M120.602 10.9584C121.322 11.7025 121.665 12.7171 121.665 13.9686V20.6653H119.025V14.7465C119.025 14.0024 118.819 13.3936 118.374 12.9539C117.962 12.5142 117.38 12.3113 116.625 12.3113C115.803 12.3451 115.117 12.6495 114.637 13.2245C114.157 13.7994 113.883 14.5097 113.883 15.3891V20.6653H111.243V14.7465C111.243 14.0024 111.038 13.3936 110.626 12.9539C110.215 12.5142 109.632 12.3113 108.912 12.3113C108.055 12.3451 107.404 12.6495 106.889 13.2245C106.41 13.7994 106.135 14.5097 106.135 15.3891V20.6653H103.496V9.94375H106.135V11.9392C106.855 10.5864 108.124 9.87611 109.941 9.84229C110.9 9.84229 111.689 10.079 112.34 10.5187C112.992 10.9584 113.437 11.601 113.677 12.4127C114.363 10.7217 115.7 9.87611 117.722 9.84229C118.922 9.84229 119.882 10.2143 120.602 10.9584Z" fill="white"/>
<path d="M141.72 10.9584C142.405 11.7025 142.783 12.7171 142.783 13.9686V20.6653H140.143V14.7465C140.143 14.0024 139.937 13.3936 139.492 12.9539C139.08 12.5142 138.497 12.3113 137.743 12.3113C136.92 12.3451 136.235 12.6495 135.755 13.2245C135.275 13.7994 135.001 14.5097 135.001 15.3891V20.6653H132.327V14.7465C132.327 14.0024 132.121 13.3936 131.71 12.9539C131.298 12.5142 130.715 12.3113 129.996 12.3113C129.139 12.3451 128.487 12.6495 127.973 13.2245C127.493 13.7994 127.219 14.5097 127.219 15.3891V20.6653H124.579V9.94375H127.219V11.9392C127.939 10.5864 129.207 9.87611 131.024 9.84229C131.984 9.84229 132.772 10.079 133.424 10.5187C134.075 10.9584 134.521 11.601 134.761 12.4127C135.446 10.7217 136.783 9.87611 138.806 9.84229C140.04 9.84229 141 10.2143 141.72 10.9584Z" fill="white"/>
<path d="M148.062 5.78368C148.336 6.08808 148.473 6.46012 148.473 6.8998C148.473 7.33948 148.336 7.71153 148.062 8.01592C147.787 8.32032 147.41 8.45561 146.999 8.45561C146.553 8.45561 146.211 8.32032 145.936 8.01592C145.662 7.71153 145.525 7.33948 145.525 6.8998C145.525 6.46012 145.662 6.08808 145.936 5.78368C146.211 5.47928 146.588 5.34399 146.999 5.34399C147.445 5.34399 147.787 5.47928 148.062 5.78368ZM145.696 9.94377H148.336V20.6315H145.696V9.94377Z" fill="white"/>
<path d="M161.089 10.9584C161.809 11.7025 162.151 12.7171 162.151 13.9686V20.6653H159.512V14.7465C159.512 14.0024 159.306 13.3936 158.86 12.9877C158.415 12.548 157.832 12.3451 157.112 12.3451C156.221 12.3451 155.535 12.6495 155.021 13.2245C154.507 13.7994 154.267 14.5435 154.267 15.4229V20.6991H151.627V9.94375H154.267V11.9392C155.021 10.5525 156.324 9.87611 158.175 9.84229C159.375 9.84229 160.369 10.2143 161.089 10.9584Z" fill="white"/>
<path d="M175.041 9.94339V19.6164C175.041 20.6311 174.801 21.5105 174.355 22.2546C173.875 22.9986 173.224 23.5736 172.367 23.9795C171.51 24.3853 170.515 24.5883 169.384 24.5883C167.739 24.5883 166.196 24.1148 164.79 23.1677L165.853 21.2737C166.882 22.0178 168.013 22.3898 169.247 22.3898C170.207 22.3898 170.995 22.1531 171.578 21.6458C172.161 21.1384 172.435 20.462 172.435 19.6164V18.365C172.058 18.9062 171.612 19.3121 171.03 19.6164C170.447 19.887 169.761 20.0561 169.007 20.0561C168.047 20.0561 167.224 19.8532 166.504 19.4135C165.785 18.9738 165.202 18.365 164.79 17.5871C164.379 16.8092 164.173 15.896 164.173 14.8814C164.173 13.8667 164.379 12.9874 164.79 12.2433C165.202 11.4654 165.75 10.8904 166.504 10.4507C167.224 10.011 168.081 9.80811 169.007 9.80811C169.761 9.80811 170.447 9.94339 171.03 10.2478C171.612 10.5522 172.092 10.958 172.469 11.4992V9.90957H175.041V9.94339ZM171.578 17.2151C172.127 16.6401 172.367 15.896 172.367 15.0167C172.367 14.1373 172.092 13.3594 171.578 12.8183C171.03 12.2433 170.344 11.9727 169.487 11.9727C168.63 11.9727 167.944 12.2433 167.396 12.8183C166.847 13.3932 166.573 14.1373 166.573 15.0167C166.573 15.9299 166.847 16.6739 167.396 17.2151C167.944 17.7901 168.63 18.0606 169.487 18.0606C170.378 18.0606 171.064 17.7901 171.578 17.2151Z" fill="white"/>
<path d="M183.474 6.6626H185.428V12.9196H193.553V6.6626H195.507V20.6649H193.553V14.6446H185.428V20.6649H183.474V6.6626Z" fill="white"/>
<path d="M207.437 11.4659C208.294 12.4467 208.706 13.7658 208.706 15.4907C208.706 15.7613 208.706 15.9642 208.671 16.0995H200.204C200.341 17.0465 200.752 17.7906 201.404 18.3656C202.055 18.9405 202.878 19.2111 203.838 19.2111C204.489 19.2111 205.072 19.1097 205.62 18.8729C206.169 18.6361 206.649 18.3318 207.06 17.9259L208.089 18.9744C207.574 19.5493 206.923 19.9552 206.169 20.2596C205.415 20.564 204.592 20.7331 203.701 20.7331C202.638 20.7331 201.712 20.4964 200.89 20.0567C200.067 19.617 199.45 18.9744 198.97 18.1626C198.524 17.3509 198.284 16.4377 198.284 15.3892C198.284 14.3408 198.524 13.4276 198.97 12.6159C199.415 11.8041 200.067 11.1615 200.855 10.7218C201.678 10.2483 202.604 10.0454 203.632 10.0454C205.346 10.0116 206.615 10.4851 207.437 11.4659ZM207.026 14.6452C206.957 13.6982 206.649 12.9203 206.066 12.3791C205.483 11.838 204.695 11.5336 203.701 11.5336C202.741 11.5336 201.952 11.8041 201.335 12.3791C200.718 12.9541 200.341 13.6982 200.204 14.6452H207.026Z" fill="white"/>
<path d="M214.704 10.62C215.356 10.2142 216.11 10.0112 217.001 10.0112V11.8038C215.904 11.77 215.013 12.0405 214.362 12.6493C213.676 13.2581 213.299 14.0699 213.196 15.0845V20.6651H211.311V10.0789H213.196V12.3449C213.539 11.6009 214.053 11.0259 214.704 10.62Z" fill="white"/>
<path d="M226.36 10.6878C227.183 11.1275 227.834 11.7701 228.314 12.5818C228.794 13.3935 229 14.3067 229 15.3552C229 16.4037 228.76 17.3169 228.314 18.1286C227.834 18.9403 227.183 19.5829 226.36 20.0226C225.538 20.4623 224.578 20.6991 223.515 20.6991C222.418 20.6991 221.492 20.4623 220.635 20.0226C219.813 19.5829 219.161 18.9403 218.681 18.1286C218.201 17.3169 217.996 16.4037 217.996 15.3214C217.996 14.2729 218.236 13.3597 218.681 12.548C219.161 11.7363 219.813 11.1275 220.635 10.654C221.458 10.2143 222.418 9.97754 223.515 9.97754C224.578 10.0114 225.538 10.2481 226.36 10.6878ZM221.629 12.1083C221.081 12.4127 220.67 12.8862 220.361 13.4274C220.052 14.0023 219.915 14.645 219.915 15.3552C219.915 16.0993 220.052 16.7419 220.361 17.3169C220.67 17.8919 221.081 18.3315 221.629 18.6359C222.178 18.9403 222.795 19.1094 223.515 19.1094C224.201 19.1094 224.818 18.9403 225.366 18.6359C225.915 18.3315 226.326 17.8919 226.635 17.3169C226.943 16.7419 227.08 16.0993 227.08 15.3552C227.08 14.645 226.943 14.0023 226.635 13.4274C226.326 12.8524 225.915 12.4127 225.366 12.1083C224.818 11.8039 224.201 11.6348 223.515 11.6348C222.795 11.6348 222.178 11.8039 221.629 12.1083Z" fill="white"/>
</g>
<defs>
<linearGradient id="paint0_linear_2_2929" x1="12.4984" y1="3.53049" x2="-1.72903" y2="15.4717" gradientUnits="userSpaceOnUse">
<stop offset="1.38522e-07" stop-color="#FF9C35"/>
<stop offset="1" stop-color="#FFD019"/>
</linearGradient>
<linearGradient id="paint1_linear_2_2929" x1="11.6357" y1="16.5979" x2="4.56387" y2="23.1794" gradientUnits="userSpaceOnUse">
<stop offset="1.38522e-07" stop-color="#8623D6"/>
<stop offset="1" stop-color="#467DE1"/>
</linearGradient>
<linearGradient id="paint2_linear_2_2929" x1="21.6786" y1="3.65423" x2="-3.34714" y2="16.4912" gradientUnits="userSpaceOnUse">
<stop offset="1.38522e-07" stop-color="#4289FF"/>
<stop offset="1" stop-color="#07F8C3"/>
</linearGradient>
<linearGradient id="paint3_linear_2_2929" x1="12.1035" y1="12.3942" x2="1.42033" y2="21.5917" gradientUnits="userSpaceOnUse">
<stop offset="1.38522e-07" stop-color="#FF589B"/>
<stop offset="1" stop-color="#FF136F"/>
</linearGradient>
<linearGradient id="paint4_linear_2_2929" x1="4.80364" y1="13.9901" x2="0.12165" y2="19.1907" gradientUnits="userSpaceOnUse">
<stop offset="1.38522e-07" stop-color="#FC5E51"/>
<stop offset="1" stop-color="#F59E75"/>
</linearGradient>
<linearGradient id="paint5_linear_2_2929" x1="4.07296" y1="26.2264" x2="26.9336" y2="-3.03578" gradientUnits="userSpaceOnUse">
<stop offset="0.0005008" stop-color="#8D00F3"/>
<stop offset="0.0415826" stop-color="#850FF1"/>
<stop offset="0.2503" stop-color="#5D57E9"/>
<stop offset="0.4469" stop-color="#3C93E2"/>
<stop offset="0.6256" stop-color="#22C1DD"/>
<stop offset="0.7831" stop-color="#0FE3D9"/>
<stop offset="0.9133" stop-color="#04F8D7"/>
<stop offset="1" stop-color="#00FFD6"/>
</linearGradient>
<linearGradient id="paint6_linear_2_2929" x1="3.88914" y1="26.0829" x2="26.7482" y2="-3.17736" gradientUnits="userSpaceOnUse">
<stop offset="0.0005008" stop-color="#8D00F3"/>
<stop offset="0.0415826" stop-color="#850FF1"/>
<stop offset="0.2503" stop-color="#5D57E9"/>
<stop offset="0.4469" stop-color="#3C93E2"/>
<stop offset="0.6256" stop-color="#22C1DD"/>
<stop offset="0.7831" stop-color="#0FE3D9"/>
<stop offset="0.9133" stop-color="#04F8D7"/>
<stop offset="1" stop-color="#00FFD6"/>
</linearGradient>
<linearGradient id="paint7_linear_2_2929" x1="6.93806" y1="32.6556" x2="15.0075" y2="18.0393" gradientUnits="userSpaceOnUse">
<stop stop-color="#FF00D7"/>
<stop offset="1" stop-color="#FFD58D"/>
</linearGradient>
<linearGradient id="paint8_linear_2_2929" x1="9.47886" y1="28.4624" x2="19.3696" y2="14.6398" gradientUnits="userSpaceOnUse">
<stop stop-color="#FF00D7"/>
<stop offset="1" stop-color="#FFD58D"/>
</linearGradient>
<linearGradient id="paint9_linear_2_2929" x1="18.0589" y1="24.0411" x2="19.3984" y2="-0.463036" gradientUnits="userSpaceOnUse">
<stop offset="0.0005008" stop-color="#8D00F3"/>
<stop offset="0.0415826" stop-color="#850FF1"/>
<stop offset="0.2503" stop-color="#5D57E9"/>
<stop offset="0.4469" stop-color="#3C93E2"/>
<stop offset="0.6256" stop-color="#22C1DD"/>
<stop offset="0.7831" stop-color="#0FE3D9"/>
<stop offset="0.9133" stop-color="#04F8D7"/>
<stop offset="1" stop-color="#00FFD6"/>
</linearGradient>
<linearGradient id="paint10_linear_2_2929" x1="18.9917" y1="26.3227" x2="17.4941" y2="3.46966" gradientUnits="userSpaceOnUse">
<stop offset="0.0005008" stop-color="#8D00F3"/>
<stop offset="0.0415826" stop-color="#850FF1"/>
<stop offset="0.2503" stop-color="#5D57E9"/>
<stop offset="0.4469" stop-color="#3C93E2"/>
<stop offset="0.6256" stop-color="#22C1DD"/>
<stop offset="0.7831" stop-color="#0FE3D9"/>
<stop offset="0.9133" stop-color="#04F8D7"/>
<stop offset="1" stop-color="#00FFD6"/>
</linearGradient>
<clipPath id="clip0_2_2929">
<rect width="229" height="30" fill="white"/>
</clipPath>
</defs>
</svg>
