<svg width="69" height="70" viewBox="0 0 69 70" fill="none" xmlns="http://www.w3.org/2000/svg">
<ellipse cx="34.3825" cy="34.9276" rx="34.3064" ry="34.3301" fill="white"/>
<path fill-rule="evenodd" clip-rule="evenodd" d="M16.7676 35.8663C16.7676 25.6238 25.0909 17.2988 35.3116 17.2988C45.5322 17.2988 53.8555 25.6238 53.8555 35.8663C53.8555 46.0873 45.5322 54.4124 35.3116 54.4124C25.0909 54.4124 16.7676 46.0873 16.7676 35.8663ZM42.1134 37.7444C42.3103 37.5475 42.5609 37.2431 42.6146 37.1715C42.901 36.7955 43.0442 36.3301 43.0442 35.8664C43.0442 35.3454 42.8831 34.862 42.5788 34.4681C42.5539 34.4432 42.505 34.39 42.4414 34.3207C42.3223 34.191 42.1514 34.0048 41.9881 33.8415C40.5203 32.266 36.6898 29.6879 34.6851 28.9002C34.3808 28.7766 33.6111 28.5063 33.1994 28.4884C32.8056 28.4884 32.4297 28.5779 32.0717 28.7569C31.6242 29.0076 31.2662 29.4015 31.0694 29.8669C30.9441 30.1892 30.7472 31.156 30.7472 31.1739C30.5503 32.2302 30.4429 33.9489 30.4429 35.8467C30.4429 37.6567 30.5503 39.302 30.7114 40.3762C30.7158 40.3806 30.7312 40.4575 30.7551 40.5768C30.8278 40.9397 30.9793 41.6956 31.1409 42.0054C31.5347 42.7574 32.3044 43.2228 33.1278 43.2228H33.1994C33.7364 43.2049 34.8641 42.7394 34.8641 42.7215C36.7614 41.9338 40.5024 39.481 42.006 37.8518L42.1134 37.7444Z" fill="url(#paint0_linear_2_4121)"/>
<defs>
<linearGradient id="paint0_linear_2_4121" x1="16.7684" y1="35.8537" x2="53.8514" y2="35.8537" gradientUnits="userSpaceOnUse">
<stop offset="1.38522e-07" stop-color="#FC5E51"/>
<stop offset="1" stop-color="#F59E75"/>
</linearGradient>
</defs>
</svg>
