<svg width="308" height="150" viewBox="0 0 308 150" fill="none" xmlns="http://www.w3.org/2000/svg">
<g opacity="0.2">
<circle cx="2.08346" cy="2.08346" r="2.08346" fill="#B0B0B0"/>
<circle cx="2.08346" cy="83.102" r="2.08346" fill="#B0B0B0"/>
<circle cx="83.102" cy="2.08346" r="2.08346" fill="#B0B0B0"/>
<circle cx="83.102" cy="83.102" r="2.08346" fill="#B0B0B0"/>
<circle cx="2.08346" cy="18.2876" r="2.08346" fill="#B0B0B0"/>
<circle cx="2.08346" cy="99.3051" r="2.08346" fill="#B0B0B0"/>
<circle cx="83.102" cy="18.2876" r="2.08346" fill="#B0B0B0"/>
<circle cx="83.102" cy="99.3051" r="2.08346" fill="#B0B0B0"/>
<circle cx="2.08346" cy="34.4907" r="2.08346" fill="#B0B0B0"/>
<circle cx="2.08346" cy="115.509" r="2.08346" fill="#B0B0B0"/>
<circle cx="83.102" cy="34.4907" r="2.08346" fill="#B0B0B0"/>
<circle cx="83.102" cy="115.509" r="2.08346" fill="#B0B0B0"/>
<circle cx="2.08346" cy="50.6948" r="2.08346" fill="#B0B0B0"/>
<circle cx="2.08346" cy="131.712" r="2.08346" fill="#B0B0B0"/>
<circle cx="83.102" cy="50.6948" r="2.08346" fill="#B0B0B0"/>
<circle cx="83.102" cy="131.712" r="2.08346" fill="#B0B0B0"/>
<circle cx="2.08346" cy="66.8979" r="2.08346" fill="#B0B0B0"/>
<circle cx="2.08346" cy="147.917" r="2.08346" fill="#B0B0B0"/>
<circle cx="83.102" cy="66.8979" r="2.08346" fill="#B0B0B0"/>
<circle cx="83.102" cy="147.917" r="2.08346" fill="#B0B0B0"/>
<circle cx="18.2871" cy="2.08346" r="2.08346" fill="#B0B0B0"/>
<circle cx="18.2871" cy="83.102" r="2.08346" fill="#B0B0B0"/>
<circle cx="99.3056" cy="2.08346" r="2.08346" fill="#B0B0B0"/>
<circle cx="99.3056" cy="83.102" r="2.08346" fill="#B0B0B0"/>
<circle cx="18.2871" cy="18.2876" r="2.08346" fill="#B0B0B0"/>
<circle cx="18.2871" cy="99.3051" r="2.08346" fill="#B0B0B0"/>
<circle cx="99.3056" cy="18.2876" r="2.08346" fill="#B0B0B0"/>
<circle cx="99.3056" cy="99.3051" r="2.08346" fill="#B0B0B0"/>
<circle cx="18.2871" cy="34.4907" r="2.08346" fill="#B0B0B0"/>
<circle cx="18.2871" cy="115.509" r="2.08346" fill="#B0B0B0"/>
<circle cx="99.3056" cy="34.4907" r="2.08346" fill="#B0B0B0"/>
<circle cx="99.3056" cy="115.509" r="2.08346" fill="#B0B0B0"/>
<circle cx="18.2871" cy="50.6948" r="2.08346" fill="#B0B0B0"/>
<circle cx="18.2871" cy="131.712" r="2.08346" fill="#B0B0B0"/>
<circle cx="99.3056" cy="50.6948" r="2.08346" fill="#B0B0B0"/>
<circle cx="99.3056" cy="131.712" r="2.08346" fill="#B0B0B0"/>
<circle cx="18.2871" cy="66.8979" r="2.08346" fill="#B0B0B0"/>
<circle cx="18.2871" cy="147.917" r="2.08346" fill="#B0B0B0"/>
<circle cx="99.3056" cy="66.8979" r="2.08346" fill="#B0B0B0"/>
<circle cx="99.3056" cy="147.917" r="2.08346" fill="#B0B0B0"/>
<circle cx="34.4907" cy="2.08346" r="2.08346" fill="#B0B0B0"/>
<circle cx="34.4907" cy="83.102" r="2.08346" fill="#B0B0B0"/>
<circle cx="115.509" cy="2.08346" r="2.08346" fill="#B0B0B0"/>
<circle cx="115.509" cy="83.102" r="2.08346" fill="#B0B0B0"/>
<circle cx="34.4907" cy="18.2876" r="2.08346" fill="#B0B0B0"/>
<circle cx="34.4907" cy="99.3051" r="2.08346" fill="#B0B0B0"/>
<circle cx="115.509" cy="18.2876" r="2.08346" fill="#B0B0B0"/>
<circle cx="115.509" cy="99.3051" r="2.08346" fill="#B0B0B0"/>
<circle cx="34.4907" cy="34.4907" r="2.08346" fill="#B0B0B0"/>
<circle cx="34.4907" cy="115.509" r="2.08346" fill="#B0B0B0"/>
<circle cx="115.509" cy="34.4907" r="2.08346" fill="#B0B0B0"/>
<circle cx="115.509" cy="115.509" r="2.08346" fill="#B0B0B0"/>
<circle cx="34.4907" cy="50.6948" r="2.08346" fill="#B0B0B0"/>
<circle cx="34.4907" cy="131.712" r="2.08346" fill="#B0B0B0"/>
<circle cx="115.509" cy="50.6948" r="2.08346" fill="#B0B0B0"/>
<circle cx="115.509" cy="131.712" r="2.08346" fill="#B0B0B0"/>
<circle cx="34.4907" cy="66.8979" r="2.08346" fill="#B0B0B0"/>
<circle cx="34.4907" cy="147.917" r="2.08346" fill="#B0B0B0"/>
<circle cx="115.509" cy="66.8979" r="2.08346" fill="#B0B0B0"/>
<circle cx="115.509" cy="147.917" r="2.08346" fill="#B0B0B0"/>
<circle cx="50.6943" cy="2.08346" r="2.08346" fill="#B0B0B0"/>
<circle cx="50.6943" cy="83.102" r="2.08346" fill="#B0B0B0"/>
<circle cx="131.713" cy="2.08346" r="2.08346" fill="#B0B0B0"/>
<circle cx="131.713" cy="83.102" r="2.08346" fill="#B0B0B0"/>
<circle cx="50.6943" cy="18.2876" r="2.08346" fill="#B0B0B0"/>
<circle cx="50.6943" cy="99.3051" r="2.08346" fill="#B0B0B0"/>
<circle cx="131.713" cy="18.2876" r="2.08346" fill="#B0B0B0"/>
<circle cx="131.713" cy="99.3051" r="2.08346" fill="#B0B0B0"/>
<circle cx="50.6943" cy="34.4907" r="2.08346" fill="#B0B0B0"/>
<circle cx="50.6943" cy="115.509" r="2.08346" fill="#B0B0B0"/>
<circle cx="131.713" cy="34.4907" r="2.08346" fill="#B0B0B0"/>
<circle cx="131.713" cy="115.509" r="2.08346" fill="#B0B0B0"/>
<circle cx="50.6943" cy="50.6948" r="2.08346" fill="#B0B0B0"/>
<circle cx="50.6943" cy="131.712" r="2.08346" fill="#B0B0B0"/>
<circle cx="131.713" cy="50.6948" r="2.08346" fill="#B0B0B0"/>
<circle cx="131.713" cy="131.712" r="2.08346" fill="#B0B0B0"/>
<circle cx="50.6943" cy="66.8979" r="2.08346" fill="#B0B0B0"/>
<circle cx="50.6943" cy="147.917" r="2.08346" fill="#B0B0B0"/>
<circle cx="131.713" cy="66.8979" r="2.08346" fill="#B0B0B0"/>
<circle cx="131.713" cy="147.917" r="2.08346" fill="#B0B0B0"/>
<circle cx="66.8979" cy="2.08346" r="2.08346" fill="#B0B0B0"/>
<circle cx="66.8979" cy="83.102" r="2.08346" fill="#B0B0B0"/>
<circle cx="147.916" cy="2.08346" r="2.08346" fill="#B0B0B0"/>
<circle cx="147.916" cy="83.102" r="2.08346" fill="#B0B0B0"/>
<circle cx="66.8979" cy="18.2876" r="2.08346" fill="#B0B0B0"/>
<circle cx="66.8979" cy="99.3051" r="2.08346" fill="#B0B0B0"/>
<circle cx="147.916" cy="18.2876" r="2.08346" fill="#B0B0B0"/>
<circle cx="147.916" cy="99.3051" r="2.08346" fill="#B0B0B0"/>
<circle cx="66.8979" cy="34.4907" r="2.08346" fill="#B0B0B0"/>
<circle cx="66.8979" cy="115.509" r="2.08346" fill="#B0B0B0"/>
<circle cx="147.916" cy="34.4907" r="2.08346" fill="#B0B0B0"/>
<circle cx="147.916" cy="115.509" r="2.08346" fill="#B0B0B0"/>
<circle cx="66.8979" cy="50.6948" r="2.08346" fill="#B0B0B0"/>
<circle cx="66.8979" cy="131.712" r="2.08346" fill="#B0B0B0"/>
<circle cx="147.916" cy="50.6948" r="2.08346" fill="#B0B0B0"/>
<circle cx="147.916" cy="131.712" r="2.08346" fill="#B0B0B0"/>
<circle cx="66.8979" cy="66.8979" r="2.08346" fill="#B0B0B0"/>
<circle cx="66.8979" cy="147.917" r="2.08346" fill="#B0B0B0"/>
<circle cx="147.916" cy="66.8979" r="2.08346" fill="#B0B0B0"/>
<circle cx="147.916" cy="147.917" r="2.08346" fill="#B0B0B0"/>
<circle cx="160.083" cy="2.08346" r="2.08346" fill="#B0B0B0"/>
<circle cx="160.083" cy="83.102" r="2.08346" fill="#B0B0B0"/>
<circle cx="241.102" cy="2.08346" r="2.08346" fill="#B0B0B0"/>
<circle cx="241.102" cy="83.102" r="2.08346" fill="#B0B0B0"/>
<circle cx="160.083" cy="18.2876" r="2.08346" fill="#B0B0B0"/>
<circle cx="160.083" cy="99.3051" r="2.08346" fill="#B0B0B0"/>
<circle cx="241.102" cy="18.2876" r="2.08346" fill="#B0B0B0"/>
<circle cx="241.102" cy="99.3051" r="2.08346" fill="#B0B0B0"/>
<circle cx="160.083" cy="34.4907" r="2.08346" fill="#B0B0B0"/>
<circle cx="160.083" cy="115.509" r="2.08346" fill="#B0B0B0"/>
<circle cx="241.102" cy="34.4907" r="2.08346" fill="#B0B0B0"/>
<circle cx="241.102" cy="115.509" r="2.08346" fill="#B0B0B0"/>
<circle cx="160.083" cy="50.6948" r="2.08346" fill="#B0B0B0"/>
<circle cx="160.083" cy="131.712" r="2.08346" fill="#B0B0B0"/>
<circle cx="241.102" cy="50.6948" r="2.08346" fill="#B0B0B0"/>
<circle cx="241.102" cy="131.712" r="2.08346" fill="#B0B0B0"/>
<circle cx="160.083" cy="66.8979" r="2.08346" fill="#B0B0B0"/>
<circle cx="160.083" cy="147.917" r="2.08346" fill="#B0B0B0"/>
<circle cx="241.102" cy="66.8979" r="2.08346" fill="#B0B0B0"/>
<circle cx="241.102" cy="147.917" r="2.08346" fill="#B0B0B0"/>
<circle cx="176.287" cy="2.08346" r="2.08346" fill="#B0B0B0"/>
<circle cx="176.287" cy="83.102" r="2.08346" fill="#B0B0B0"/>
<circle cx="257.306" cy="2.08346" r="2.08346" fill="#B0B0B0"/>
<circle cx="257.306" cy="83.102" r="2.08346" fill="#B0B0B0"/>
<circle cx="176.287" cy="18.2876" r="2.08346" fill="#B0B0B0"/>
<circle cx="176.287" cy="99.3051" r="2.08346" fill="#B0B0B0"/>
<circle cx="257.306" cy="18.2876" r="2.08346" fill="#B0B0B0"/>
<circle cx="257.306" cy="99.3051" r="2.08346" fill="#B0B0B0"/>
<circle cx="176.287" cy="34.4907" r="2.08346" fill="#B0B0B0"/>
<circle cx="176.287" cy="115.509" r="2.08346" fill="#B0B0B0"/>
<circle cx="257.306" cy="34.4907" r="2.08346" fill="#B0B0B0"/>
<circle cx="257.306" cy="115.509" r="2.08346" fill="#B0B0B0"/>
<circle cx="176.287" cy="50.6948" r="2.08346" fill="#B0B0B0"/>
<circle cx="176.287" cy="131.712" r="2.08346" fill="#B0B0B0"/>
<circle cx="257.306" cy="50.6948" r="2.08346" fill="#B0B0B0"/>
<circle cx="257.306" cy="131.712" r="2.08346" fill="#B0B0B0"/>
<circle cx="176.287" cy="66.8979" r="2.08346" fill="#B0B0B0"/>
<circle cx="176.287" cy="147.917" r="2.08346" fill="#B0B0B0"/>
<circle cx="257.306" cy="66.8979" r="2.08346" fill="#B0B0B0"/>
<circle cx="257.306" cy="147.917" r="2.08346" fill="#B0B0B0"/>
<circle cx="192.491" cy="2.08346" r="2.08346" fill="#B0B0B0"/>
<circle cx="192.491" cy="83.102" r="2.08346" fill="#B0B0B0"/>
<circle cx="273.509" cy="2.08346" r="2.08346" fill="#B0B0B0"/>
<circle cx="273.509" cy="83.102" r="2.08346" fill="#B0B0B0"/>
<circle cx="192.491" cy="18.2876" r="2.08346" fill="#B0B0B0"/>
<circle cx="192.491" cy="99.3051" r="2.08346" fill="#B0B0B0"/>
<circle cx="273.509" cy="18.2876" r="2.08346" fill="#B0B0B0"/>
<circle cx="273.509" cy="99.3051" r="2.08346" fill="#B0B0B0"/>
<circle cx="192.491" cy="34.4907" r="2.08346" fill="#B0B0B0"/>
<circle cx="192.491" cy="115.509" r="2.08346" fill="#B0B0B0"/>
<circle cx="273.509" cy="34.4907" r="2.08346" fill="#B0B0B0"/>
<circle cx="273.509" cy="115.509" r="2.08346" fill="#B0B0B0"/>
<circle cx="192.491" cy="50.6948" r="2.08346" fill="#B0B0B0"/>
<circle cx="192.491" cy="131.712" r="2.08346" fill="#B0B0B0"/>
<circle cx="273.509" cy="50.6948" r="2.08346" fill="#B0B0B0"/>
<circle cx="273.509" cy="131.712" r="2.08346" fill="#B0B0B0"/>
<circle cx="192.491" cy="66.8979" r="2.08346" fill="#B0B0B0"/>
<circle cx="192.491" cy="147.917" r="2.08346" fill="#B0B0B0"/>
<circle cx="273.509" cy="66.8979" r="2.08346" fill="#B0B0B0"/>
<circle cx="273.509" cy="147.917" r="2.08346" fill="#B0B0B0"/>
<circle cx="208.694" cy="2.08346" r="2.08346" fill="#B0B0B0"/>
<circle cx="208.694" cy="83.102" r="2.08346" fill="#B0B0B0"/>
<circle cx="289.713" cy="2.08346" r="2.08346" fill="#B0B0B0"/>
<circle cx="289.713" cy="83.102" r="2.08346" fill="#B0B0B0"/>
<circle cx="208.694" cy="18.2876" r="2.08346" fill="#B0B0B0"/>
<circle cx="208.694" cy="99.3051" r="2.08346" fill="#B0B0B0"/>
<circle cx="289.713" cy="18.2876" r="2.08346" fill="#B0B0B0"/>
<circle cx="289.713" cy="99.3051" r="2.08346" fill="#B0B0B0"/>
<circle cx="208.694" cy="34.4907" r="2.08346" fill="#B0B0B0"/>
<circle cx="208.694" cy="115.509" r="2.08346" fill="#B0B0B0"/>
<circle cx="289.713" cy="34.4907" r="2.08346" fill="#B0B0B0"/>
<circle cx="289.713" cy="115.509" r="2.08346" fill="#B0B0B0"/>
<circle cx="208.694" cy="50.6948" r="2.08346" fill="#B0B0B0"/>
<circle cx="208.694" cy="131.712" r="2.08346" fill="#B0B0B0"/>
<circle cx="289.713" cy="50.6948" r="2.08346" fill="#B0B0B0"/>
<circle cx="289.713" cy="131.712" r="2.08346" fill="#B0B0B0"/>
<circle cx="208.694" cy="66.8979" r="2.08346" fill="#B0B0B0"/>
<circle cx="208.694" cy="147.917" r="2.08346" fill="#B0B0B0"/>
<circle cx="289.713" cy="66.8979" r="2.08346" fill="#B0B0B0"/>
<circle cx="289.713" cy="147.917" r="2.08346" fill="#B0B0B0"/>
<circle cx="224.898" cy="2.08346" r="2.08346" fill="#B0B0B0"/>
<circle cx="224.898" cy="83.102" r="2.08346" fill="#B0B0B0"/>
<circle cx="305.916" cy="2.08346" r="2.08346" fill="#B0B0B0"/>
<circle cx="305.916" cy="83.102" r="2.08346" fill="#B0B0B0"/>
<circle cx="224.898" cy="18.2876" r="2.08346" fill="#B0B0B0"/>
<circle cx="224.898" cy="99.3051" r="2.08346" fill="#B0B0B0"/>
<circle cx="305.916" cy="18.2876" r="2.08346" fill="#B0B0B0"/>
<circle cx="305.916" cy="99.3051" r="2.08346" fill="#B0B0B0"/>
<circle cx="224.898" cy="34.4907" r="2.08346" fill="#B0B0B0"/>
<circle cx="224.898" cy="115.509" r="2.08346" fill="#B0B0B0"/>
<circle cx="305.916" cy="34.4907" r="2.08346" fill="#B0B0B0"/>
<circle cx="305.916" cy="115.509" r="2.08346" fill="#B0B0B0"/>
<circle cx="224.898" cy="50.6948" r="2.08346" fill="#B0B0B0"/>
<circle cx="224.898" cy="131.712" r="2.08346" fill="#B0B0B0"/>
<circle cx="305.916" cy="50.6948" r="2.08346" fill="#B0B0B0"/>
<circle cx="305.916" cy="131.712" r="2.08346" fill="#B0B0B0"/>
<circle cx="224.898" cy="66.8979" r="2.08346" fill="#B0B0B0"/>
<circle cx="224.898" cy="147.917" r="2.08346" fill="#B0B0B0"/>
<circle cx="305.916" cy="66.8979" r="2.08346" fill="#B0B0B0"/>
<circle cx="305.916" cy="147.917" r="2.08346" fill="#B0B0B0"/>
</g>
</svg>
