<svg width="25" height="93" viewBox="0 0 25 93" fill="none" xmlns="http://www.w3.org/2000/svg">
<path d="M19.4998 91.3333C16.0976 91.3289 12.8359 89.9754 10.4302 87.5696C8.02441 85.1638 6.67091 81.9022 6.6665 78.4999C6.6665 77.4833 7.07037 76.5082 7.78926 75.7894C8.50815 75.0705 9.48317 74.6666 10.4998 74.6666C10.7151 74.665 10.93 74.6845 11.1415 74.7249C11.3459 74.7552 11.5469 74.8054 11.7415 74.8749C11.8784 74.923 12.0003 75.0059 12.0953 75.1155C12.1903 75.2251 12.2551 75.3576 12.2832 75.4999L13.4248 80.4999C13.4556 80.6357 13.4519 80.7769 13.4141 80.9108C13.3762 81.0448 13.3054 81.1671 13.2082 81.2666C13.0998 81.3833 13.0915 81.3916 12.0665 81.9249C12.8873 83.7256 14.3275 85.1717 16.1248 85.9999C16.6665 84.9666 16.6748 84.9583 16.7915 84.8499C16.891 84.7527 17.0133 84.6819 17.1473 84.644C17.2812 84.6062 17.4225 84.6025 17.5582 84.6333L22.5582 85.7749C22.6959 85.8069 22.8233 85.8734 22.9282 85.9681C23.0332 86.0629 23.1123 86.1828 23.1582 86.3166C23.2285 86.5144 23.2815 86.7179 23.3165 86.9249C23.35 87.1344 23.3668 87.3462 23.3665 87.5583C23.3511 88.5706 22.9359 89.5357 22.2115 90.243C21.487 90.9502 20.5122 91.3422 19.4998 91.3333Z" fill="white"/>
<path d="M18.8332 41.3333H7.1665C6.50346 41.3333 5.86758 41.5966 5.39874 42.0655C4.9299 42.5343 4.6665 43.1702 4.6665 43.8333V52.1666C4.6665 52.8296 4.9299 53.4655 5.39874 53.9344C5.86758 54.4032 6.50346 54.6666 7.1665 54.6666H18.8332C19.4962 54.6666 20.1321 54.4032 20.6009 53.9344C21.0698 53.4655 21.3332 52.8296 21.3332 52.1666V43.8333C21.3332 43.1702 21.0698 42.5343 20.6009 42.0655C20.1321 41.5966 19.4962 41.3333 18.8332 41.3333ZM18.8332 42.9999L13.4165 46.7249C13.2898 46.7981 13.1461 46.8366 12.9998 46.8366C12.8536 46.8366 12.7099 46.7981 12.5832 46.7249L7.1665 42.9999H18.8332Z" fill="white"/>
<path d="M12.5002 2.08325C8.47412 2.08325 5.2085 5.34888 5.2085 9.37492C5.2085 14.8437 12.5002 22.9166 12.5002 22.9166C12.5002 22.9166 19.7918 14.8437 19.7918 9.37492C19.7918 5.34888 16.5262 2.08325 12.5002 2.08325ZM12.5002 11.9791C11.0627 11.9791 9.896 10.8124 9.896 9.37492C9.896 7.93742 11.0627 6.77075 12.5002 6.77075C13.9377 6.77075 15.1043 7.93742 15.1043 9.37492C15.1043 10.8124 13.9377 11.9791 12.5002 11.9791Z" fill="white"/>
</svg>
