<svg width="17" height="20" viewBox="0 0 17 20" fill="none" xmlns="http://www.w3.org/2000/svg">
<path d="M13.7207 11.0014C13.2211 10.4181 12.9941 9.91253 12.9941 9.05368V8.76166C12.9941 7.64247 12.7365 6.92137 12.1765 6.20026C11.3133 5.08038 9.86025 4.40543 8.43773 4.40543H8.37724C6.98462 4.40543 5.57706 5.04939 4.69894 6.12381C4.10832 6.85938 3.82083 7.61148 3.82083 8.76166V9.05368C3.82083 9.91253 3.60877 10.4181 3.09427 11.0014C2.71571 11.4312 2.59473 11.9836 2.59473 12.5814C2.59473 13.1799 2.79115 13.7467 3.18535 14.2075C3.69985 14.7598 4.4264 15.1125 5.16858 15.1738C6.24312 15.2964 7.31765 15.3425 8.40782 15.3425C9.49731 15.3425 10.5718 15.2654 11.6471 15.1738C12.3886 15.1125 13.1151 14.7598 13.6296 14.2075C14.0231 13.7467 14.2202 13.1799 14.2202 12.5814C14.2202 11.9836 14.0993 11.4312 13.7207 11.0014Z" fill="white"/>
<path opacity="0.4" d="M9.78093 16.187C9.43906 16.114 7.35592 16.114 7.01405 16.187C6.7218 16.2545 6.40576 16.4116 6.40576 16.7559C6.42275 17.0845 6.6151 17.3744 6.88152 17.5583L6.88084 17.559C7.22543 17.8276 7.62982 17.9984 8.05325 18.0597C8.27889 18.0907 8.50862 18.0893 8.74242 18.0597C9.16516 17.9984 9.56956 17.8276 9.91414 17.559L9.91346 17.5583C10.1799 17.3744 10.3722 17.0845 10.3892 16.7559C10.3892 16.4116 10.0732 16.2545 9.78093 16.187Z" fill="white"/>
<circle cx="11.4846" cy="4.0637" r="3.07734" fill="#FC5E51"/>
</svg>
