<svg width="70" height="70" viewBox="0 0 70 70" fill="none" xmlns="http://www.w3.org/2000/svg">
<ellipse cx="34.7463" cy="34.6811" rx="34.3064" ry="34.3301" fill="white"/>
<path fill-rule="evenodd" clip-rule="evenodd" d="M17.1313 35.6198C17.1313 25.3773 25.4547 17.0522 35.6753 17.0522C45.896 17.0522 54.2193 25.3773 54.2193 35.6198C54.2193 45.8408 45.896 54.1659 35.6753 54.1659C25.4547 54.1659 17.1313 45.8408 17.1313 35.6198ZM42.4772 37.4979C42.6741 37.301 42.9247 36.9966 42.9784 36.925C43.2648 36.549 43.4079 36.0835 43.4079 35.6198C43.4079 35.0988 43.2469 34.6155 42.9426 34.2216C42.9176 34.1966 42.8688 34.1435 42.8052 34.0741C42.6861 33.9445 42.5152 33.7583 42.3519 33.595C40.8841 32.0195 37.0536 29.4414 35.0488 28.6536C34.7445 28.5301 33.9749 28.2598 33.5632 28.2419C33.1694 28.2419 32.7935 28.3314 32.4355 28.5104C31.988 28.7611 31.63 29.1549 31.4331 29.6204C31.3078 29.9427 31.1109 30.9095 31.1109 30.9274C30.914 31.9837 30.8066 33.7024 30.8066 35.6001C30.8066 37.4102 30.914 39.0555 31.0751 40.1297C31.0796 40.1341 31.095 40.2109 31.1189 40.3303C31.1916 40.6931 31.3431 41.449 31.5047 41.7589C31.8985 42.5108 32.6682 42.9763 33.4916 42.9763H33.5632C34.1002 42.9584 35.2278 42.4929 35.2278 42.475C37.1252 41.6873 40.8662 39.2345 42.3698 37.6053L42.4772 37.4979Z" fill="url(#paint0_linear_2_4118)"/>
<defs>
<linearGradient id="paint0_linear_2_4118" x1="17.1321" y1="35.6072" x2="54.2152" y2="35.6072" gradientUnits="userSpaceOnUse">
<stop offset="1.38522e-07" stop-color="#FC5E51"/>
<stop offset="1" stop-color="#F59E75"/>
</linearGradient>
</defs>
</svg>
