<svg width="185" height="23" viewBox="0 0 185 23" fill="none" xmlns="http://www.w3.org/2000/svg">
<path d="M21.7469 0.000488281H0.906122C0.404923 0.000488281 0 0.405412 0 0.906611V21.7474C0 22.2486 0.404923 22.6535 0.906122 22.6535H21.7469C22.2481 22.6535 22.6531 22.2486 22.6531 21.7474V0.906611C22.6531 0.405412 22.2481 0.000488281 21.7469 0.000488281ZM19.1305 6.61235H17.3211C15.9024 6.61235 15.6278 7.28628 15.6278 8.27735V10.4605H19.0144L18.5727 13.8783H15.6278V22.6535H12.0967V13.8812H9.14334V10.4605H12.0967V7.94039C12.0967 5.01531 13.8835 3.4211 16.4943 3.4211C17.7458 3.4211 18.819 3.51454 19.1333 3.55702V6.61235H19.1305Z" fill="white"/>
<path d="M64.1804 7.54941C62.1006 7.54941 60.4034 9.24671 60.4034 11.3265C60.4034 13.4064 62.1006 15.1036 64.1804 15.1036C66.2602 15.1036 67.9575 13.4064 67.9575 11.3265C67.9575 9.24671 66.2602 7.54941 64.1804 7.54941ZM75.5087 11.3265C75.5087 9.76241 75.5229 8.21246 75.4351 6.65118C75.3472 4.83771 74.9335 3.22825 73.6075 1.90215C72.2785 0.573219 70.672 0.162355 68.8585 0.074515C67.2944 -0.013325 65.7445 0.000842822 64.1833 0.000842822C62.6192 0.000842822 61.0692 -0.013325 59.508 0.074515C57.6946 0.162355 56.0851 0.576053 54.7591 1.90215C53.4301 3.23109 53.0193 4.83771 52.9314 6.65118C52.8436 8.2153 52.8578 9.76525 52.8578 11.3265C52.8578 12.8878 52.8436 14.4406 52.9314 16.0019C53.0193 17.8154 53.433 19.4248 54.7591 20.7509C56.088 22.0798 57.6946 22.4907 59.508 22.5785C61.0721 22.6664 62.622 22.6522 64.1833 22.6522C65.7473 22.6522 67.2973 22.6664 68.8585 22.5785C70.672 22.4907 72.2814 22.077 73.6075 20.7509C74.9364 19.422 75.3472 17.8154 75.4351 16.0019C75.5257 14.4406 75.5087 12.8906 75.5087 11.3265ZM64.1804 17.1381C60.9644 17.1381 58.3689 14.5426 58.3689 11.3265C58.3689 8.11045 60.9644 5.51493 64.1804 5.51493C67.3964 5.51493 69.9919 8.11045 69.9919 11.3265C69.9919 14.5426 67.3964 17.1381 64.1804 17.1381ZM70.2299 6.63418C69.4791 6.63418 68.8727 6.0278 68.8727 5.27691C68.8727 4.52602 69.4791 3.91964 70.2299 3.91964C70.9808 3.91964 71.5872 4.52602 71.5872 5.27691C71.5874 5.45521 71.5524 5.6318 71.4843 5.79658C71.4162 5.96135 71.3162 6.11106 71.1901 6.23714C71.0641 6.36322 70.9144 6.46319 70.7496 6.53132C70.5848 6.59945 70.4082 6.6344 70.2299 6.63418Z" fill="white"/>
<path d="M127.461 0H106.62C106.119 0 105.714 0.404923 105.714 0.906122V21.7469C105.714 22.2481 106.119 22.6531 106.62 22.6531H127.461C127.962 22.6531 128.367 22.2481 128.367 21.7469V0.906122C128.367 0.404923 127.962 0 127.461 0ZM112.434 19.3032H109.073V8.49207H112.434V19.3032ZM110.755 7.01395C110.369 7.01395 109.993 6.8997 109.672 6.68563C109.352 6.47156 109.102 6.1673 108.955 5.81132C108.807 5.45534 108.769 5.06363 108.844 4.68572C108.919 4.30782 109.105 3.96069 109.377 3.68823C109.65 3.41578 109.997 3.23023 110.375 3.15506C110.753 3.07989 111.144 3.11847 111.5 3.26592C111.856 3.41337 112.16 3.66308 112.375 3.98345C112.589 4.30382 112.703 4.68048 112.703 5.06579C112.7 6.14181 111.828 7.01395 110.755 7.01395ZM125.018 19.3032H121.659V14.0449C121.659 12.7905 121.637 11.1793 119.912 11.1793C118.165 11.1793 117.896 12.5441 117.896 13.9543V19.3032H114.541V8.49207H117.763V9.97018H117.808C118.256 9.12069 119.351 8.22306 120.988 8.22306C124.392 8.22306 125.018 10.4629 125.018 13.3738V19.3032Z" fill="white"/>
<path d="M184.448 5.46571C184.298 4.89469 184.003 4.37395 183.593 3.95562C183.183 3.53728 182.672 3.23601 182.112 3.08197C180.05 2.51685 171.786 2.51685 171.786 2.51685C171.786 2.51685 163.521 2.51685 161.459 3.07896C160.899 3.23251 160.388 3.5336 159.978 3.95202C159.568 4.37043 159.273 4.89144 159.123 5.46271C158.571 7.56689 158.571 11.9556 158.571 11.9556C158.571 11.9556 158.571 16.3444 159.123 18.4455C159.427 19.6058 160.323 20.5197 161.459 20.8293C163.521 21.3944 171.786 21.3944 171.786 21.3944C171.786 21.3944 180.05 21.3944 182.112 20.8293C183.251 20.5197 184.144 19.6058 184.448 18.4455C185 16.3444 185 11.9556 185 11.9556C185 11.9556 185 7.56689 184.448 5.46571ZM169.16 15.9836V7.92761L176.004 11.9256L169.16 15.9836Z" fill="white"/>
</svg>
