<svg width="60" height="60" viewBox="0 0 60 60" fill="none" xmlns="http://www.w3.org/2000/svg">
<g clip-path="url(#clip0_2_3001)">
<path d="M50 9H9V52H50V9Z" fill="#F7DF1E"/>
<path d="M36.5416 42.594C37.3675 44.0082 38.4419 45.0477 40.3423 45.0477C41.9387 45.0477 42.9585 44.2109 42.9585 43.0547C42.9585 41.6691 41.9107 41.1784 40.1535 40.3723L39.1904 39.9389C36.4102 38.6967 34.5632 37.1405 34.5632 33.8506C34.5632 30.8202 36.7649 28.5132 40.2056 28.5132C42.6552 28.5132 44.4162 29.4073 45.6853 31.7484L42.6851 33.7687C42.0246 32.5265 41.3119 32.0371 40.2056 32.0371C39.0771 32.0371 38.3619 32.7879 38.3619 33.7687C38.3619 34.9809 39.0778 35.4717 40.7308 36.2225L41.694 36.6552C44.9675 38.1274 46.8157 39.6283 46.8157 43.0028C46.8157 46.6408 44.0908 48.6338 40.4314 48.6338C36.8534 48.6338 34.5417 46.8455 33.4107 44.5017L36.5416 42.594ZM22.9316 42.9441C23.5368 44.0703 24.0874 45.0225 25.4111 45.0225C26.6769 45.0225 27.4754 44.503 27.4754 42.4834V28.7439H31.3281V42.538C31.3281 46.722 28.9892 48.6263 25.5751 48.6263C22.4903 48.6263 20.7039 46.952 19.7954 44.9354L22.9316 42.9441Z" fill="black"/>
</g>
<defs>
<clipPath id="clip0_2_3001">
<rect width="41" height="43" fill="white" transform="translate(9 9)"/>
</clipPath>
</defs>
</svg>
