<svg width="15" height="14" viewBox="0 0 15 14" fill="none" xmlns="http://www.w3.org/2000/svg">
<circle cx="7.22135" cy="6.87647" r="6.83853" fill="white"/>
<g clip-path="url(#clip0_2_3950)">
<path d="M8.89015 5.53223L7.22119 10.3428L11.3243 5.53223H8.89015Z" fill="#FFE182"/>
<path d="M4.81601 3.40976L3.11816 5.53207H5.55232L4.81601 3.40976Z" fill="#FFCD73"/>
<path d="M8.89062 5.53207H11.3248L9.62694 3.40976L8.89062 5.53207Z" fill="#FFCD73"/>
<path d="M8.89017 5.53207L7.22121 3.40976L5.55225 5.53207H8.89017Z" fill="#FFCD73"/>
<path d="M7.2212 3.40976H4.81592L5.55224 5.53207L7.2212 3.40976Z" fill="#FFAA64"/>
<path d="M9.62647 3.40976H7.22119L8.89015 5.53207L9.62647 3.40976Z" fill="#FFE182"/>
<path d="M5.55225 5.53223L7.22121 10.3428L8.89017 5.53223H5.55225Z" fill="#FFAA64"/>
<path d="M3.11816 5.53223L7.22128 10.3428L5.55232 5.53223H3.11816Z" fill="#FF8C5A"/>
</g>
<defs>
<clipPath id="clip0_2_3950">
<rect width="8.20624" height="8.20624" fill="white" transform="translate(3.11816 2.77304)"/>
</clipPath>
</defs>
</svg>
