<svg width="70" height="70" viewBox="0 0 70 70" fill="none" xmlns="http://www.w3.org/2000/svg">
<ellipse cx="34.863" cy="35.1662" rx="34.3064" ry="34.3301" fill="white"/>
<path fill-rule="evenodd" clip-rule="evenodd" d="M15.8691 34.7193C15.8691 24.4768 24.1925 16.1518 34.4131 16.1518C44.6338 16.1518 52.9571 24.4768 52.9571 34.7193C52.9571 44.9404 44.6338 53.2654 34.4131 53.2654C24.1925 53.2654 15.8691 44.9404 15.8691 34.7193ZM41.215 36.5974C41.4119 36.4005 41.6625 36.0962 41.7162 36.0245C42.0025 35.6486 42.1457 35.1831 42.1457 34.7194C42.1457 34.1984 41.9846 33.715 41.6804 33.3211C41.6554 33.2962 41.6066 33.243 41.5429 33.1737C41.4239 33.044 41.253 32.8579 41.0897 32.6945C39.6219 31.119 35.7914 28.5409 33.7866 27.7532C33.4823 27.6297 32.7127 27.3593 32.301 27.3414C31.9072 27.3414 31.5313 27.4309 31.1733 27.61C30.7258 27.8606 30.3678 28.2545 30.1709 28.72C30.0456 29.0422 29.8487 30.009 29.8487 30.0269C29.6518 31.0832 29.5444 32.8019 29.5444 34.6997C29.5444 36.5097 29.6518 38.155 29.8129 39.2292C29.8174 39.2337 29.8327 39.3105 29.8567 39.4298C29.9294 39.7927 30.0809 40.5486 30.2425 40.8584C30.6363 41.6104 31.406 42.0759 32.2294 42.0759H32.301C32.838 42.058 33.9656 41.5925 33.9656 41.5746C35.863 40.7868 39.604 38.3341 41.1076 36.7049L41.215 36.5974Z" fill="url(#paint0_linear_2_4135)"/>
<defs>
<linearGradient id="paint0_linear_2_4135" x1="15.8699" y1="34.7068" x2="52.953" y2="34.7068" gradientUnits="userSpaceOnUse">
<stop offset="1.38522e-07" stop-color="#FC5E51"/>
<stop offset="1" stop-color="#F59E75"/>
</linearGradient>
</defs>
</svg>
