<svg width="17" height="18" viewBox="0 0 17 18" fill="none" xmlns="http://www.w3.org/2000/svg">
<path opacity="0.4" d="M11.426 2.27554H5.69461C3.61569 2.27554 2.40527 3.4928 2.40527 5.57856V12.6428C2.40527 14.7627 3.61569 15.9526 5.69461 15.9526H11.426C13.5384 15.9526 14.7146 14.7627 14.7146 12.6428V5.57856C14.7146 3.4928 13.5384 2.27554 11.426 2.27554Z" fill="white"/>
<path fill-rule="evenodd" clip-rule="evenodd" d="M5.87914 5.45523V5.46207C5.58439 5.46207 5.34573 5.70142 5.34573 5.99547C5.34573 6.28953 5.58439 6.52888 5.87914 6.52888H7.92317C8.21791 6.52888 8.45726 6.28953 8.45726 5.98795C8.45726 5.69458 8.21791 5.45523 7.92317 5.45523H5.87914ZM11.2406 9.61972H5.87918C5.58444 9.61972 5.34578 9.38037 5.34578 9.08632C5.34578 8.79226 5.58444 8.55223 5.87918 8.55223H11.2406C11.5346 8.55223 11.774 8.79226 11.774 9.08632C11.774 9.38037 11.5346 9.61972 11.2406 9.61972ZM11.2405 12.7452H5.87913C5.67398 12.7725 5.47566 12.6699 5.36624 12.499C5.25683 12.3212 5.25683 12.0955 5.36624 11.9245C5.47566 11.7467 5.67398 11.651 5.87913 11.6715H11.2405C11.5134 11.6989 11.7192 11.9314 11.7192 12.2117C11.7192 12.4846 11.5134 12.7178 11.2405 12.7452Z" fill="white"/>
</svg>
