<svg width="18" height="18" viewBox="0 0 18 18" fill="none" xmlns="http://www.w3.org/2000/svg">
<path opacity="0.4" d="M15.9183 8.80115C15.9183 12.5685 12.8489 15.6364 9.07975 15.6364C5.31063 15.6364 2.24121 12.5685 2.24121 8.80115C2.24121 5.02726 5.31063 1.95932 9.07975 1.95932C12.8489 1.95932 15.9183 5.02726 15.9183 8.80115Z" fill="white"/>
<path d="M11.8153 8.80108C11.8153 8.97392 11.7609 9.14742 11.6521 9.28635C11.6317 9.3136 11.5365 9.42594 11.4617 9.49906L11.4209 9.53895C10.8497 10.1445 9.42861 11.0552 8.70784 11.347C8.70784 11.3537 8.27946 11.5272 8.07547 11.5332H8.04827C7.73549 11.5332 7.4431 11.361 7.29351 11.0818C7.21191 10.9283 7.13712 10.4829 7.13032 10.4769C7.06912 10.0774 7.02832 9.46583 7.02832 8.79444C7.02832 8.09048 7.06912 7.45166 7.14391 7.05946C7.14391 7.05281 7.21871 6.69385 7.26631 6.5742C7.34111 6.40203 7.4771 6.25512 7.64709 6.16206C7.78308 6.09625 7.92588 6.06235 8.07547 6.06235C8.23186 6.06966 8.52425 6.16871 8.63984 6.21524C9.40141 6.50772 10.8565 7.46495 11.4141 8.04993C11.5093 8.14299 11.6113 8.25666 11.6385 8.28259C11.7541 8.42883 11.8153 8.60831 11.8153 8.80108Z" fill="white"/>
</svg>
