<svg width="83" height="83" viewBox="0 0 83 83" fill="none" xmlns="http://www.w3.org/2000/svg">
<mask id="mask0_2_3757" style="mask-type:alpha" maskUnits="userSpaceOnUse" x="0" y="0" width="83" height="83">
<rect x="0.0795898" y="0.609253" width="82.0624" height="82.0624" fill="#C4C4C4"/>
</mask>
<g mask="url(#mask0_2_3757)">
<g filter="url(#filter0_d_2_3757)">
<path d="M16.4907 23.6649V56.685C16.4907 58.0878 17.6233 59.225 19.0205 59.225H22.8151C23.5137 59.225 24.08 59.7936 24.08 60.495V64.305C24.0798 65.2604 24.6136 66.135 25.4614 66.5686C26.3091 67.0023 27.3276 66.9216 28.0972 66.3599L37.3308 59.7165C37.7616 59.3993 38.2815 59.2273 38.8157 59.225H62.0261C63.4232 59.225 64.5559 58.0878 64.5559 56.685V23.6649C64.5559 22.2621 63.4232 21.1249 62.0261 21.1249H19.0205C17.6233 21.1249 16.4907 22.2621 16.4907 23.6649Z" fill="#C43635"/>
<path d="M15.3193 22.4923V55.5124C15.3193 56.9152 16.4519 58.0524 17.8491 58.0524H21.6437C22.3423 58.0524 22.9086 58.621 22.9086 59.3224V63.1324C22.9084 64.0878 23.4422 64.9624 24.29 65.396C25.1378 65.8297 26.1562 65.749 26.9258 65.1873L36.1594 58.5439C36.5902 58.2268 37.1101 58.0547 37.6443 58.0524H60.8547C62.2519 58.0524 63.3845 56.9152 63.3845 55.5124V22.4923C63.3845 21.0895 62.2519 19.9523 60.8547 19.9523H17.8491C16.4519 19.9523 15.3193 21.0895 15.3193 22.4923Z" fill="url(#paint0_linear_2_3757)"/>
<path d="M32.7715 35.1931C32.4303 35.193 32.1031 35.0619 31.8619 34.8287L28.0026 31.0976C27.5004 30.612 27.5004 29.8247 28.0026 29.3391L31.8619 25.6081C32.1849 25.2848 32.6632 25.1551 33.113 25.2689C33.5628 25.3827 33.9141 25.7223 34.0318 26.1571C34.1495 26.592 34.0154 27.0544 33.681 27.3666L30.7312 30.2184L33.681 33.0701C34.0488 33.4258 34.1588 33.9606 33.9597 34.4253C33.7606 34.89 33.2917 35.193 32.7715 35.1931Z" fill="url(#paint1_linear_2_3757)"/>
<path d="M45.7972 35.1931C45.3231 35.193 44.8957 34.889 44.7143 34.4229C44.5328 33.9568 44.6331 33.4204 44.9683 33.0636L47.6566 30.203L44.9683 27.3425C44.524 26.853 44.5303 26.0749 44.9826 25.5937C45.4348 25.1125 46.1661 25.1058 46.6261 25.5785L50.1433 29.3211C50.601 29.8082 50.601 30.5979 50.1433 31.085L46.6261 34.8275C46.4063 35.0615 46.1081 35.193 45.7972 35.1931Z" fill="url(#paint2_linear_2_3757)"/>
<path d="M38.1778 36.3654C38.0817 36.3658 37.9859 36.3534 37.8928 36.3284C37.5909 36.2493 37.3312 36.0474 37.1711 35.7672C37.011 35.4869 36.9635 35.1514 37.039 34.8343L39.3846 24.9802C39.5456 24.3249 40.18 23.9288 40.8051 24.0932C41.4303 24.2577 41.8119 24.9211 41.6598 25.5789L39.3142 35.4329C39.1836 35.9805 38.7153 36.3648 38.1778 36.3654Z" fill="url(#paint3_linear_2_3757)"/>
<path d="M57.0165 42.6974H55.7529C55.055 42.6974 54.4893 42.1316 54.4893 41.4338C54.4893 40.7359 55.055 40.1702 55.7529 40.1702H57.0165C57.7143 40.1702 58.2801 40.7359 58.2801 41.4338C58.2801 42.1316 57.7143 42.6974 57.0165 42.6974Z" fill="url(#paint4_linear_2_3757)"/>
<path d="M57.017 47.7519H55.7534C55.0555 47.7519 54.4897 47.1861 54.4897 46.4883C54.4897 45.7904 55.0555 45.2247 55.7534 45.2247H57.017C57.7148 45.2247 58.2806 45.7904 58.2806 46.4883C58.2806 47.1861 57.7148 47.7519 57.017 47.7519Z" fill="url(#paint5_linear_2_3757)"/>
<path d="M50.6987 42.6974H22.8993C22.2015 42.6974 21.6357 42.1316 21.6357 41.4338C21.6357 40.7359 22.2015 40.1702 22.8993 40.1702H50.6987C51.3966 40.1702 51.9623 40.7359 51.9623 41.4338C51.9623 42.1316 51.3966 42.6974 50.6987 42.6974Z" fill="url(#paint6_linear_2_3757)"/>
<path d="M39.3262 52.8067H22.8993C22.2015 52.8067 21.6357 52.241 21.6357 51.5431C21.6357 50.8452 22.2015 50.2795 22.8993 50.2795H39.3262C40.0241 50.2795 40.5898 50.8452 40.5898 51.5431C40.5898 52.241 40.0241 52.8067 39.3262 52.8067Z" fill="url(#paint7_linear_2_3757)"/>
<path d="M50.699 47.7519H29.2177C28.5198 47.7519 27.9541 47.1861 27.9541 46.4883C27.9541 45.7904 28.5198 45.2247 29.2177 45.2247H50.699C51.3969 45.2247 51.9626 45.7904 51.9626 46.4883C51.9626 47.1861 51.3969 47.7519 50.699 47.7519Z" fill="url(#paint8_linear_2_3757)"/>
<path d="M24.163 47.7519H22.8993C22.2015 47.7519 21.6357 47.1861 21.6357 46.4883C21.6357 45.7904 22.2015 45.2247 22.8993 45.2247H24.163C24.8608 45.2247 25.4266 45.7904 25.4266 46.4883C25.4266 47.1861 24.8608 47.7519 24.163 47.7519Z" fill="url(#paint9_linear_2_3757)"/>
</g>
<g filter="url(#filter1_d_2_3757)">
<path d="M62.8589 45.2155C53.77 46.075 48.8834 56.8989 54.9002 64.2845C57.6857 67.7068 62.3336 69.4099 66.9019 68.232C69.3532 67.5953 71.4702 66.1946 72.9823 64.38C79.5881 56.4213 73.3644 44.2127 62.8589 45.2155Z" fill="url(#paint10_radial_2_3757)"/>
<path d="M58.7839 63.9346C53.8813 60.3531 54.0405 52.9516 59.1341 49.593C62.5882 47.3009 67.2838 47.7625 70.2285 50.8345C71.5815 52.2512 72.4729 54.1135 72.632 56.1669C73.2687 63.6321 64.7848 68.3278 58.7839 63.9346Z" fill="url(#paint11_radial_2_3757)"/>
<path d="M72.2815 54.2887C70.8967 54.2887 68.2544 54.05 65.1824 52.5856C61.7919 50.9779 58.9905 50.7232 57.7808 50.6914C58.1946 50.2776 58.6403 49.9115 59.1337 49.5931C59.9296 49.7045 61.4418 50.0388 64.1955 50.9461C67.4585 52.0285 69.3368 51.3918 70.2441 50.8347C71.1673 51.7897 71.8836 52.9676 72.2815 54.2887Z" fill="url(#paint12_linear_2_3757)"/>
<path d="M69.4797 50.1187C68.7157 50.4212 67.2195 50.6758 64.6409 49.9436C62.3806 49.291 61.0435 49.0363 60.2954 48.9408C60.7411 48.7339 61.2186 48.5588 61.6961 48.4315C62.3488 48.6066 63.2242 48.8772 64.3862 49.291C66.6942 50.1028 68.1586 49.9914 69.0022 49.7526C69.1614 49.88 69.3206 49.9914 69.4797 50.1187Z" fill="url(#paint13_linear_2_3757)"/>
<path d="M68.1584 49.2273C67.2829 49.3068 65.6116 49.2909 64.4814 48.1608C65.8185 48.2404 67.0601 48.6224 68.1584 49.2273Z" fill="url(#paint14_linear_2_3757)"/>
<path d="M72.6795 56.8836C72.6795 56.995 72.6795 57.1223 72.6795 57.2338C71.5175 57.3611 69.114 57.2338 65.2461 55.2441C60.3594 52.7132 57.8922 52.554 56.2368 52.761C56.3323 52.5859 56.4278 52.4108 56.5392 52.2516C57.6375 52.1084 60.0729 52.1561 64.1478 53.9389C69.1777 56.1514 70.7853 56.6289 72.6477 56.1673C72.6636 56.3901 72.6795 56.6448 72.6795 56.8836Z" fill="url(#paint15_linear_2_3757)"/>
<path d="M62.4443 55.2914C59.3881 53.8748 56.5708 54.3523 55.5043 54.607C55.3292 55.2277 55.2337 55.8804 55.2178 56.5489C61.1072 55.4824 65.4049 58.7773 63.9405 59.032C62.4443 59.2708 61.7917 59.4777 59.4518 60.2258C57.7327 60.767 56.3638 60.2576 55.759 59.9393C55.9977 60.576 56.3002 61.1649 56.6663 61.722C59.7065 62.8522 62.1259 61.6584 65.2935 60.6715C67.7448 59.9075 70.1324 60.7033 71.4535 61.34C71.8992 60.5919 72.2335 59.7642 72.4404 58.8887C68.1905 59.6687 66.0416 56.9468 62.4443 55.2914Z" fill="url(#paint16_linear_2_3757)"/>
<path d="M60.5979 58.8258C59.7065 58.8735 59.1971 59.1282 57.7964 59.3192C57.1119 59.4147 56.2047 59.2555 55.4884 59.0805C55.3451 58.5393 55.2655 57.9822 55.2178 57.4091C59.3722 56.7406 61.4415 58.778 60.5979 58.8258Z" fill="url(#paint17_linear_2_3757)"/>
<path d="M70.2428 62.9323C70.0359 63.1392 69.829 63.3461 69.6061 63.5371C68.5397 63.2029 67.33 62.996 66.0566 63.0596C63.0959 63.2188 61.3132 64.2375 58.7982 63.9192C58.655 63.8077 58.4958 63.6963 58.3525 63.569C59.3872 63.7122 61.2336 63.6327 64.4489 62.7572C66.6933 62.1523 68.667 62.3911 70.2428 62.9323Z" fill="url(#paint18_linear_2_3757)"/>
<path d="M68.2216 64.4922C66.9482 65.2085 65.4997 65.6064 63.9398 65.6064C63.3827 65.6064 62.8415 65.5586 62.3003 65.4472C64.1785 63.378 66.9163 64.0147 68.2216 64.4922Z" fill="url(#paint19_linear_2_3757)"/>
<path opacity="0.55" d="M71.8194 60.656C71.708 60.8789 71.5807 61.1176 71.4533 61.3246C71.1031 61.9135 70.6893 62.4388 70.2277 62.9322C70.0208 63.1391 69.8138 63.3461 69.591 63.5371C69.1612 63.9032 68.7155 64.2215 68.2221 64.4921C66.9487 65.2084 65.5002 65.6063 63.9403 65.6063C63.3832 65.6063 62.842 65.5586 62.3008 65.4472C60.9956 65.2084 59.8018 64.6672 58.7831 63.9191C58.6398 63.8077 58.4806 63.6963 58.3374 63.5689C57.6848 63.0277 57.1277 62.4069 56.6661 61.7066C56.3 61.1495 55.9816 60.5605 55.7588 59.9238C55.6473 59.6532 55.5678 59.3667 55.4882 59.0802C55.3449 58.539 55.2653 57.9819 55.2176 57.4089C55.2176 57.3134 55.2017 57.2179 55.2017 57.1065C55.2017 57.0269 55.2017 56.9473 55.2017 56.8677C55.2017 56.7563 55.2017 56.6448 55.2017 56.5334C55.2335 55.8649 55.329 55.2123 55.4882 54.5915C55.6633 53.9389 55.9179 53.3181 56.2204 52.7451C56.3159 52.57 56.4114 52.3949 56.5228 52.2357C56.6183 52.0766 56.7297 51.9174 56.8412 51.7582C58.0668 52.3312 59.3402 53.541 60.2634 55.9445C61.5845 59.3986 63.9562 61.4837 66.6463 61.8817C68.3176 62.1523 70.1003 61.7543 71.8194 60.656Z" fill="url(#paint20_linear_2_3757)"/>
<path opacity="0.5" d="M72.6471 57.5679C72.6153 58.0136 72.5357 58.4593 72.4402 58.8891C72.2969 59.5099 72.09 60.0988 71.8194 60.6559C71.708 60.8787 71.5807 61.1175 71.4533 61.3244C71.1031 61.9134 70.6893 62.4387 70.2277 62.9321C70.0208 63.139 69.8138 63.3459 69.591 63.537C69.1612 63.9031 68.7155 64.2214 68.2221 64.492C66.9487 65.2083 65.5002 65.6062 63.9403 65.6062C63.3832 65.6062 62.842 65.5585 62.3008 65.447C60.9956 65.2083 59.8018 64.6671 58.7831 63.919C58.6398 63.8075 58.4806 63.6961 58.3374 63.5688C57.6848 63.0276 57.1277 62.4068 56.6661 61.7065C56.3 61.1493 55.9816 60.5604 55.7588 59.9237C55.6473 59.6531 55.5678 59.3666 55.4882 59.0801C55.3449 58.5389 55.2653 57.9818 55.2176 57.4088C55.2176 57.3132 55.2017 57.2177 55.2017 57.1063C56.0453 59.0005 57.5734 60.8151 60.2952 61.8497C62.6192 62.7411 64.768 62.566 66.6463 61.8815C69.3045 60.9265 71.4215 58.9527 72.6471 57.5679Z" fill="url(#paint21_linear_2_3757)" stroke="url(#paint22_radial_2_3757)" stroke-width="0.683854" stroke-miterlimit="10"/>
<path d="M72.6465 57.5521C72.6465 57.3611 72.5351 53.0634 67.3619 50.4371C61.2019 47.3013 57.2544 51.2807 57.1748 51.3603C60.4697 47.3013 66.5979 47.0307 70.243 50.8191C71.978 52.6177 72.8375 55.0531 72.6465 57.5521Z" fill="url(#paint23_linear_2_3757)"/>
</g>
<g filter="url(#filter2_d_2_3757)">
<path d="M17.6758 19.665C17.6758 19.9603 17.654 20.2447 17.5993 20.5182C17.5774 20.6713 17.5446 20.8135 17.5008 20.9557C17.293 21.7432 16.8883 22.4652 16.3414 23.0449C16.1445 23.2527 15.9257 23.4496 15.696 23.6246C15.4882 23.7887 15.2585 23.9309 15.0179 24.0621C14.7006 24.2372 14.3506 24.3684 13.9897 24.4669C13.574 24.5762 13.1255 24.6419 12.6771 24.6419C12.4693 24.6419 12.2614 24.6309 12.0645 24.6091C10.3801 24.4012 8.94715 23.3512 8.22523 21.8854C7.94084 21.3167 7.76582 20.6822 7.71113 20.0259C7.7002 19.9056 7.7002 19.7853 7.7002 19.665C7.7002 18.9102 7.86427 18.1993 8.1596 17.5648C8.42212 16.9961 8.79402 16.482 9.25342 16.0554C9.66907 15.6616 10.1613 15.3334 10.6863 15.1037C11.2989 14.8412 11.9661 14.6881 12.6771 14.6881C14.821 14.6881 16.6586 16.0444 17.3586 17.9477C17.5336 18.418 17.6321 18.9321 17.654 19.4572C17.6649 19.5228 17.6758 19.5994 17.6758 19.665Z" fill="url(#paint24_radial_2_3757)"/>
<path d="M8.23431 21.8852C8.2015 21.8196 8.16868 21.743 8.13587 21.6774C7.90616 21.1633 7.76397 20.6164 7.72021 20.0257V20.0148C7.81866 20.0039 7.96086 20.0476 8.0593 20.332C8.19056 20.7039 8.79216 21.6008 8.23431 21.8852Z" fill="#F79C41"/>
<path d="M12.1389 21.0321C12.1279 21.0759 12.117 21.1087 12.0951 21.1415C11.931 21.4259 11.3841 21.5681 10.7716 21.4587C10.2356 21.3603 9.80904 21.1087 9.66684 20.8352C9.62309 20.7587 9.61215 20.6712 9.62309 20.5946C9.68872 20.2336 10.2903 20.1461 10.9794 20.2665C11.6795 20.3977 12.2045 20.6821 12.1389 21.0321Z" fill="#F79C41"/>
<path d="M10.6747 18.6695C10.6638 18.6695 10.6638 18.6695 10.6747 18.6695C10.5325 18.8773 10.1059 18.6914 9.60278 18.3632C9.19807 18.1007 8.90274 17.8273 8.88086 17.6304C8.88086 17.5866 8.88086 17.5429 8.91367 17.4991C9.05587 17.2913 9.60278 17.2694 10.095 17.5976C10.5982 17.9257 10.806 18.4617 10.6747 18.6695Z" fill="#F79C41"/>
<path d="M16.1856 21.7323C15.7809 22.0714 15.2996 22.1589 15.1027 21.9292C15.0918 21.9183 15.0809 21.9073 15.0809 21.8964C14.9387 21.6557 15.1137 21.2291 15.4965 20.9119C15.8903 20.5838 16.3497 20.4963 16.5575 20.6932C16.5685 20.7041 16.5685 20.7041 16.5794 20.715C16.7653 20.9338 16.5903 21.3932 16.1856 21.7323Z" fill="#F79C41"/>
<path d="M13.2766 18.9757C12.8719 19.3039 12.4563 19.4789 12.2156 19.1726C12.1937 19.1398 12.1719 19.1179 12.1609 19.0851C12.0078 18.7788 12.1609 18.3413 12.5328 18.046C12.9375 17.7178 13.4954 17.5756 13.8782 18.046C13.8782 18.046 13.8782 18.0569 13.8892 18.0569C14.097 18.3522 13.6813 18.6476 13.2766 18.9757Z" fill="#F79C41"/>
<path d="M11.646 23.4823C11.5913 23.537 11.471 23.5698 11.285 23.5589C10.6068 23.526 9.87398 22.7057 10.0818 22.4432L10.0927 22.4322C10.3006 22.1916 10.8365 22.6182 11.11 22.7713C11.5585 23.001 11.7991 23.3291 11.646 23.4823Z" fill="#F79C41"/>
<path d="M14.2836 22.8698C14.2836 23.0229 14.0758 23.187 13.7367 23.1979C13.1242 23.2198 12.7851 23.1104 12.6976 22.8917C12.6866 22.8698 12.6866 22.8479 12.6757 22.8151C12.6429 22.5526 13.2007 22.5963 13.4961 22.5854C14.0649 22.5635 14.2836 22.7167 14.2836 22.8698Z" fill="#F79C41"/>
<path d="M16.133 19.3804C16.0673 19.4789 15.9361 19.5445 15.772 19.5445C15.247 19.5445 14.5469 19.1617 14.6344 18.8116C14.6454 18.7679 14.6563 18.7351 14.6782 18.7023C14.8094 18.4835 15.1595 18.5929 15.4876 18.6585C16.133 18.8116 16.2752 19.1617 16.133 19.3804Z" fill="#F79C41"/>
<path d="M14.4139 16.7882C14.4029 16.7773 14.4029 16.7554 14.4029 16.7335C14.392 16.5804 14.5342 16.3616 14.8295 16.2851C15.0155 16.2304 15.267 16.2413 15.4202 16.3398C15.4858 16.3835 15.5405 16.4382 15.5514 16.5257C15.6061 16.7335 14.5123 17.0289 14.4139 16.7882Z" fill="#F79C41"/>
<path d="M11.4063 16.3287C11.3735 16.3505 11.3297 16.3396 11.275 16.2958C10.9578 15.9786 10.925 15.4427 11.1 15.3552C11.1657 15.3223 11.2313 15.3114 11.275 15.3114C11.636 15.3552 11.6032 16.2083 11.4063 16.3287Z" fill="#F79C41"/>
<path d="M16.941 18.1664C16.9191 18.1774 16.8863 18.1774 16.8644 18.1664C16.7441 18.1336 16.58 17.9477 16.5363 17.6633C16.5035 17.4992 16.591 17.3351 16.7004 17.2914C16.8207 17.2367 16.9738 17.3133 17.0394 17.6633C17.0613 17.8711 17.0504 18.1117 16.941 18.1664Z" fill="#F79C41"/>
<path d="M16.3392 23.0448C15.9563 23.4495 15.5188 23.7995 15.0266 24.062C14.9719 24.0292 14.9172 23.9964 14.8953 23.9417C14.8735 23.887 14.8844 23.8214 14.9391 23.7448C15.1469 23.4276 15.3438 22.9245 15.8141 22.8916C15.9454 22.8807 16.0548 22.9026 16.1423 22.9354C16.2407 22.9573 16.2954 23.001 16.3392 23.0448Z" fill="#F79C41"/>
<path d="M13.9984 24.4668C13.5827 24.5762 13.1342 24.6418 12.6858 24.6418C12.478 24.6418 12.2701 24.6309 12.0732 24.609C12.0732 24.5543 12.0842 24.4887 12.117 24.434C12.1498 24.3793 12.2154 24.3465 12.3029 24.3246C12.653 24.2699 12.828 24.0293 13.3311 24.0621C13.5937 24.073 13.7687 24.2043 13.878 24.3246C13.9437 24.3683 13.9765 24.423 13.9984 24.4668Z" fill="#F79C41"/>
<path d="M13.3636 15.388C13.3418 15.5083 13.1231 15.552 13.0247 15.5083C13.0028 15.4974 12.9919 15.4864 12.9809 15.4646C12.9262 15.3443 13.309 15.1256 13.3636 15.3224C13.3746 15.3552 13.3746 15.3771 13.3636 15.388Z" fill="#F79C41"/>
<path d="M11.8452 21.9732C11.7139 21.9076 11.6155 21.8529 11.6373 22.1154C11.6701 22.3779 11.867 22.4326 12.042 22.4326C12.2171 22.4435 11.9545 22.0388 11.8452 21.9732Z" fill="#EF903A"/>
<path d="M9.40603 21.7981C9.28571 21.7653 9.28571 21.9731 9.19821 22.181C9.1107 22.3888 9.23102 22.531 9.40603 22.531C9.58104 22.531 9.64667 21.8637 9.40603 21.7981Z" fill="#EF903A"/>
<path d="M8.88154 19.1621C8.77215 19.1074 8.65183 19.0417 8.61902 19.1621C8.5862 19.2824 8.84872 19.5996 9.00186 19.5996C9.14405 19.5996 9.20968 19.3152 8.88154 19.1621Z" fill="#EF903A"/>
<path d="M17.6743 19.6648C17.6743 19.9601 17.6524 20.2445 17.5977 20.518C17.5539 20.4961 17.5102 20.4742 17.4664 20.4305C17.1711 20.1351 17.4008 19.7195 17.4664 19.5773C17.543 19.4242 17.6196 19.4351 17.6633 19.457C17.6633 19.5226 17.6743 19.5992 17.6743 19.6648Z" fill="#EF903A"/>
<path d="M14.6557 19.9822C14.4916 19.9604 14.3932 20.1025 14.6557 20.2119C14.9181 20.3322 14.8853 20.015 14.6557 19.9822Z" fill="#EF903A"/>
<path d="M8.35574 18.6694C8.27919 18.7132 8.26826 18.8772 8.47603 18.8444C8.67286 18.8116 8.5307 18.582 8.35574 18.6694Z" fill="#EF903A"/>
<path d="M12.5125 16.6133C12.425 16.6461 12.3047 16.7336 12.5125 16.7554C12.7202 16.7882 12.5999 16.5914 12.5125 16.6133Z" fill="#EF903A"/>
<path d="M13.0154 16.6132C12.9061 16.5476 12.8952 16.8429 12.9826 16.9632C13.0701 17.0834 13.3654 16.821 13.0154 16.6132Z" fill="#EF903A"/>
<path d="M13.9457 23.559C13.8801 23.5699 13.8582 23.6793 14.0331 23.734C14.219 23.7886 14.219 23.5043 13.9457 23.559Z" fill="#EF903A"/>
<path d="M11.3969 24.051C11.3094 24.0838 11.222 24.1385 11.3969 24.1932C11.5828 24.2588 11.4844 24.0292 11.3969 24.051Z" fill="#EF903A"/>
<path d="M11.5494 19.7523C11.3963 19.7632 11.7244 19.9601 11.8119 19.9819C11.8993 20.0148 12.1618 19.7195 11.5494 19.7523Z" fill="#EF903A"/>
<path d="M16.3514 18.987C16.2748 19.0417 16.4061 19.3697 16.5263 19.3369C16.6466 19.315 16.6138 18.7792 16.3514 18.987Z" fill="#EF903A"/>
<path d="M13.9996 21.0433C13.9887 21.098 13.9668 21.1418 13.9559 21.1855C13.8684 21.4152 13.3652 21.5027 13.234 21.4043L13.223 21.3933C13.1027 21.273 13.223 20.9777 13.2777 20.8355C13.3652 20.6277 13.8028 20.4855 13.9559 20.5402C14.0653 20.5839 14.0543 20.8245 13.9996 21.0433Z" fill="#F79C41"/>
<path d="M8.88086 17.6196C8.88086 17.5759 8.88086 17.5321 8.91367 17.4884C9.05587 17.2805 9.60278 17.2587 10.095 17.5868C10.5982 17.915 10.806 18.44 10.6638 18.6588C10.6747 18.5275 10.62 18.3525 10.4341 18.1009C9.94187 17.4556 9.05587 17.2368 8.88086 17.6196Z" fill="#E27C37"/>
<path d="M12.1389 21.0321C12.1279 21.0759 12.117 21.1087 12.0951 21.1415C12.0842 21.0868 11.9748 20.693 11.4826 20.529C10.9685 20.354 10.2794 20.2118 9.87466 20.529C9.74341 20.6274 9.68872 20.7368 9.66684 20.8352C9.62309 20.7587 9.61215 20.6712 9.62309 20.5946C9.68872 20.2336 10.2903 20.1461 10.9794 20.2665C11.6795 20.3977 12.2045 20.6821 12.1389 21.0321Z" fill="#E27C37"/>
<path d="M12.9482 17.9587C12.4013 18.1447 12.1716 18.6806 12.1497 19.0744C11.9966 18.7682 12.1497 18.3306 12.5216 18.0353C12.9263 17.7071 13.4842 17.5649 13.867 18.0353C13.867 18.0353 13.867 18.0462 13.8779 18.0462C13.7139 17.9368 13.4076 17.8056 12.9482 17.9587Z" fill="#E27C37"/>
<path d="M13.9994 21.0434C13.9994 20.8355 13.9447 20.5949 13.715 20.6605C13.4853 20.7262 13.2337 21.1418 13.2227 21.4043L13.2118 21.3934C13.0915 21.2731 13.2118 20.9777 13.2665 20.8355C13.354 20.6277 13.7915 20.4855 13.9447 20.5402C14.065 20.584 14.054 20.8246 13.9994 21.0434Z" fill="#E27C37"/>
<path d="M16.1322 19.3802C16.1979 18.9974 15.5853 18.8661 15.2681 18.7568C14.9618 18.6474 14.754 18.6802 14.6665 18.713C14.7978 18.4942 15.1478 18.6036 15.4759 18.6693C16.1322 18.8115 16.2744 19.1615 16.1322 19.3802Z" fill="#E27C37"/>
<path d="M14.4147 16.7882C14.4038 16.7773 14.4038 16.7554 14.4038 16.7335C14.5898 16.8538 15.0601 16.7554 15.3226 16.6351C15.5086 16.5475 15.4758 16.4272 15.4211 16.3397C15.4867 16.3835 15.5414 16.4382 15.5523 16.5257C15.607 16.7335 14.5132 17.0288 14.4147 16.7882Z" fill="#E27C37"/>
<path d="M11.4063 16.3287C11.3735 16.3505 11.3297 16.3396 11.275 16.2958C10.9578 15.9786 10.925 15.4427 11.1 15.3552C11.1657 15.3223 11.2313 15.3114 11.275 15.3114C11.2094 15.3223 11.1 15.388 11.1 15.6395C11.111 15.9458 11.2532 16.1865 11.4063 16.3287Z" fill="#E27C37"/>
<path d="M13.3639 15.388C13.353 15.3333 13.3093 15.2896 13.189 15.3224C13.0796 15.3443 13.0468 15.4317 13.0359 15.5083C13.014 15.4974 13.0031 15.4864 12.9921 15.4646C12.9375 15.3443 13.3202 15.1256 13.3749 15.3224C13.3749 15.3552 13.3749 15.3771 13.3639 15.388Z" fill="#E27C37"/>
<path d="M11.647 23.4823C11.6251 23.3292 11.4829 23.1761 11.2313 23.0339C10.9141 22.8589 10.6735 22.6839 10.4656 22.5307C10.3563 22.4542 10.2141 22.4323 10.0938 22.4323C10.3016 22.1916 10.8375 22.6182 11.111 22.7714C11.5595 23.0011 11.8001 23.3292 11.647 23.4823Z" fill="#E27C37"/>
<path d="M14.2836 22.8698C14.2399 22.7495 14.0977 22.7057 13.857 22.7057H13.0367C12.7195 22.7057 12.7085 22.8917 12.6976 22.8917C12.6866 22.8698 12.6866 22.8479 12.6757 22.8151C12.6429 22.5526 13.2007 22.5963 13.4961 22.5854C14.0649 22.5635 14.2836 22.7167 14.2836 22.8698Z" fill="#E27C37"/>
<path d="M13.8893 24.3135C13.944 24.3682 13.9877 24.4229 14.0096 24.4667C13.5939 24.5761 13.1455 24.6417 12.697 24.6417C12.4892 24.6417 12.2814 24.6307 12.0845 24.6089C12.0845 24.5542 12.0954 24.4885 12.1282 24.4339C13.0908 24.6526 13.6596 24.4448 13.8893 24.3135Z" fill="#E27C37"/>
<path d="M16.3398 23.0446C15.957 23.4493 15.5195 23.7993 15.0273 24.0618C14.9726 24.029 14.9179 23.9962 14.896 23.9415C15.7164 23.6352 16.0664 23.0774 16.1539 22.9352C16.2414 22.9571 16.2961 23.0008 16.3398 23.0446Z" fill="#E27C37"/>
<path d="M16.5466 20.6824C16.4809 20.6606 16.0106 20.5293 15.4746 21.1528C15.2012 21.47 15.1027 21.7106 15.0809 21.8856C14.9387 21.645 15.1137 21.2184 15.4965 20.9012C15.8793 20.573 16.3387 20.4855 16.5466 20.6824Z" fill="#E27C37"/>
<path d="M16.8527 18.1772C16.7324 18.1444 16.5683 17.9585 16.5246 17.6741C16.4917 17.51 16.5793 17.3459 16.6886 17.3022C16.6449 17.3678 16.6011 17.4553 16.6121 17.5866C16.6339 17.7944 16.7215 18.0022 16.8527 18.1772Z" fill="#E27C37"/>
<path d="M8.23431 21.885C8.2015 21.8194 8.16868 21.7428 8.13587 21.6772C8.27806 21.5459 8.40932 21.3162 8.23431 20.9553C8.01555 20.4959 7.9171 20.113 7.72021 20.0365V20.0255C7.81866 20.0146 7.96086 20.0584 8.0593 20.3427C8.19056 20.7037 8.79216 21.6006 8.23431 21.885Z" fill="#E27C37"/>
<path opacity="0.35" d="M17.6764 19.6643C17.6764 19.9596 17.6546 20.244 17.5999 20.5174C17.4358 21.48 16.9873 22.3551 16.3529 23.0442C15.9701 23.4489 15.5325 23.7989 15.0403 24.0614C14.7231 24.2364 14.3731 24.3677 14.0121 24.4661C13.5965 24.5755 13.148 24.6412 12.6995 24.6412C12.4917 24.6412 12.2839 24.6302 12.087 24.6083C10.4025 24.4005 8.96961 23.3504 8.24769 21.8847C7.9633 21.3159 7.78829 20.6815 7.73359 20.0252C7.72266 19.9049 7.72266 19.7846 7.72266 19.6643C7.72266 18.9095 7.88673 18.1985 8.18206 17.5641C8.22581 21.8738 17.1405 22.9567 17.3702 17.947C17.5452 18.4173 17.6436 18.9314 17.6655 19.4564C17.6655 19.5221 17.6764 19.5986 17.6764 19.6643Z" fill="url(#paint25_linear_2_3757)"/>
<path opacity="0.45" d="M15.7073 23.6242C15.4994 23.7882 15.2697 23.9304 15.0291 24.0617C14.7119 24.2367 14.3619 24.368 14.0009 24.4664C13.5852 24.5758 13.1368 24.6414 12.6883 24.6414C12.4805 24.6414 12.2727 24.6305 12.0758 24.6086C10.3913 24.4008 8.95838 23.3507 8.23646 21.885C7.95207 21.3162 7.77706 20.6818 7.72236 20.0255C7.71143 19.9052 7.71143 19.7848 7.71143 19.6645C7.71143 18.9098 7.8755 18.1988 8.17083 17.5644C8.43335 16.9956 8.80525 16.4815 9.26465 16.0549C7.8755 22.6725 12.9836 23.5913 15.7073 23.6242Z" fill="url(#paint26_linear_2_3757)"/>
<path d="M17.6758 19.6646C17.6758 19.9599 17.654 20.2443 17.5993 20.5177C17.5774 20.6709 17.5446 20.8131 17.5008 20.9553C17.3258 16.9519 14.6131 14.6767 10.6973 15.0924C11.3098 14.8299 11.977 14.6767 12.688 14.6767C14.8319 14.6767 16.6695 16.0331 17.3696 17.9363C17.5446 18.4067 17.643 18.9208 17.6649 19.4458C17.6649 19.5224 17.6758 19.5989 17.6758 19.6646Z" fill="url(#paint27_linear_2_3757)"/>
</g>
<circle cx="10.0438" cy="61.57" r="3.51696" fill="url(#paint28_linear_2_3757)"/>
<circle cx="73.9352" cy="29.9173" r="1.75848" fill="url(#paint29_linear_2_3757)"/>
</g>
<defs>
<filter id="filter0_d_2_3757" x="12.5839" y="19.9523" width="54.7072" height="52.3639" filterUnits="userSpaceOnUse" color-interpolation-filters="sRGB">
<feFlood flood-opacity="0" result="BackgroundImageFix"/>
<feColorMatrix in="SourceAlpha" type="matrix" values="0 0 0 0 0 0 0 0 0 0 0 0 0 0 0 0 0 0 127 0" result="hardAlpha"/>
<feOffset dy="2.73541"/>
<feGaussianBlur stdDeviation="1.36771"/>
<feColorMatrix type="matrix" values="0 0 0 0 0.866667 0 0 0 0 0.323875 0 0 0 0 0.278056 0 0 0 1 0"/>
<feBlend mode="normal" in2="BackgroundImageFix" result="effect1_dropShadow_2_3757"/>
<feBlend mode="normal" in="SourceGraphic" in2="effect1_dropShadow_2_3757" result="shape"/>
</filter>
<filter id="filter1_d_2_3757" x="49.5121" y="45.1574" width="28.9249" height="28.9172" filterUnits="userSpaceOnUse" color-interpolation-filters="sRGB">
<feFlood flood-opacity="0" result="BackgroundImageFix"/>
<feColorMatrix in="SourceAlpha" type="matrix" values="0 0 0 0 0 0 0 0 0 0 0 0 0 0 0 0 0 0 127 0" result="hardAlpha"/>
<feOffset dy="2.73541"/>
<feGaussianBlur stdDeviation="1.36771"/>
<feColorMatrix type="matrix" values="0 0 0 0 0 0 0 0 0 0 0 0 0 0 0 0 0 0 0.1 0"/>
<feBlend mode="normal" in2="BackgroundImageFix" result="effect1_dropShadow_2_3757"/>
<feBlend mode="normal" in="SourceGraphic" in2="effect1_dropShadow_2_3757" result="shape"/>
</filter>
<filter id="filter2_d_2_3757" x="4.96478" y="14.6767" width="15.4469" height="15.436" filterUnits="userSpaceOnUse" color-interpolation-filters="sRGB">
<feFlood flood-opacity="0" result="BackgroundImageFix"/>
<feColorMatrix in="SourceAlpha" type="matrix" values="0 0 0 0 0 0 0 0 0 0 0 0 0 0 0 0 0 0 127 0" result="hardAlpha"/>
<feOffset dy="2.73541"/>
<feGaussianBlur stdDeviation="1.36771"/>
<feColorMatrix type="matrix" values="0 0 0 0 0.891667 0 0 0 0 0.361447 0 0 0 0 0.315799 0 0 0 1 0"/>
<feBlend mode="normal" in2="BackgroundImageFix" result="effect1_dropShadow_2_3757"/>
<feBlend mode="normal" in="SourceGraphic" in2="effect1_dropShadow_2_3757" result="shape"/>
</filter>
<linearGradient id="paint0_linear_2_3757" x1="39.9381" y1="10.5738" x2="39.3519" y2="65.6728" gradientUnits="userSpaceOnUse">
<stop stop-color="#FFAD93"/>
<stop offset="1" stop-color="#DB3F3F"/>
</linearGradient>
<linearGradient id="paint1_linear_2_3757" x1="30.8499" y1="25.2283" x2="30.8499" y2="35.1931" gradientUnits="userSpaceOnUse">
<stop stop-color="#F0F2F5"/>
<stop offset="1" stop-color="#FB9A96"/>
</linearGradient>
<linearGradient id="paint2_linear_2_3757" x1="47.5558" y1="25.2283" x2="47.5558" y2="35.1931" gradientUnits="userSpaceOnUse">
<stop stop-color="#F0F2F5"/>
<stop offset="1" stop-color="#FB9A96"/>
</linearGradient>
<linearGradient id="paint3_linear_2_3757" x1="39.3485" y1="24.056" x2="39.3485" y2="36.3654" gradientUnits="userSpaceOnUse">
<stop stop-color="#F0F2F5"/>
<stop offset="1" stop-color="#FB9A96"/>
</linearGradient>
<linearGradient id="paint4_linear_2_3757" x1="56.3847" y1="40.1702" x2="56.3847" y2="42.6974" gradientUnits="userSpaceOnUse">
<stop stop-color="#F0F2F5"/>
<stop offset="1" stop-color="#F0F2F5" stop-opacity="0"/>
</linearGradient>
<linearGradient id="paint5_linear_2_3757" x1="56.3852" y1="45.2247" x2="56.3852" y2="47.7519" gradientUnits="userSpaceOnUse">
<stop stop-color="#F0F2F5"/>
<stop offset="1" stop-color="#F0F2F5" stop-opacity="0"/>
</linearGradient>
<linearGradient id="paint6_linear_2_3757" x1="16.197" y1="38.7096" x2="54.8836" y2="39.8819" gradientUnits="userSpaceOnUse">
<stop stop-color="#F0F2F5"/>
<stop offset="1" stop-color="#F0F2F5" stop-opacity="0"/>
</linearGradient>
<linearGradient id="paint7_linear_2_3757" x1="13.5593" y1="50.4333" x2="44.6258" y2="51.6056" gradientUnits="userSpaceOnUse">
<stop stop-color="#F0F2F5"/>
<stop offset="1" stop-color="#F0F2F5" stop-opacity="0"/>
</linearGradient>
<linearGradient id="paint8_linear_2_3757" x1="17.9559" y1="45.1574" x2="56.9355" y2="45.1574" gradientUnits="userSpaceOnUse">
<stop stop-color="#F0F2F5"/>
<stop offset="1" stop-color="#F0F2F5" stop-opacity="0"/>
</linearGradient>
<linearGradient id="paint9_linear_2_3757" x1="23.5312" y1="45.2247" x2="23.5312" y2="47.7519" gradientUnits="userSpaceOnUse">
<stop stop-color="#F0F2F5"/>
<stop offset="1" stop-color="#F0F2F5" stop-opacity="0"/>
</linearGradient>
<radialGradient id="paint10_radial_2_3757" cx="0" cy="0" r="1" gradientUnits="userSpaceOnUse" gradientTransform="translate(63.9713 56.8721) scale(10.2864)">
<stop stop-color="#77E5B5"/>
<stop offset="1" stop-color="#95F6B0" stop-opacity="0"/>
</radialGradient>
<radialGradient id="paint11_radial_2_3757" cx="0" cy="0" r="1" gradientUnits="userSpaceOnUse" gradientTransform="translate(64.9463 52.3422) scale(10.3293)">
<stop stop-color="#BEEF8F"/>
<stop offset="1" stop-color="#24C9A9"/>
</radialGradient>
<linearGradient id="paint12_linear_2_3757" x1="59.7524" y1="67.0479" x2="67.0894" y2="46.8337" gradientUnits="userSpaceOnUse">
<stop stop-color="#138677"/>
<stop offset="1" stop-color="#139B77" stop-opacity="0.1"/>
</linearGradient>
<linearGradient id="paint13_linear_2_3757" x1="58.6741" y1="66.6571" x2="66.0112" y2="46.4427" gradientUnits="userSpaceOnUse">
<stop stop-color="#138677"/>
<stop offset="1" stop-color="#139B77" stop-opacity="0.1"/>
</linearGradient>
<linearGradient id="paint14_linear_2_3757" x1="59.6769" y1="67.0208" x2="67.0139" y2="46.8067" gradientUnits="userSpaceOnUse">
<stop stop-color="#138677"/>
<stop offset="1" stop-color="#139B77" stop-opacity="0.1"/>
</linearGradient>
<linearGradient id="paint15_linear_2_3757" x1="60.0446" y1="67.1543" x2="67.3817" y2="46.94" gradientUnits="userSpaceOnUse">
<stop stop-color="#138677"/>
<stop offset="1" stop-color="#139B77" stop-opacity="0.1"/>
</linearGradient>
<linearGradient id="paint16_linear_2_3757" x1="60.2112" y1="67.2145" x2="67.5482" y2="47.0002" gradientUnits="userSpaceOnUse">
<stop stop-color="#138677"/>
<stop offset="1" stop-color="#139B77" stop-opacity="0.1"/>
</linearGradient>
<linearGradient id="paint17_linear_2_3757" x1="55.3299" y1="65.4434" x2="62.6669" y2="45.2291" gradientUnits="userSpaceOnUse">
<stop stop-color="#138677"/>
<stop offset="1" stop-color="#139B77" stop-opacity="0.1"/>
</linearGradient>
<linearGradient id="paint18_linear_2_3757" x1="62.5507" y1="68.0645" x2="69.8877" y2="47.8502" gradientUnits="userSpaceOnUse">
<stop stop-color="#138677"/>
<stop offset="1" stop-color="#139B77" stop-opacity="0.1"/>
</linearGradient>
<linearGradient id="paint19_linear_2_3757" x1="63.9638" y1="68.5773" x2="71.3008" y2="48.363" gradientUnits="userSpaceOnUse">
<stop stop-color="#138677"/>
<stop offset="1" stop-color="#139B77" stop-opacity="0.1"/>
</linearGradient>
<linearGradient id="paint20_linear_2_3757" x1="64.9156" y1="64.4728" x2="60.4237" y2="48.0775" gradientUnits="userSpaceOnUse">
<stop stop-color="#127F6A"/>
<stop offset="1" stop-color="#3DD565" stop-opacity="0.1"/>
</linearGradient>
<linearGradient id="paint21_linear_2_3757" x1="65.3477" y1="65.844" x2="63.976" y2="57.8602" gradientUnits="userSpaceOnUse">
<stop stop-color="#126D6A"/>
<stop offset="1" stop-color="#12656A" stop-opacity="0"/>
</linearGradient>
<radialGradient id="paint22_radial_2_3757" cx="0" cy="0" r="1" gradientUnits="userSpaceOnUse" gradientTransform="translate(63.9375 61.2116) scale(6.99218)">
<stop stop-color="#BEEF8F"/>
<stop offset="1" stop-color="#24C9A9"/>
</radialGradient>
<linearGradient id="paint23_linear_2_3757" x1="71.5017" y1="43.9379" x2="62.966" y2="57.5652" gradientUnits="userSpaceOnUse">
<stop stop-color="#D4FFAE"/>
<stop offset="1" stop-color="#D4FFAE" stop-opacity="0"/>
</linearGradient>
<radialGradient id="paint24_radial_2_3757" cx="0" cy="0" r="1" gradientUnits="userSpaceOnUse" gradientTransform="translate(12.4716 17.0264) scale(7.60432 7.60432)">
<stop stop-color="#FFE46A"/>
<stop offset="1" stop-color="#FFA44A"/>
</radialGradient>
<linearGradient id="paint25_linear_2_3757" x1="8.438" y1="22.2944" x2="17.2452" y2="18.174" gradientUnits="userSpaceOnUse">
<stop stop-color="#E27437"/>
<stop offset="1" stop-color="#E27437" stop-opacity="0.2"/>
</linearGradient>
<linearGradient id="paint26_linear_2_3757" x1="11.7293" y1="26.8653" x2="11.6807" y2="14.5235" gradientUnits="userSpaceOnUse">
<stop stop-color="#CC622E"/>
<stop offset="1" stop-color="#CC622E" stop-opacity="0.2"/>
</linearGradient>
<linearGradient id="paint27_linear_2_3757" x1="17.1209" y1="14.6802" x2="14.0911" y2="18.0371" gradientUnits="userSpaceOnUse">
<stop stop-color="#FFF2B6"/>
<stop offset="1" stop-color="#FFF49A" stop-opacity="0.2"/>
</linearGradient>
<linearGradient id="paint28_linear_2_3757" x1="6.527" y1="61.5697" x2="13.56" y2="61.5697" gradientUnits="userSpaceOnUse">
<stop offset="1.38522e-07" stop-color="#FC5E51"/>
<stop offset="1" stop-color="#F59E75"/>
</linearGradient>
<linearGradient id="paint29_linear_2_3757" x1="72.1768" y1="29.9171" x2="75.6933" y2="29.9171" gradientUnits="userSpaceOnUse">
<stop offset="1.38522e-07" stop-color="#FC5E51"/>
<stop offset="1" stop-color="#F59E75"/>
</linearGradient>
</defs>
</svg>
