<svg width="299" height="119" viewBox="0 0 299 119" fill="none" xmlns="http://www.w3.org/2000/svg">
<mask id="mask0_2_3973" style="mask-type:alpha" maskUnits="userSpaceOnUse" x="0" y="0" width="299" height="119">
<rect x="0.000488281" width="298.08" height="118.141" rx="13.6317" fill="url(#paint0_linear_2_3973)"/>
</mask>
<g mask="url(#mask0_2_3973)">
<path d="M13.448 132.903C17.8874 131.714 21.9127 129.323 25.0815 125.994C28.2503 122.665 30.4397 118.527 31.409 114.034C32.3784 109.542 32.0901 104.869 30.5758 100.529C29.0616 96.1899 26.3801 92.3522 22.8262 89.438C19.2722 86.5238 14.9835 84.6461 10.4316 84.0113C5.87966 83.3765 1.24084 84.0092 -2.9748 85.8399C-7.19044 87.6705 -10.8196 90.6282 -13.4633 94.3877C-16.107 98.1472 -17.6627 102.563 -17.9595 107.149L-5.14196 107.979C-4.9977 105.75 -4.24152 103.603 -2.95657 101.776C-1.67162 99.9487 0.0923457 98.5111 2.14135 97.6213C4.19036 96.7316 6.44505 96.424 8.65751 96.7326C10.87 97.0411 12.9545 97.9538 14.6819 99.3702C16.4093 100.787 17.7126 102.652 18.4486 104.761C19.1846 106.87 19.3247 109.142 18.8536 111.325C18.3824 113.509 17.3183 115.52 15.7781 117.138C14.2379 118.756 12.2814 119.918 10.1236 120.496L13.448 132.903Z" fill="url(#paint1_linear_2_3973)"/>
<path d="M274.481 -6.12812C271.802 -4.58105 269.601 -2.32502 268.12 0.3919C266.639 3.10882 265.937 6.1814 266.089 9.27178C266.242 12.3622 267.243 15.3507 268.984 17.9087C270.725 20.4666 273.137 22.4951 275.956 23.7709C278.775 25.0467 281.891 25.5205 284.962 25.1401C288.033 24.7598 290.939 23.54 293.361 21.615C295.784 19.69 297.628 17.1343 298.692 14.2289C299.757 11.3235 299.999 8.18088 299.393 5.14669L290.913 6.8407C291.208 8.31546 291.09 9.84291 290.573 11.2551C290.055 12.6673 289.159 13.9095 287.981 14.8451C286.804 15.7808 285.391 16.3736 283.899 16.5585C282.406 16.7433 280.892 16.5131 279.522 15.893C278.152 15.2729 276.979 14.2869 276.133 13.0436C275.287 11.8003 274.8 10.3478 274.726 8.84569C274.652 7.34362 274.993 5.85019 275.713 4.52964C276.433 3.20908 277.502 2.11254 278.805 1.36059L274.481 -6.12812Z" fill="url(#paint2_linear_2_3973)"/>
<path fill-rule="evenodd" clip-rule="evenodd" d="M238.303 42.1267C221.3 63.4776 192 81.2139 147.044 73.4797C107.23 66.63 82.5396 77.3239 67.8533 91.88C52.7281 106.871 47.1895 126.939 47.7037 140.05L29.5421 140.763C28.8445 122.975 36.0288 97.8318 55.0585 78.9708C74.5271 59.6749 105.423 47.8765 150.126 55.5672C187.933 62.0716 210.812 47.4706 224.085 30.8039C230.882 22.2693 235.223 13.0765 237.563 5.64756C238.735 1.92703 239.348 -1.16914 239.562 -3.35697C239.67 -4.45921 239.66 -5.15693 239.631 -5.49274C239.629 -5.5239 239.626 -5.55075 239.624 -5.57347C239.666 -5.3606 239.81 -4.81703 240.206 -4.12449L255.987 -13.1421C257.257 -10.919 257.612 -8.56573 257.742 -7.02229C257.89 -5.27724 257.831 -3.42373 257.651 -1.58423C257.289 2.11139 256.363 6.46066 254.899 11.1086C251.967 20.4165 246.645 31.6525 238.303 42.1267ZM239.609 -5.67082C239.61 -5.67232 239.616 -5.64136 239.624 -5.57347C239.611 -5.63538 239.608 -5.66932 239.609 -5.67082Z" fill="url(#paint3_linear_2_3973)" fill-opacity="0.05"/>
<path fill-rule="evenodd" clip-rule="evenodd" d="M171.547 -5.58422C154.543 15.7666 125.244 33.503 80.288 25.7687C40.474 18.919 15.7833 29.6129 1.09692 44.169C-14.0283 59.1601 -19.5668 79.2285 -19.0527 92.3395L-37.2143 93.0517C-37.9118 75.2642 -30.7276 50.1208 -11.6978 31.2598C7.77077 11.9639 38.6671 0.16552 83.3697 7.85629C121.177 14.3607 144.056 -0.240364 157.329 -16.9071C164.126 -25.4416 168.467 -34.6345 170.807 -42.0634C171.979 -45.7839 172.591 -48.8801 172.806 -51.0679C172.914 -52.1702 172.903 -52.8679 172.875 -53.2037C172.872 -53.2349 172.87 -53.2617 172.867 -53.2844C172.91 -53.0716 173.054 -52.528 173.45 -51.8354L189.231 -60.8531C190.501 -58.63 190.856 -56.2767 190.986 -54.7332C191.133 -52.9882 191.075 -51.1347 190.895 -49.2952C190.533 -45.5996 189.607 -41.2503 188.143 -36.6024C185.21 -27.2944 179.888 -16.0585 171.547 -5.58422ZM172.852 -53.3818C172.854 -53.3833 172.86 -53.3523 172.867 -53.2844C172.855 -53.3463 172.851 -53.3803 172.852 -53.3818Z" fill="url(#paint4_linear_2_3973)" fill-opacity="0.07"/>
</g>
<defs>
<linearGradient id="paint0_linear_2_3973" x1="127.684" y1="122.791" x2="131.169" y2="-0.00426468" gradientUnits="userSpaceOnUse">
<stop offset="1.38522e-07" stop-color="#6E1FEA"/>
<stop offset="1" stop-color="#A56EFC"/>
</linearGradient>
<linearGradient id="paint1_linear_2_3973" x1="-28.066" y1="141.24" x2="20.7286" y2="90.8079" gradientUnits="userSpaceOnUse">
<stop offset="1.38522e-07" stop-color="white" stop-opacity="0"/>
<stop offset="1" stop-color="white" stop-opacity="0.14"/>
</linearGradient>
<linearGradient id="paint2_linear_2_3973" x1="300.025" y1="-18.7831" x2="277.082" y2="22.5145" gradientUnits="userSpaceOnUse">
<stop offset="1.38522e-07" stop-color="white" stop-opacity="0"/>
<stop offset="1" stop-color="white" stop-opacity="0.14"/>
</linearGradient>
<linearGradient id="paint3_linear_2_3973" x1="149.088" y1="19.5388" x2="149.088" y2="134.954" gradientUnits="userSpaceOnUse">
<stop stop-color="white"/>
<stop offset="1" stop-color="white" stop-opacity="0"/>
</linearGradient>
<linearGradient id="paint4_linear_2_3973" x1="82.3312" y1="-28.1721" x2="82.3312" y2="87.2429" gradientUnits="userSpaceOnUse">
<stop stop-color="white"/>
<stop offset="1" stop-color="white" stop-opacity="0"/>
</linearGradient>
</defs>
</svg>
