<svg width="110" height="110" viewBox="0 0 110 110" fill="none" xmlns="http://www.w3.org/2000/svg">
<mask id="mask0_2_3981" style="mask-type:alpha" maskUnits="userSpaceOnUse" x="0" y="0" width="110" height="110">
<rect x="0.573242" y="0.543869" width="109.054" height="109.054" fill="#C4C4C4"/>
</mask>
<g mask="url(#mask0_2_3981)">
<g filter="url(#filter0_d_2_3981)">
<path d="M22.3828 31.1828V75.0636C22.3828 76.9278 23.8879 78.439 25.7446 78.439H30.7873C31.7157 78.439 32.4682 79.1946 32.4682 80.1267V85.1899C32.468 86.4594 33.1773 87.6217 34.304 88.198C35.4306 88.7743 36.784 88.6671 37.8068 87.9206L50.0773 79.0921C50.6499 78.6707 51.3407 78.442 52.0507 78.439H82.8952C84.7519 78.439 86.257 76.9278 86.257 75.0636V31.1828C86.257 29.3186 84.7519 27.8074 82.8952 27.8074H25.7446C23.8879 27.8074 22.3828 29.3186 22.3828 31.1828Z" fill="#C43635"/>
<path d="M20.8262 29.6245V73.5052C20.8262 75.3694 22.3313 76.8806 24.188 76.8806H29.2307C30.159 76.8806 30.9116 77.6363 30.9116 78.5684V83.6315C30.9114 84.9011 31.6207 86.0633 32.7473 86.6396C33.874 87.2159 35.2274 87.1088 36.2501 86.3623L48.5207 77.5338C49.0933 77.1123 49.7841 76.8837 50.4941 76.8806H81.3386C83.1953 76.8806 84.7004 75.3694 84.7004 73.5052V29.6245C84.7004 27.7603 83.1953 26.249 81.3386 26.249H24.188C22.3313 26.249 20.8262 27.7603 20.8262 29.6245Z" fill="url(#paint0_linear_2_3981)"/>
<path d="M44.0185 46.5026C43.5652 46.5025 43.1304 46.3283 42.8099 46.0184L37.6812 41.0602C37.0138 40.4148 37.0138 39.3686 37.6812 38.7232L42.8099 33.765C43.2391 33.3354 43.8747 33.163 44.4724 33.3143C45.0702 33.4655 45.5369 33.9168 45.6934 34.4947C45.8499 35.0725 45.6716 35.687 45.2272 36.102L41.3072 39.8917L45.2272 43.6814C45.716 44.1541 45.8622 44.8648 45.5976 45.4823C45.3331 46.0998 44.7099 46.5025 44.0185 46.5026Z" fill="url(#paint1_linear_2_3981)"/>
<path d="M61.3287 46.5026C60.6987 46.5025 60.1307 46.0986 59.8896 45.4792C59.6485 44.8598 59.7818 44.1468 60.2272 43.6727L63.7998 39.8713L60.2272 36.0699C59.6368 35.4194 59.6452 34.3854 60.2462 33.746C60.8472 33.1065 61.8189 33.0975 62.4303 33.7258L67.1044 38.6992C67.7126 39.3466 67.7126 40.396 67.1044 41.0434L62.4303 46.0169C62.1382 46.3278 61.7419 46.5025 61.3287 46.5026Z" fill="url(#paint2_linear_2_3981)"/>
<path d="M51.203 48.0605C51.0753 48.061 50.9481 48.0445 50.8243 48.0114C50.4231 47.9062 50.0781 47.6379 49.8653 47.2655C49.6525 46.8931 49.5893 46.4472 49.6897 46.0258L52.8067 32.9306C53.0208 32.0597 53.8638 31.5333 54.6945 31.7519C55.5253 31.9705 56.0325 32.8521 55.8303 33.7262L52.7132 46.8214C52.5397 47.5491 51.9173 48.0597 51.203 48.0605Z" fill="url(#paint3_linear_2_3981)"/>
<path d="M76.2383 56.4752H74.5591C73.6317 56.4752 72.8799 55.7234 72.8799 54.796C72.8799 53.8686 73.6317 53.1168 74.5591 53.1168H76.2383C77.1657 53.1168 77.9175 53.8686 77.9175 54.796C77.9175 55.7234 77.1657 56.4752 76.2383 56.4752Z" fill="url(#paint4_linear_2_3981)"/>
<path d="M76.2383 63.1923H74.5591C73.6317 63.1923 72.8799 62.4404 72.8799 61.513C72.8799 60.5856 73.6317 59.8338 74.5591 59.8338H76.2383C77.1657 59.8338 77.9175 60.5856 77.9175 61.513C77.9175 62.4404 77.1657 63.1923 76.2383 63.1923Z" fill="url(#paint5_linear_2_3981)"/>
<path d="M67.8423 56.4753H30.8994C29.972 56.4753 29.2202 55.7235 29.2202 54.7961C29.2202 53.8686 29.972 53.1168 30.8994 53.1168H67.8423C68.7697 53.1168 69.5215 53.8686 69.5215 54.7961C69.5215 55.7235 68.7697 56.4753 67.8423 56.4753Z" fill="url(#paint6_linear_2_3981)"/>
<path d="M52.7293 69.9095H30.8994C29.972 69.9095 29.2202 69.1577 29.2202 68.2303C29.2202 67.3029 29.972 66.5511 30.8994 66.5511H52.7293C53.6567 66.5511 54.4085 67.3029 54.4085 68.2303C54.4085 69.1577 53.6567 69.9095 52.7293 69.9095Z" fill="url(#paint7_linear_2_3981)"/>
<path d="M67.8427 63.1923H39.2959C38.3685 63.1923 37.6167 62.4404 37.6167 61.513C37.6167 60.5856 38.3685 59.8338 39.2959 59.8338H67.8427C68.7701 59.8338 69.5219 60.5856 69.5219 61.513C69.5219 62.4404 68.7701 63.1923 67.8427 63.1923Z" fill="url(#paint8_linear_2_3981)"/>
<path d="M32.5787 63.1923H30.8994C29.972 63.1923 29.2202 62.4404 29.2202 61.513C29.2202 60.5856 29.972 59.8338 30.8994 59.8338H32.5787C33.5061 59.8338 34.2579 60.5856 34.2579 61.513C34.2579 62.4404 33.5061 63.1923 32.5787 63.1923Z" fill="url(#paint9_linear_2_3981)"/>
</g>
<g filter="url(#filter1_d_2_3981)">
<path d="M84.0014 59.8215C71.9231 60.9638 65.4292 75.3477 73.425 85.1626C77.1267 89.7104 83.3033 91.9738 89.3742 90.4084C92.6317 89.5623 95.445 87.7009 97.4546 85.2895C106.233 74.7131 97.9622 58.4889 84.0014 59.8215Z" fill="url(#paint10_radial_2_3981)"/>
<path d="M78.586 84.697C72.071 79.9376 72.2825 70.1016 79.0514 65.6384C83.6415 62.5924 89.8816 63.2058 93.7949 67.2883C95.5929 69.1709 96.7774 71.6457 96.9889 74.3745C97.8351 84.2951 86.5606 90.5352 78.586 84.697Z" fill="url(#paint11_radial_2_3981)"/>
<path d="M96.5231 71.8792C94.6828 71.8792 91.1715 71.5619 87.089 69.6158C82.5834 67.4794 78.8605 67.141 77.2529 67.0987C77.8029 66.5487 78.3952 66.0622 79.0509 65.6391C80.1086 65.7872 82.1181 66.2314 85.7775 67.4371C90.1138 68.8755 92.6099 68.0294 93.8156 67.289C95.0424 68.5582 95.9943 70.1235 96.5231 71.8792Z" fill="url(#paint12_linear_2_3981)"/>
<path d="M92.7999 66.3376C91.7846 66.7395 89.7962 67.078 86.3694 66.1049C83.3657 65.2377 81.5889 64.8992 80.5947 64.7723C81.187 64.4973 81.8216 64.2646 82.4562 64.0954C83.3234 64.3281 84.4868 64.6877 86.031 65.2377C89.0981 66.3165 91.0442 66.1684 92.1653 65.8511C92.3768 66.0203 92.5884 66.1684 92.7999 66.3376Z" fill="url(#paint13_linear_2_3981)"/>
<path d="M91.0445 65.1528C89.8811 65.2586 87.6601 65.2374 86.1582 63.7355C87.935 63.8413 89.585 64.349 91.0445 65.1528Z" fill="url(#paint14_linear_2_3981)"/>
<path d="M97.052 75.3273C97.052 75.4754 97.052 75.6446 97.052 75.7927C95.5078 75.9619 92.3138 75.7927 87.1736 73.1486C80.6797 69.7853 77.4011 69.5738 75.2012 69.8487C75.3281 69.6161 75.455 69.3834 75.6031 69.1718C77.0626 68.9815 80.299 69.0449 85.7141 71.414C92.3984 74.3543 94.5348 74.9889 97.0097 74.3754C97.0308 74.6716 97.052 75.01 97.052 75.3273Z" fill="url(#paint15_linear_2_3981)"/>
<path d="M83.4505 73.2118C79.3892 71.3292 75.6452 71.9638 74.2279 72.3022C73.9952 73.1272 73.8683 73.9945 73.8472 74.8829C81.6737 73.4656 87.385 77.8443 85.4389 78.1827C83.4505 78.5 82.5833 78.775 79.4738 79.7692C77.1893 80.4884 75.3702 79.8115 74.5664 79.3884C74.8837 80.2345 75.2856 81.0172 75.7721 81.7575C79.8123 83.2594 83.0275 81.6729 87.2369 80.3615C90.4944 79.3461 93.6673 80.4038 95.423 81.2499C96.0153 80.2557 96.4595 79.1557 96.7345 77.9923C91.0867 79.0288 88.2311 75.4117 83.4505 73.2118Z" fill="url(#paint16_linear_2_3981)"/>
<path d="M80.9968 77.9083C79.8123 77.9718 79.1354 78.3102 77.2739 78.564C76.3643 78.6909 75.1586 78.4794 74.2068 78.2467C74.0164 77.5275 73.9106 76.7872 73.8472 76.0257C79.368 75.1373 82.1179 77.8448 80.9968 77.9083Z" fill="url(#paint17_linear_2_3981)"/>
<path d="M93.8138 83.3656C93.5388 83.6406 93.2639 83.9155 92.9677 84.1694C91.5505 83.7252 89.9429 83.4502 88.2506 83.5348C84.3162 83.7463 81.9471 85.1001 78.605 84.677C78.4146 84.529 78.2031 84.3809 78.0127 84.2117C79.3876 84.4021 81.8413 84.2963 86.1142 83.1329C89.0968 82.3291 91.7197 82.6464 93.8138 83.3656Z" fill="url(#paint18_linear_2_3981)"/>
<path d="M91.1281 85.4387C89.4359 86.3906 87.511 86.9194 85.438 86.9194C84.6977 86.9194 83.9785 86.8559 83.2593 86.7079C85.7553 83.958 89.3936 84.8041 91.1281 85.4387Z" fill="url(#paint19_linear_2_3981)"/>
<path opacity="0.55" d="M95.9092 80.3407C95.7611 80.6368 95.5919 80.9541 95.4227 81.2291C94.9573 82.0117 94.4073 82.7098 93.7939 83.3655C93.5189 83.6405 93.2439 83.9155 92.9478 84.1693C92.3767 84.6558 91.7844 85.0789 91.1287 85.4385C89.4364 86.3904 87.5115 86.9192 85.4386 86.9192C84.6982 86.9192 83.979 86.8557 83.2598 86.7076C81.5253 86.3904 79.9388 85.6712 78.5851 84.677C78.3947 84.5289 78.1832 84.3808 77.9928 84.2116C77.1255 83.4924 76.3852 82.6675 75.7717 81.7367C75.2852 80.9964 74.8622 80.2137 74.566 79.3676C74.418 79.008 74.3122 78.6273 74.2064 78.2465C74.0161 77.5273 73.9103 76.787 73.8468 76.0255C73.8468 75.8986 73.8257 75.7717 73.8257 75.6236C73.8257 75.5178 73.8257 75.4121 73.8257 75.3063C73.8257 75.1582 73.8257 75.0102 73.8257 74.8621C73.868 73.9737 73.9949 73.1064 74.2064 72.2814C74.4391 71.4142 74.7776 70.5892 75.1795 69.8277C75.3064 69.595 75.4333 69.3624 75.5814 69.1508C75.7083 68.9393 75.8564 68.7278 76.0044 68.5163C77.6332 69.2778 79.3254 70.8854 80.5523 74.0794C82.308 78.6696 85.4597 81.4406 89.0345 81.9694C91.2556 82.329 93.6247 81.8002 95.9092 80.3407Z" fill="url(#paint20_linear_2_3981)"/>
<path opacity="0.5" d="M97.0091 76.2369C96.9668 76.8291 96.8611 77.4214 96.7342 77.9925C96.5438 78.8175 96.2688 79.6002 95.9092 80.3405C95.7611 80.6366 95.5919 80.9539 95.4227 81.2289C94.9573 82.0116 94.4073 82.7096 93.7939 83.3653C93.5189 83.6403 93.2439 83.9153 92.9478 84.1692C92.3767 84.6557 91.7844 85.0787 91.1287 85.4383C89.4364 86.3902 87.5115 86.919 85.4386 86.919C84.6982 86.919 83.979 86.8556 83.2598 86.7075C81.5253 86.3902 79.9388 85.671 78.5851 84.6768C78.3947 84.5288 78.1832 84.3807 77.9928 84.2115C77.1255 83.4923 76.3852 82.6673 75.7717 81.7366C75.2852 80.9962 74.8622 80.2136 74.566 79.3675C74.418 79.0079 74.3122 78.6271 74.2064 78.2464C74.0161 77.5272 73.9103 76.7868 73.8468 76.0253C73.8468 75.8984 73.8257 75.7715 73.8257 75.6234C74.9468 78.1406 76.9774 80.552 80.5946 81.927C83.6829 83.1115 86.5385 82.8788 89.0345 81.9693C92.5671 80.7001 95.3804 78.0772 97.0091 76.2369Z" fill="url(#paint21_linear_2_3981)" stroke="url(#paint22_radial_2_3981)" stroke-width="0.90878" stroke-miterlimit="10"/>
<path d="M97.0083 76.2158C97.0083 75.962 96.8602 70.2508 89.9855 66.7606C81.7994 62.5935 76.5535 67.8817 76.4478 67.9874C80.8264 62.5935 88.9702 62.2339 93.8142 67.2682C96.1198 69.6585 97.2621 72.8949 97.0083 76.2158Z" fill="url(#paint23_linear_2_3981)"/>
</g>
<g filter="url(#filter2_d_2_3981)">
<path d="M23.9569 25.8673C23.9569 26.2597 23.9279 26.6377 23.8552 27.0011C23.8261 27.2046 23.7825 27.3935 23.7244 27.5825C23.4482 28.6291 22.9103 29.5885 22.1836 30.3589C21.9219 30.635 21.6312 30.8967 21.3259 31.1293C21.0498 31.3473 20.7445 31.5363 20.4247 31.7107C20.0032 31.9433 19.538 32.1177 19.0583 32.2485C18.506 32.3939 17.91 32.4811 17.314 32.4811C17.0378 32.4811 16.7617 32.4666 16.5 32.4375C14.2615 32.1613 12.3573 30.7659 11.3979 28.8181C11.02 28.0622 10.7874 27.2191 10.7147 26.347C10.7002 26.1871 10.7002 26.0272 10.7002 25.8673C10.7002 24.8643 10.9182 23.9195 11.3107 23.0764C11.6596 22.3205 12.1538 21.6373 12.7643 21.0704C13.3167 20.5471 13.9708 20.1111 14.6685 19.8058C15.4825 19.4569 16.3692 19.2534 17.314 19.2534C20.1631 19.2534 22.6051 21.0559 23.5354 23.5851C23.768 24.2102 23.8988 24.8934 23.9279 25.5911C23.9424 25.6783 23.9569 25.7801 23.9569 25.8673Z" fill="url(#paint24_radial_2_3981)"/>
<path d="M11.4102 28.818C11.3666 28.7308 11.323 28.6291 11.2794 28.5419C10.9742 27.8587 10.7852 27.1319 10.7271 26.3469V26.3324C10.8579 26.3179 11.0468 26.376 11.1777 26.754C11.3521 27.2482 12.1516 28.4401 11.4102 28.818Z" fill="#F79C41"/>
<path d="M16.5995 27.6842C16.5849 27.7423 16.5704 27.7859 16.5413 27.8295C16.3233 28.2075 15.5965 28.3964 14.7825 28.2511C14.0702 28.1203 13.5033 27.7859 13.3144 27.4225C13.2562 27.3208 13.2417 27.2045 13.2562 27.1028C13.3434 26.6231 14.1429 26.5068 15.0587 26.6667C15.989 26.8411 16.6867 27.219 16.5995 27.6842Z" fill="#F79C41"/>
<path d="M14.6524 24.5443C14.6379 24.5443 14.6379 24.5443 14.6524 24.5443C14.4635 24.8205 13.8966 24.5734 13.2279 24.1373C12.6901 23.7885 12.2976 23.4251 12.2686 23.1634C12.2686 23.1053 12.2686 23.0471 12.3122 22.989C12.5011 22.7128 13.2279 22.6837 13.882 23.1198C14.5507 23.5559 14.8269 24.2682 14.6524 24.5443Z" fill="#F79C41"/>
<path d="M21.9768 28.6146C21.4389 29.0652 20.7993 29.1815 20.5377 28.8762C20.5232 28.8617 20.5086 28.8472 20.5086 28.8326C20.3197 28.5128 20.5522 27.9459 21.061 27.5244C21.5843 27.0883 22.1948 26.972 22.471 27.2337C22.4855 27.2482 22.4855 27.2482 22.5 27.2628C22.7472 27.5535 22.5146 28.164 21.9768 28.6146Z" fill="#F79C41"/>
<path d="M18.1112 24.9514C17.5734 25.3875 17.021 25.62 16.7012 25.213C16.6721 25.1694 16.6431 25.1403 16.6285 25.0967C16.425 24.6897 16.6285 24.1083 17.1227 23.7158C17.6606 23.2798 18.4019 23.0908 18.9107 23.7158C18.9107 23.7158 18.9107 23.7304 18.9252 23.7304C19.2014 24.1228 18.649 24.5153 18.1112 24.9514Z" fill="#F79C41"/>
<path d="M15.9442 30.9403C15.8715 31.013 15.7117 31.0566 15.4645 31.042C14.5633 30.9984 13.5894 29.9082 13.8656 29.5594L13.8801 29.5448C14.1563 29.225 14.8686 29.7919 15.232 29.9954C15.8279 30.3007 16.1477 30.7368 15.9442 30.9403Z" fill="#F79C41"/>
<path d="M19.4492 30.1262C19.4492 30.3297 19.173 30.5477 18.7224 30.5623C17.9084 30.5913 17.4577 30.446 17.3415 30.1553C17.3269 30.1262 17.3269 30.0971 17.3124 30.0535C17.2688 29.7046 18.0101 29.7628 18.4026 29.7483C19.1584 29.7192 19.4492 29.9227 19.4492 30.1262Z" fill="#F79C41"/>
<path d="M21.9061 25.4895C21.8189 25.6203 21.6445 25.7075 21.4264 25.7075C20.7287 25.7075 19.7984 25.1987 19.9147 24.7336C19.9292 24.6754 19.9438 24.6318 19.9729 24.5882C20.1473 24.2975 20.6124 24.4429 21.0485 24.5301C21.9061 24.7336 22.0951 25.1987 21.9061 25.4895Z" fill="#F79C41"/>
<path d="M19.6222 22.0443C19.6077 22.0298 19.6077 22.0007 19.6077 21.9716C19.5932 21.7681 19.7821 21.4774 20.1746 21.3757C20.4217 21.303 20.756 21.3175 20.9596 21.4483C21.0468 21.5065 21.1194 21.5792 21.134 21.6954C21.2067 21.9716 19.7531 22.3641 19.6222 22.0443Z" fill="#F79C41"/>
<path d="M15.6257 21.434C15.5821 21.463 15.5239 21.4485 15.4512 21.3904C15.0297 20.9688 14.9861 20.2566 15.2187 20.1403C15.3059 20.0967 15.3931 20.0821 15.4512 20.0821C15.9309 20.1403 15.8873 21.2741 15.6257 21.434Z" fill="#F79C41"/>
<path d="M22.9807 23.876C22.9516 23.8905 22.908 23.8905 22.879 23.876C22.7191 23.8324 22.501 23.5852 22.4429 23.2073C22.3993 22.9893 22.5156 22.7712 22.6609 22.7131C22.8208 22.6404 23.0243 22.7422 23.1115 23.2073C23.1406 23.4835 23.1261 23.8033 22.9807 23.876Z" fill="#F79C41"/>
<path d="M22.1808 30.3588C21.6721 30.8966 21.0906 31.3617 20.4365 31.7106C20.3638 31.667 20.2912 31.6234 20.2621 31.5507C20.233 31.478 20.2475 31.3908 20.3202 31.2891C20.5964 30.8675 20.8581 30.1989 21.4831 30.1553C21.6575 30.1407 21.8029 30.1698 21.9192 30.2134C22.05 30.2425 22.1227 30.3006 22.1808 30.3588Z" fill="#F79C41"/>
<path d="M19.07 32.2485C18.5177 32.3939 17.9217 32.4811 17.3257 32.4811C17.0495 32.4811 16.7734 32.4666 16.5117 32.4375C16.5117 32.3648 16.5263 32.2776 16.5699 32.2049C16.6135 32.1323 16.7007 32.0887 16.817 32.0596C17.2821 31.9869 17.5147 31.6671 18.1833 31.7107C18.5322 31.7253 18.7648 31.8997 18.9101 32.0596C18.9974 32.1177 19.041 32.1904 19.07 32.2485Z" fill="#F79C41"/>
<path d="M18.2266 20.1837C18.1976 20.3435 17.9069 20.4016 17.7761 20.3435C17.7471 20.329 17.7326 20.3144 17.718 20.2854C17.6454 20.1255 18.154 19.8349 18.2266 20.0965C18.2412 20.1401 18.2412 20.1691 18.2266 20.1837Z" fill="#F79C41"/>
<path d="M16.2089 28.9347C16.0345 28.8475 15.9037 28.7748 15.9328 29.1236C15.9764 29.4725 16.238 29.5452 16.4706 29.5452C16.7032 29.5597 16.3543 29.0219 16.2089 28.9347Z" fill="#EF903A"/>
<path d="M12.9674 28.702C12.8075 28.6584 12.8075 28.9345 12.6912 29.2107C12.5749 29.4869 12.7348 29.6759 12.9674 29.6759C13.2 29.6759 13.2872 28.7892 12.9674 28.702Z" fill="#EF903A"/>
<path d="M12.2706 25.1991C12.1252 25.1264 11.9653 25.0392 11.9217 25.1991C11.8781 25.359 12.227 25.7805 12.4305 25.7805C12.6194 25.7805 12.7066 25.4026 12.2706 25.1991Z" fill="#EF903A"/>
<path d="M23.9551 25.8673C23.9551 26.2598 23.926 26.6377 23.8533 27.0011C23.7952 26.972 23.737 26.943 23.6789 26.8848C23.2864 26.4923 23.5917 25.94 23.6789 25.751C23.7806 25.5475 23.8824 25.562 23.9405 25.5911C23.9405 25.6783 23.9551 25.7801 23.9551 25.8673Z" fill="#EF903A"/>
<path d="M19.9438 26.289C19.7258 26.2599 19.595 26.4488 19.9438 26.5942C20.2926 26.754 20.249 26.3326 19.9438 26.289Z" fill="#EF903A"/>
<path d="M11.5716 24.5444C11.4699 24.6026 11.4553 24.8205 11.7314 24.777C11.993 24.7334 11.8041 24.4282 11.5716 24.5444Z" fill="#EF903A"/>
<path d="M17.0952 21.812C16.9789 21.8556 16.8191 21.9718 17.0952 22.0009C17.3713 22.0445 17.2114 21.7829 17.0952 21.812Z" fill="#EF903A"/>
<path d="M17.7637 21.8119C17.6184 21.7247 17.6038 22.1171 17.7201 22.2769C17.8363 22.4368 18.2287 22.088 17.7637 21.8119Z" fill="#EF903A"/>
<path d="M19.0001 31.0422C18.9129 31.0567 18.8838 31.202 19.1163 31.2747C19.3634 31.3474 19.3634 30.9695 19.0001 31.0422Z" fill="#EF903A"/>
<path d="M15.6132 31.6962C15.497 31.7398 15.3807 31.8124 15.6132 31.8851C15.8603 31.9723 15.7295 31.6671 15.6132 31.6962Z" fill="#EF903A"/>
<path d="M15.816 25.9834C15.6126 25.9979 16.0485 26.2595 16.1648 26.2886C16.2811 26.3322 16.6298 25.9398 15.816 25.9834Z" fill="#EF903A"/>
<path d="M22.1972 24.9664C22.0955 25.0391 22.2699 25.475 22.4298 25.4315C22.5896 25.4024 22.546 24.6903 22.1972 24.9664Z" fill="#EF903A"/>
<path d="M19.0719 27.699C19.0573 27.7717 19.0283 27.8298 19.0137 27.888C18.8974 28.1932 18.2288 28.3095 18.0544 28.1787L18.0398 28.1641C17.8799 28.0042 18.0398 27.6118 18.1125 27.4228C18.2288 27.1466 18.8102 26.9577 19.0137 27.0303C19.1591 27.0885 19.1446 27.4083 19.0719 27.699Z" fill="#F79C41"/>
<path d="M12.2686 23.1491C12.2686 23.091 12.2686 23.0329 12.3122 22.9747C12.5011 22.6985 13.2279 22.6695 13.882 23.1055C14.5507 23.5416 14.8269 24.2393 14.6379 24.5301C14.6524 24.3556 14.5798 24.123 14.3327 23.7887C13.6785 22.9311 12.5011 22.6404 12.2686 23.1491Z" fill="#E27C37"/>
<path d="M16.5995 27.6842C16.5849 27.7423 16.5704 27.7859 16.5413 27.8295C16.5268 27.7569 16.3814 27.2336 15.7273 27.0155C15.0441 26.783 14.1284 26.594 13.5905 27.0155C13.4161 27.1464 13.3434 27.2917 13.3144 27.4225C13.2562 27.3208 13.2417 27.2045 13.2562 27.1028C13.3434 26.6231 14.1429 26.5068 15.0587 26.6667C15.989 26.8411 16.6867 27.219 16.5995 27.6842Z" fill="#E27C37"/>
<path d="M17.6745 23.5998C16.9477 23.8469 16.6425 24.5592 16.6134 25.0825C16.4099 24.6755 16.6134 24.094 17.1076 23.7016C17.6454 23.2655 18.3868 23.0765 18.8955 23.7016C18.8955 23.7016 18.8955 23.7161 18.9101 23.7161C18.692 23.5708 18.285 23.3963 17.6745 23.5998Z" fill="#E27C37"/>
<path d="M19.0713 27.699C19.0713 27.4228 18.9986 27.103 18.6933 27.1902C18.3881 27.2774 18.0538 27.8298 18.0392 28.1787L18.0247 28.1641C17.8648 28.0042 18.0247 27.6118 18.0974 27.4228C18.2137 27.1466 18.7951 26.9577 18.9986 27.0303C19.1585 27.0885 19.144 27.4083 19.0713 27.699Z" fill="#E27C37"/>
<path d="M21.9058 25.4891C21.993 24.9803 21.179 24.8059 20.7575 24.6605C20.3505 24.5152 20.0743 24.5588 19.958 24.6024C20.1324 24.3117 20.5976 24.457 21.0337 24.5442C21.9058 24.7332 22.0948 25.1984 21.9058 25.4891Z" fill="#E27C37"/>
<path d="M19.6234 22.0443C19.6089 22.0298 19.6089 22.0007 19.6089 21.9716C19.856 22.1315 20.481 22.0007 20.8299 21.8408C21.077 21.7245 21.0334 21.5646 20.9607 21.4483C21.0479 21.5065 21.1206 21.5792 21.1352 21.6955C21.2078 21.9716 19.7542 22.3641 19.6234 22.0443Z" fill="#E27C37"/>
<path d="M15.6257 21.434C15.5821 21.463 15.5239 21.4485 15.4512 21.3904C15.0297 20.9688 14.9861 20.2566 15.2187 20.1403C15.3059 20.0967 15.3931 20.0821 15.4512 20.0821C15.364 20.0967 15.2187 20.1839 15.2187 20.5182C15.2332 20.9252 15.4222 21.245 15.6257 21.434Z" fill="#E27C37"/>
<path d="M18.2272 20.1837C18.2127 20.111 18.1546 20.0529 17.9947 20.0965C17.8494 20.1255 17.8058 20.2418 17.7913 20.3435C17.7622 20.329 17.7477 20.3144 17.7332 20.2854C17.6605 20.1255 18.1691 19.8349 18.2418 20.0965C18.2418 20.1401 18.2418 20.1691 18.2272 20.1837Z" fill="#E27C37"/>
<path d="M15.9454 30.9402C15.9164 30.7367 15.7274 30.5332 15.3931 30.3442C14.9715 30.1117 14.6518 29.8791 14.3756 29.6756C14.2302 29.5738 14.0412 29.5448 13.8813 29.5448C14.1575 29.225 14.8698 29.7919 15.2332 29.9954C15.8292 30.3006 16.1489 30.7367 15.9454 30.9402Z" fill="#E27C37"/>
<path d="M19.4492 30.1262C19.391 29.9663 19.2021 29.9081 18.8823 29.9081H17.7921C17.3705 29.9081 17.356 30.1553 17.3415 30.1553C17.3269 30.1262 17.3269 30.0971 17.3124 30.0535C17.2688 29.7046 18.0101 29.7628 18.4026 29.7483C19.1584 29.7192 19.4492 29.9227 19.4492 30.1262Z" fill="#E27C37"/>
<path d="M18.9253 32.0448C18.998 32.1175 19.0561 32.1901 19.0852 32.2483C18.5328 32.3936 17.9368 32.4809 17.3409 32.4809C17.0647 32.4809 16.7885 32.4663 16.5269 32.4373C16.5269 32.3646 16.5414 32.2774 16.585 32.2047C17.8642 32.4954 18.62 32.2192 18.9253 32.0448Z" fill="#E27C37"/>
<path d="M22.1819 30.3584C21.6732 30.8962 21.0917 31.3613 20.4376 31.7102C20.3649 31.6666 20.2923 31.623 20.2632 31.5503C21.3534 31.1433 21.8185 30.402 21.9348 30.213C22.0511 30.2421 22.1238 30.3002 22.1819 30.3584Z" fill="#E27C37"/>
<path d="M22.4564 27.2195C22.3692 27.1905 21.7442 27.016 21.0319 27.8446C20.6685 28.2661 20.5377 28.5859 20.5086 28.8185C20.3197 28.4987 20.5522 27.9318 21.061 27.5102C21.5698 27.0742 22.1803 26.9579 22.4564 27.2195Z" fill="#E27C37"/>
<path d="M22.8633 23.8903C22.7034 23.8467 22.4854 23.5996 22.4273 23.2217C22.3836 23.0036 22.4999 22.7856 22.6453 22.7274C22.5871 22.8146 22.529 22.9309 22.5435 23.1054C22.5726 23.3815 22.6889 23.6577 22.8633 23.8903Z" fill="#E27C37"/>
<path d="M11.4102 28.8179C11.3666 28.7307 11.323 28.6289 11.2794 28.5417C11.4684 28.3673 11.6428 28.0621 11.4102 27.5824C11.1195 26.9719 10.9887 26.4631 10.7271 26.3614V26.3468C10.8579 26.3323 11.0468 26.3904 11.1777 26.7684C11.3521 27.248 12.1516 28.44 11.4102 28.8179Z" fill="#E27C37"/>
<path opacity="0.35" d="M23.9577 25.8664C23.9577 26.2589 23.9286 26.6368 23.8559 27.0002C23.6379 28.2794 23.0419 29.4423 22.1988 30.358C21.6901 30.8959 21.1086 31.361 20.4545 31.7099C20.033 31.9424 19.5678 32.1169 19.0881 32.2477C18.5358 32.3931 17.9398 32.4803 17.3438 32.4803C17.0676 32.4803 16.7915 32.4657 16.5298 32.4367C14.2913 32.1605 12.3871 30.765 11.4277 28.8172C11.0498 28.0614 10.8172 27.2183 10.7445 26.3461C10.73 26.1862 10.73 26.0263 10.73 25.8664C10.73 24.8635 10.948 23.9186 11.3405 23.0755C11.3986 28.8027 23.2454 30.2417 23.5506 23.5843C23.7832 24.2093 23.914 24.8925 23.9431 25.5903C23.9431 25.6775 23.9577 25.7792 23.9577 25.8664Z" fill="url(#paint25_linear_2_3981)"/>
<path opacity="0.45" d="M21.3406 31.1288C21.0644 31.3468 20.7592 31.5358 20.4394 31.7102C20.0178 31.9428 19.5527 32.1172 19.073 32.248C18.5206 32.3934 17.9247 32.4806 17.3287 32.4806C17.0525 32.4806 16.7763 32.4661 16.5147 32.437C14.2761 32.1608 12.3719 30.7654 11.4126 28.8176C11.0346 28.0617 10.8021 27.2186 10.7294 26.3465C10.7148 26.1866 10.7148 26.0267 10.7148 25.8668C10.7148 24.8638 10.9329 23.919 11.3254 23.0759C11.6742 22.32 12.1684 21.6368 12.7789 21.0699C10.9329 29.8642 17.7211 31.0852 21.3406 31.1288Z" fill="url(#paint26_linear_2_3981)"/>
<path d="M23.957 25.8668C23.957 26.2592 23.9279 26.6372 23.8553 27.0006C23.8262 27.2041 23.7826 27.393 23.7244 27.582C23.4919 22.2619 19.887 19.2384 14.6831 19.7908C15.4971 19.4419 16.3838 19.2384 17.3286 19.2384C20.1777 19.2384 22.6197 21.0408 23.55 23.5701C23.7826 24.1951 23.9134 24.8783 23.9425 25.576C23.9425 25.6778 23.957 25.7795 23.957 25.8668Z" fill="url(#paint27_linear_2_3981)"/>
</g>
<circle cx="13.8148" cy="81.5553" r="4.67372" fill="url(#paint28_linear_2_3981)"/>
<circle cx="98.7206" cy="39.4917" r="2.33686" fill="url(#paint29_linear_2_3981)"/>
</g>
<defs>
<filter id="filter0_d_2_3981" x="17.1911" y="26.249" width="72.7009" height="69.587" filterUnits="userSpaceOnUse" color-interpolation-filters="sRGB">
<feFlood flood-opacity="0" result="BackgroundImageFix"/>
<feColorMatrix in="SourceAlpha" type="matrix" values="0 0 0 0 0 0 0 0 0 0 0 0 0 0 0 0 0 0 127 0" result="hardAlpha"/>
<feOffset dy="3.63512"/>
<feGaussianBlur stdDeviation="1.81756"/>
<feColorMatrix type="matrix" values="0 0 0 0 0.866667 0 0 0 0 0.323875 0 0 0 0 0.278056 0 0 0 1 0"/>
<feBlend mode="normal" in2="BackgroundImageFix" result="effect1_dropShadow_2_3981"/>
<feBlend mode="normal" in="SourceGraphic" in2="effect1_dropShadow_2_3981" result="shape"/>
</filter>
<filter id="filter1_d_2_3981" x="66.2648" y="59.7443" width="38.4392" height="38.4284" filterUnits="userSpaceOnUse" color-interpolation-filters="sRGB">
<feFlood flood-opacity="0" result="BackgroundImageFix"/>
<feColorMatrix in="SourceAlpha" type="matrix" values="0 0 0 0 0 0 0 0 0 0 0 0 0 0 0 0 0 0 127 0" result="hardAlpha"/>
<feOffset dy="3.63512"/>
<feGaussianBlur stdDeviation="1.81756"/>
<feColorMatrix type="matrix" values="0 0 0 0 0 0 0 0 0 0 0 0 0 0 0 0 0 0 0.1 0"/>
<feBlend mode="normal" in2="BackgroundImageFix" result="effect1_dropShadow_2_3981"/>
<feBlend mode="normal" in="SourceGraphic" in2="effect1_dropShadow_2_3981" result="shape"/>
</filter>
<filter id="filter2_d_2_3981" x="7.06508" y="19.2384" width="20.5276" height="20.513" filterUnits="userSpaceOnUse" color-interpolation-filters="sRGB">
<feFlood flood-opacity="0" result="BackgroundImageFix"/>
<feColorMatrix in="SourceAlpha" type="matrix" values="0 0 0 0 0 0 0 0 0 0 0 0 0 0 0 0 0 0 127 0" result="hardAlpha"/>
<feOffset dy="3.63512"/>
<feGaussianBlur stdDeviation="1.81756"/>
<feColorMatrix type="matrix" values="0 0 0 0 0.891667 0 0 0 0 0.361447 0 0 0 0 0.315799 0 0 0 1 0"/>
<feBlend mode="normal" in2="BackgroundImageFix" result="effect1_dropShadow_2_3981"/>
<feBlend mode="normal" in="SourceGraphic" in2="effect1_dropShadow_2_3981" result="shape"/>
</filter>
<linearGradient id="paint0_linear_2_3981" x1="53.5422" y1="13.7858" x2="52.7633" y2="87.0075" gradientUnits="userSpaceOnUse">
<stop stop-color="#FFAD93"/>
<stop offset="1" stop-color="#DB3F3F"/>
</linearGradient>
<linearGradient id="paint1_linear_2_3981" x1="41.4649" y1="33.2604" x2="41.4649" y2="46.5026" gradientUnits="userSpaceOnUse">
<stop stop-color="#F0F2F5"/>
<stop offset="1" stop-color="#FB9A96"/>
</linearGradient>
<linearGradient id="paint2_linear_2_3981" x1="63.6658" y1="33.2604" x2="63.6658" y2="46.5026" gradientUnits="userSpaceOnUse">
<stop stop-color="#F0F2F5"/>
<stop offset="1" stop-color="#FB9A96"/>
</linearGradient>
<linearGradient id="paint3_linear_2_3981" x1="52.7589" y1="31.7025" x2="52.7589" y2="48.0605" gradientUnits="userSpaceOnUse">
<stop stop-color="#F0F2F5"/>
<stop offset="1" stop-color="#FB9A96"/>
</linearGradient>
<linearGradient id="paint4_linear_2_3981" x1="75.3987" y1="53.1168" x2="75.3987" y2="56.4752" gradientUnits="userSpaceOnUse">
<stop stop-color="#F0F2F5"/>
<stop offset="1" stop-color="#F0F2F5" stop-opacity="0"/>
</linearGradient>
<linearGradient id="paint5_linear_2_3981" x1="75.3987" y1="59.8338" x2="75.3987" y2="63.1923" gradientUnits="userSpaceOnUse">
<stop stop-color="#F0F2F5"/>
<stop offset="1" stop-color="#F0F2F5" stop-opacity="0"/>
</linearGradient>
<linearGradient id="paint6_linear_2_3981" x1="21.9926" y1="51.1759" x2="73.4036" y2="52.7338" gradientUnits="userSpaceOnUse">
<stop stop-color="#F0F2F5"/>
<stop offset="1" stop-color="#F0F2F5" stop-opacity="0"/>
</linearGradient>
<linearGradient id="paint7_linear_2_3981" x1="18.4873" y1="66.7554" x2="59.7719" y2="68.3133" gradientUnits="userSpaceOnUse">
<stop stop-color="#F0F2F5"/>
<stop offset="1" stop-color="#F0F2F5" stop-opacity="0"/>
</linearGradient>
<linearGradient id="paint8_linear_2_3981" x1="24.33" y1="59.7444" x2="76.1304" y2="59.7444" gradientUnits="userSpaceOnUse">
<stop stop-color="#F0F2F5"/>
<stop offset="1" stop-color="#F0F2F5" stop-opacity="0"/>
</linearGradient>
<linearGradient id="paint9_linear_2_3981" x1="31.739" y1="59.8338" x2="31.739" y2="63.1923" gradientUnits="userSpaceOnUse">
<stop stop-color="#F0F2F5"/>
<stop offset="1" stop-color="#F0F2F5" stop-opacity="0"/>
</linearGradient>
<radialGradient id="paint10_radial_2_3981" cx="0" cy="0" r="1" gradientUnits="userSpaceOnUse" gradientTransform="translate(85.4797 75.3121) scale(13.6697)">
<stop stop-color="#77E5B5"/>
<stop offset="1" stop-color="#95F6B0" stop-opacity="0"/>
</radialGradient>
<radialGradient id="paint11_radial_2_3981" cx="0" cy="0" r="1" gradientUnits="userSpaceOnUse" gradientTransform="translate(86.7752 69.2918) scale(13.7267 13.7267)">
<stop stop-color="#BEEF8F"/>
<stop offset="1" stop-color="#24C9A9"/>
</radialGradient>
<linearGradient id="paint12_linear_2_3981" x1="79.8731" y1="88.835" x2="89.6233" y2="61.9721" gradientUnits="userSpaceOnUse">
<stop stop-color="#138677"/>
<stop offset="1" stop-color="#139B77" stop-opacity="0.1"/>
</linearGradient>
<linearGradient id="paint13_linear_2_3981" x1="78.4401" y1="88.3156" x2="88.1905" y2="61.4525" gradientUnits="userSpaceOnUse">
<stop stop-color="#138677"/>
<stop offset="1" stop-color="#139B77" stop-opacity="0.1"/>
</linearGradient>
<linearGradient id="paint14_linear_2_3981" x1="79.7734" y1="88.7988" x2="89.5236" y2="61.9361" gradientUnits="userSpaceOnUse">
<stop stop-color="#138677"/>
<stop offset="1" stop-color="#139B77" stop-opacity="0.1"/>
</linearGradient>
<linearGradient id="paint15_linear_2_3981" x1="80.2614" y1="88.9762" x2="90.0117" y2="62.1132" gradientUnits="userSpaceOnUse">
<stop stop-color="#138677"/>
<stop offset="1" stop-color="#139B77" stop-opacity="0.1"/>
</linearGradient>
<linearGradient id="paint16_linear_2_3981" x1="80.4829" y1="89.0565" x2="90.2332" y2="62.1935" gradientUnits="userSpaceOnUse">
<stop stop-color="#138677"/>
<stop offset="1" stop-color="#139B77" stop-opacity="0.1"/>
</linearGradient>
<linearGradient id="paint17_linear_2_3981" x1="73.9961" y1="86.7025" x2="83.7464" y2="59.8396" gradientUnits="userSpaceOnUse">
<stop stop-color="#138677"/>
<stop offset="1" stop-color="#139B77" stop-opacity="0.1"/>
</linearGradient>
<linearGradient id="paint18_linear_2_3981" x1="83.5917" y1="90.1858" x2="93.3419" y2="63.3229" gradientUnits="userSpaceOnUse">
<stop stop-color="#138677"/>
<stop offset="1" stop-color="#139B77" stop-opacity="0.1"/>
</linearGradient>
<linearGradient id="paint19_linear_2_3981" x1="85.4699" y1="90.8675" x2="95.2202" y2="64.0044" gradientUnits="userSpaceOnUse">
<stop stop-color="#138677"/>
<stop offset="1" stop-color="#139B77" stop-opacity="0.1"/>
</linearGradient>
<linearGradient id="paint20_linear_2_3981" x1="86.7346" y1="85.4127" x2="80.7653" y2="63.625" gradientUnits="userSpaceOnUse">
<stop stop-color="#127F6A"/>
<stop offset="1" stop-color="#3DD565" stop-opacity="0.1"/>
</linearGradient>
<linearGradient id="paint21_linear_2_3981" x1="87.3088" y1="87.235" x2="85.486" y2="76.6252" gradientUnits="userSpaceOnUse">
<stop stop-color="#126D6A"/>
<stop offset="1" stop-color="#12656A" stop-opacity="0"/>
</linearGradient>
<radialGradient id="paint22_radial_2_3981" cx="0" cy="0" r="1" gradientUnits="userSpaceOnUse" gradientTransform="translate(85.4349 81.0789) scale(9.29198)">
<stop stop-color="#BEEF8F"/>
<stop offset="1" stop-color="#24C9A9"/>
</radialGradient>
<linearGradient id="paint23_linear_2_3981" x1="95.487" y1="58.1238" x2="84.1437" y2="76.2333" gradientUnits="userSpaceOnUse">
<stop stop-color="#D4FFAE"/>
<stop offset="1" stop-color="#D4FFAE" stop-opacity="0"/>
</linearGradient>
<radialGradient id="paint24_radial_2_3981" cx="0" cy="0" r="1" gradientUnits="userSpaceOnUse" gradientTransform="translate(17.041 22.3608) scale(10.1055 10.1055)">
<stop stop-color="#FFE46A"/>
<stop offset="1" stop-color="#FFA44A"/>
</radialGradient>
<linearGradient id="paint25_linear_2_3981" x1="11.6806" y1="29.3617" x2="23.3846" y2="23.886" gradientUnits="userSpaceOnUse">
<stop stop-color="#E27437"/>
<stop offset="1" stop-color="#E27437" stop-opacity="0.2"/>
</linearGradient>
<linearGradient id="paint26_linear_2_3981" x1="16.0543" y1="35.436" x2="15.9897" y2="19.0349" gradientUnits="userSpaceOnUse">
<stop stop-color="#CC622E"/>
<stop offset="1" stop-color="#CC622E" stop-opacity="0.2"/>
</linearGradient>
<linearGradient id="paint27_linear_2_3981" x1="23.2195" y1="19.2429" x2="19.1932" y2="23.704" gradientUnits="userSpaceOnUse">
<stop stop-color="#FFF2B6"/>
<stop offset="1" stop-color="#FFF49A" stop-opacity="0.2"/>
</linearGradient>
<linearGradient id="paint28_linear_2_3981" x1="9.14131" y1="81.5548" x2="18.4875" y2="81.5548" gradientUnits="userSpaceOnUse">
<stop offset="1.38522e-07" stop-color="#FC5E51"/>
<stop offset="1" stop-color="#F59E75"/>
</linearGradient>
<linearGradient id="paint29_linear_2_3981" x1="96.3839" y1="39.4914" x2="101.057" y2="39.4914" gradientUnits="userSpaceOnUse">
<stop offset="1.38522e-07" stop-color="#FC5E51"/>
<stop offset="1" stop-color="#F59E75"/>
</linearGradient>
</defs>
</svg>
