<svg width="83" height="67" viewBox="0 0 83 67" fill="none" xmlns="http://www.w3.org/2000/svg">
<mask id="mask0_2_3571" style="mask-type:alpha" maskUnits="userSpaceOnUse" x="0" y="0" width="83" height="83">
<rect x="0.0800781" y="0.400391" width="82.0624" height="82.0624" fill="#C4C4C4"/>
</mask>
<g mask="url(#mask0_2_3571)">
<g filter="url(#filter0_d_2_3571)">
<path d="M20.4635 20.7507H61.4778C63.9946 20.7507 66.035 22.791 66.035 25.3079V66.3222C66.035 68.839 63.9946 70.8794 61.4778 70.8794H20.4635C17.9466 70.8794 15.9062 68.839 15.9062 66.3222L15.9062 25.3079C15.9062 22.791 17.9466 20.7507 20.4635 20.7507Z" fill="#2E1D4F"/>
<path d="M20.4635 18.5712H61.4778C63.9946 18.5712 66.035 20.6116 66.035 23.1285V64.1427C66.035 66.6596 63.9946 68.7 61.4778 68.7H20.4635C17.9466 68.7 15.9062 66.6596 15.9062 64.1427L15.9062 23.1285C15.9062 20.6116 17.9466 18.5712 20.4635 18.5712Z" fill="url(#paint0_linear_2_3571)"/>
<path d="M20.4635 18.5712H61.4782C63.995 18.5712 66.0354 20.6116 66.0354 23.1285V29.9642H15.9062V23.1285C15.9062 20.6116 17.9466 18.5712 20.4635 18.5712Z" fill="url(#paint1_linear_2_3571)"/>
<path d="M28.4391 34.5217H60.3394C60.9686 34.5217 61.4787 35.0318 61.4787 35.6611C61.4787 36.2903 60.9686 36.8004 60.3394 36.8004H28.4391C27.8099 36.8004 27.2998 36.2903 27.2998 35.6611C27.2998 35.0318 27.8099 34.5217 28.4391 34.5217Z" fill="url(#paint2_linear_2_3571)"/>
<path d="M28.4386 39.0784H39.8316C40.4608 39.0784 40.9709 39.5885 40.9709 40.2177C40.9709 40.8469 40.4608 41.357 39.8316 41.357H28.4386C27.8094 41.357 27.2993 40.8469 27.2993 40.2177C27.2993 39.5885 27.8094 39.0784 28.4386 39.0784Z" fill="url(#paint3_linear_2_3571)"/>
<path d="M28.4386 43.6359H39.8316C40.4608 43.6359 40.9709 44.146 40.9709 44.7753C40.9709 45.4045 40.4608 45.9145 39.8316 45.9145H28.4386C27.8094 45.9145 27.2993 45.4044 27.2993 44.7753C27.2993 44.146 27.8094 43.6359 28.4386 43.6359Z" fill="#B8A4DF"/>
<path d="M28.4396 52.7499H32.9967C33.626 52.7499 34.1361 53.26 34.1361 53.8893C34.1361 54.5185 33.626 55.0286 32.9967 55.0286H28.4396C27.8104 55.0286 27.3003 54.5185 27.3003 53.8893C27.3003 53.26 27.8104 52.7499 28.4396 52.7499Z" fill="#7F5CC6"/>
<path d="M28.4391 48.1933H32.9963C33.6255 48.1933 34.1356 48.7034 34.1356 49.3326C34.1356 49.9619 33.6255 50.472 32.9963 50.472H28.4391C27.8099 50.472 27.2998 49.9619 27.2998 49.3326C27.2998 48.7034 27.8099 48.1933 28.4391 48.1933Z" fill="#7F5CC6"/>
<path d="M21.6012 61.8649H23.8798C24.509 61.8649 25.0191 62.375 25.0191 63.0043C25.0191 63.6335 24.509 64.1436 23.8798 64.1436H21.6012C20.972 64.1436 20.4619 63.6335 20.4619 63.0043C20.4619 62.375 20.972 61.8649 21.6012 61.8649Z" fill="url(#paint4_linear_2_3571)"/>
<path d="M21.6012 57.3073H23.8798C24.509 57.3073 25.0191 57.8175 25.0191 58.4467C25.0191 59.0759 24.509 59.586 23.8798 59.586H21.6012C20.972 59.586 20.4619 59.0759 20.4619 58.4467C20.4619 57.8175 20.972 57.3073 21.6012 57.3073Z" fill="url(#paint5_linear_2_3571)"/>
<path d="M21.6012 48.1934H23.8798C24.509 48.1934 25.0191 48.7036 25.0191 49.3328C25.0191 49.962 24.509 50.4721 23.8798 50.4721H21.6012C20.972 50.4721 20.4619 49.962 20.4619 49.3328C20.4619 48.7036 20.972 48.1934 21.6012 48.1934Z" fill="url(#paint6_linear_2_3571)"/>
<path d="M21.6012 52.7502H23.8798C24.509 52.7502 25.0191 53.2603 25.0191 53.8895C25.0191 54.5187 24.509 55.0288 23.8798 55.0288H21.6012C20.972 55.0288 20.4619 54.5187 20.4619 53.8895C20.4619 53.2603 20.972 52.7502 21.6012 52.7502Z" fill="url(#paint7_linear_2_3571)"/>
<path d="M21.6012 43.6361H23.8798C24.509 43.6361 25.0191 44.1462 25.0191 44.7754C25.0191 45.4046 24.509 45.9146 23.8798 45.9146H21.6012C20.972 45.9146 20.4619 45.4045 20.4619 44.7754C20.4619 44.1462 20.972 43.6361 21.6012 43.6361Z" fill="url(#paint8_linear_2_3571)"/>
<path d="M21.6012 39.0786H23.8798C24.509 39.0786 25.0191 39.5887 25.0191 40.2179C25.0191 40.8472 24.509 41.3573 23.8798 41.3573H21.6012C20.972 41.3573 20.4619 40.8472 20.4619 40.2179C20.4619 39.5887 20.972 39.0786 21.6012 39.0786Z" fill="url(#paint9_linear_2_3571)"/>
<path d="M21.6012 34.5217H23.8798C24.509 34.5217 25.0191 35.0318 25.0191 35.6611C25.0191 36.2903 24.509 36.8004 23.8798 36.8004H21.6012C20.972 36.8004 20.4619 36.2903 20.4619 35.6611C20.4619 35.0318 20.972 34.5217 21.6012 34.5217Z" fill="url(#paint10_linear_2_3571)"/>
<path d="M28.4386 61.865H30.7172C31.3464 61.865 31.8565 62.3751 31.8565 63.0043C31.8565 63.6335 31.3464 64.1437 30.7172 64.1437H28.4386C27.8094 64.1437 27.2993 63.6335 27.2993 63.0043C27.2993 62.3751 27.8094 61.865 28.4386 61.865Z" fill="#7F5CC6"/>
<path d="M28.4391 57.3072H35.2745C35.9037 57.3072 36.4138 57.8173 36.4138 58.4466C36.4138 59.0758 35.9037 59.5859 35.2745 59.5859H28.4391C27.8099 59.5859 27.2998 59.0758 27.2998 58.4466C27.2998 57.8173 27.8099 57.3072 28.4391 57.3072Z" fill="#B8A4DF"/>
<path d="M39.8327 57.3074H46.6681C47.2973 57.3074 47.8074 57.8176 47.8074 58.4468C47.8074 59.076 47.2973 59.5861 46.6681 59.5861H39.8327C39.2035 59.5861 38.6934 59.076 38.6934 58.4468C38.6934 57.8176 39.2035 57.3074 39.8327 57.3074Z" fill="#B8A4DF"/>
<path d="M44.3893 43.6357H55.7822C56.4115 43.6357 56.9216 44.1459 56.9216 44.7751C56.9216 45.4043 56.4115 45.9143 55.7822 45.9143H44.3893C43.7601 45.9143 43.25 45.4042 43.25 44.7751C43.25 44.1459 43.7601 43.6357 44.3893 43.6357Z" fill="#B8A4DF"/>
<path d="M21.6032 25.4075C22.2324 25.4075 22.7425 24.8974 22.7425 24.2682C22.7425 23.6389 22.2324 23.1288 21.6032 23.1288C20.974 23.1288 20.4639 23.6389 20.4639 24.2682C20.4639 24.8974 20.974 25.4075 21.6032 25.4075Z" fill="url(#paint11_linear_2_3571)"/>
<path d="M48.4378 13.2958C48.9234 13.2958 49.3171 12.9022 49.3171 12.4166C49.3171 11.931 48.9234 11.5374 48.4378 11.5374C47.9522 11.5374 47.5586 11.931 47.5586 12.4166C47.5586 12.9022 47.9522 13.2958 48.4378 13.2958Z" fill="url(#paint12_linear_2_3571)"/>
<path d="M26.1594 25.4075C26.7886 25.4075 27.2987 24.8974 27.2987 24.2682C27.2987 23.6389 26.7886 23.1288 26.1594 23.1288C25.5301 23.1288 25.02 23.6389 25.02 24.2682C25.02 24.8974 25.5301 25.4075 26.1594 25.4075Z" fill="url(#paint13_linear_2_3571)"/>
<path d="M10.0444 36.7422C10.6918 36.7422 11.2167 36.2173 11.2167 35.5698C11.2167 34.9224 10.6918 34.3975 10.0444 34.3975C9.39694 34.3975 8.87207 34.9224 8.87207 35.5698C8.87207 36.2173 9.39694 36.7422 10.0444 36.7422Z" fill="url(#paint14_linear_2_3571)"/>
<path d="M30.7175 25.4076C31.3467 25.4076 31.8568 24.8975 31.8568 24.2682C31.8568 23.639 31.3467 23.1289 30.7175 23.1289C30.0882 23.1289 29.5781 23.639 29.5781 24.2682C29.5781 24.8975 30.0882 25.4076 30.7175 25.4076Z" fill="url(#paint15_linear_2_3571)"/>
<path d="M10.6306 64.2916C11.6017 64.2916 12.389 63.5043 12.389 62.5331C12.389 61.5619 11.6017 60.7746 10.6306 60.7746C9.65937 60.7746 8.87207 61.5619 8.87207 62.5331C8.87207 63.5043 9.65937 64.2916 10.6306 64.2916Z" fill="url(#paint16_linear_2_3571)"/>
<path d="M69.833 32.0529C70.4804 32.0529 71.0053 31.528 71.0053 30.8806C71.0053 30.2331 70.4804 29.7083 69.833 29.7083C69.1855 29.7083 68.6606 30.2331 68.6606 30.8806C68.6606 31.528 69.1855 32.0529 69.833 32.0529Z" fill="url(#paint17_linear_2_3571)"/>
</g>
<g filter="url(#filter1_d_2_3571)">
<path d="M73.3498 63.4118C73.3498 63.8456 73.3176 64.2634 73.2373 64.6651C73.2052 64.8901 73.157 65.0989 73.0927 65.3078C72.7874 66.4647 72.1929 67.5252 71.3895 68.3768C71.1003 68.6821 70.7789 68.9713 70.4415 69.2284C70.1362 69.4694 69.7988 69.6783 69.4453 69.8711C68.9793 70.1282 68.4651 70.321 67.9349 70.4656C67.3243 70.6263 66.6655 70.7227 66.0067 70.7227C65.7014 70.7227 65.3961 70.7067 65.1069 70.6745C62.6324 70.3692 60.5275 68.8267 59.4671 66.6736C59.0493 65.8381 58.7922 64.9061 58.7119 63.9421C58.6958 63.7653 58.6958 63.5886 58.6958 63.4118C58.6958 62.3031 58.9368 61.2587 59.3707 60.3268C59.7563 59.4912 60.3026 58.736 60.9774 58.1094C61.588 57.5309 62.3111 57.0489 63.0824 56.7115C63.9822 56.3258 64.9623 56.1009 66.0067 56.1009C69.156 56.1009 71.8555 58.0933 72.8838 60.8891C73.1409 61.5801 73.2855 62.3353 73.3176 63.1065C73.3337 63.2029 73.3498 63.3154 73.3498 63.4118Z" fill="url(#paint18_radial_2_3571)"/>
<path d="M59.4827 66.6743C59.4345 66.5779 59.3863 66.4654 59.3381 66.369C59.0007 65.6138 58.7918 64.8104 58.7275 63.9427V63.9267C58.8722 63.9106 59.081 63.9749 59.2256 64.3926C59.4185 64.9389 60.3022 66.2565 59.4827 66.6743Z" fill="#F79C41"/>
<path d="M65.219 65.4211C65.2029 65.4853 65.1869 65.5336 65.1547 65.5818C64.9137 65.9995 64.1103 66.2084 63.2105 66.0477C62.4232 65.9031 61.7965 65.5335 61.5876 65.1319C61.5234 65.0194 61.5073 64.8908 61.5234 64.7784C61.6198 64.2481 62.5035 64.1196 63.5158 64.2963C64.5441 64.4891 65.3154 64.9069 65.219 65.4211Z" fill="#F79C41"/>
<path d="M63.0658 61.9504C63.0497 61.9504 63.0497 61.9504 63.0658 61.9504C62.8569 62.2557 62.2303 61.9825 61.4911 61.5005C60.8966 61.1149 60.4628 60.7132 60.4307 60.4239C60.4307 60.3597 60.4307 60.2954 60.4789 60.2311C60.6878 59.9258 61.4911 59.8937 62.2142 60.3757C62.9533 60.8578 63.2586 61.6451 63.0658 61.9504Z" fill="#F79C41"/>
<path d="M71.1647 66.4495C70.5702 66.9476 69.8632 67.0761 69.574 66.7387C69.5579 66.7226 69.5419 66.7066 69.5419 66.6905C69.333 66.337 69.5901 65.7104 70.1525 65.2444C70.7309 64.7624 71.4058 64.6338 71.7111 64.923C71.7271 64.9391 71.7271 64.9391 71.7432 64.9552C72.0163 65.2765 71.7593 65.9514 71.1647 66.4495Z" fill="#F79C41"/>
<path d="M66.8905 62.4001C66.2959 62.8821 65.6854 63.1392 65.3319 62.6893C65.2997 62.6411 65.2676 62.609 65.2515 62.5608C65.0266 62.1109 65.2515 61.4682 65.7978 61.0343C66.3923 60.5523 67.2118 60.3434 67.7742 61.0343C67.7742 61.0343 67.7742 61.0504 67.7903 61.0504C68.0955 61.4842 67.485 61.9181 66.8905 62.4001Z" fill="#F79C41"/>
<path d="M71.0843 62.9947C70.9879 63.1393 70.7951 63.2357 70.5541 63.2357C69.7828 63.2357 68.7545 62.6733 68.883 62.1591C68.8991 62.0949 68.9152 62.0467 68.9473 61.9985C69.1401 61.6771 69.6543 61.8378 70.1363 61.9342C71.0843 62.1591 71.2932 62.6733 71.0843 62.9947Z" fill="#F79C41"/>
<path d="M68.5614 59.1867C68.5453 59.1706 68.5453 59.1385 68.5453 59.1064C68.5292 58.8814 68.7381 58.5601 69.1719 58.4476C69.4451 58.3672 69.8147 58.3833 70.0396 58.5279C70.136 58.5922 70.2164 58.6725 70.2324 58.8011C70.3128 59.1064 68.706 59.5402 68.5614 59.1867Z" fill="#F79C41"/>
<path d="M64.1428 58.5117C64.0946 58.5439 64.0303 58.5278 63.95 58.4635C63.484 57.9976 63.4358 57.2102 63.6929 57.0817C63.7893 57.0335 63.8857 57.0174 63.95 57.0174C64.4802 57.0817 64.432 58.335 64.1428 58.5117Z" fill="#F79C41"/>
<path d="M72.2727 61.2111C72.2406 61.2271 72.1924 61.2271 72.1603 61.2111C71.9835 61.1629 71.7425 60.8897 71.6782 60.472C71.63 60.2309 71.7586 59.9899 71.9192 59.9256C72.096 59.8453 72.3209 59.9578 72.4174 60.472C72.4495 60.7772 72.4334 61.1307 72.2727 61.2111Z" fill="#F79C41"/>
<path d="M67.0185 57.1299C66.9863 57.3067 66.665 57.371 66.5203 57.3067C66.4882 57.2906 66.4721 57.2746 66.4561 57.2424C66.3757 57.0657 66.9381 56.7443 67.0185 57.0335C67.0345 57.0817 67.0345 57.1139 67.0185 57.1299Z" fill="#F79C41"/>
<path d="M64.7858 66.8032C64.593 66.7068 64.4484 66.6264 64.4806 67.012C64.5288 67.3977 64.818 67.478 65.0751 67.478C65.3322 67.4941 64.9465 66.8996 64.7858 66.8032Z" fill="#EF903A"/>
<path d="M61.2018 66.5459C61.025 66.4976 61.025 66.8029 60.8965 67.1082C60.768 67.4135 60.9447 67.6224 61.2018 67.6224C61.4589 67.6224 61.5553 66.6423 61.2018 66.5459Z" fill="#EF903A"/>
<path d="M60.4303 62.6736C60.2696 62.5933 60.0929 62.4968 60.0447 62.6736C59.9964 62.8503 60.3821 63.3163 60.607 63.3163C60.8159 63.3163 60.9123 62.8985 60.4303 62.6736Z" fill="#EF903A"/>
<path d="M73.3485 63.4126C73.3485 63.8464 73.3164 64.2642 73.236 64.6659C73.1718 64.6337 73.1075 64.6016 73.0432 64.5373C72.6094 64.1035 72.9468 63.4929 73.0432 63.284C73.1557 63.0591 73.2682 63.0751 73.3325 63.1073C73.3325 63.2037 73.3485 63.3162 73.3485 63.4126Z" fill="#EF903A"/>
<path d="M68.9143 63.8786C68.6733 63.8464 68.5287 64.0553 68.9143 64.216C69.2999 64.3928 69.2517 63.9268 68.9143 63.8786Z" fill="#EF903A"/>
<path d="M59.6592 61.9505C59.5468 62.0147 59.5307 62.2557 59.8359 62.2075C60.1251 62.1593 59.9163 61.822 59.6592 61.9505Z" fill="#EF903A"/>
<path d="M65.7656 58.9296C65.6371 58.9778 65.4604 59.1063 65.7656 59.1384C66.0708 59.1866 65.8941 58.8975 65.7656 58.9296Z" fill="#EF903A"/>
<path d="M66.5045 58.9297C66.3438 58.8333 66.3278 59.2671 66.4563 59.4438C66.5848 59.6206 67.0187 59.235 66.5045 58.9297Z" fill="#EF903A"/>
<path d="M64.3515 63.5413C64.1265 63.5573 64.6085 63.8465 64.7371 63.8787C64.8656 63.9269 65.2513 63.493 64.3515 63.5413Z" fill="#EF903A"/>
<path d="M71.4045 62.4165C71.2921 62.4968 71.4849 62.9789 71.6616 62.9307C71.8384 62.8985 71.7902 62.1112 71.4045 62.4165Z" fill="#EF903A"/>
<path d="M67.9501 65.4371C67.934 65.5174 67.9019 65.5817 67.8858 65.646C67.7573 65.9834 67.0182 66.1119 66.8253 65.9673L66.8093 65.9513C66.6325 65.7745 66.8093 65.3407 66.8896 65.1318C67.0182 64.8265 67.6609 64.6176 67.8858 64.698C68.0465 64.7622 68.0304 65.1157 67.9501 65.4371Z" fill="#F79C41"/>
<path d="M60.4307 60.4078C60.4307 60.3435 60.4307 60.2793 60.4789 60.215C60.6878 59.9097 61.4911 59.8776 62.2142 60.3596C62.9533 60.8416 63.2586 61.6129 63.0497 61.9343C63.0658 61.7415 62.9855 61.4844 62.7123 61.1148C61.9893 60.1668 60.6878 59.8454 60.4307 60.4078Z" fill="#E27C37"/>
<path d="M65.219 65.4211C65.2029 65.4853 65.1869 65.5336 65.1547 65.5818C65.1387 65.5014 64.978 64.923 64.2549 64.6819C63.4997 64.4249 62.4875 64.216 61.8929 64.6819C61.7001 64.8266 61.6198 64.9872 61.5876 65.1319C61.5234 65.0194 61.5073 64.8908 61.5234 64.7784C61.6198 64.2481 62.5035 64.1196 63.5158 64.2963C64.5441 64.4891 65.3154 64.9069 65.219 65.4211Z" fill="#E27C37"/>
<path d="M66.4084 60.9058C65.605 61.179 65.2675 61.9663 65.2354 62.5448C65.0105 62.0949 65.2354 61.4521 65.7817 61.0183C66.3762 60.5363 67.1957 60.3274 67.7581 61.0183C67.7581 61.0183 67.7581 61.0344 67.7741 61.0344C67.5331 60.8737 67.0832 60.6809 66.4084 60.9058Z" fill="#E27C37"/>
<path d="M67.95 65.4371C67.95 65.1318 67.8697 64.7783 67.5323 64.8747C67.1949 64.9711 66.8253 65.5817 66.8092 65.9673L66.7932 65.9513C66.6164 65.7745 66.7932 65.3407 66.8735 65.1318C67.002 64.8265 67.6448 64.6176 67.8697 64.698C68.0465 64.7622 68.0304 65.1157 67.95 65.4371Z" fill="#E27C37"/>
<path d="M71.0838 62.9945C71.1802 62.4322 70.2804 62.2393 69.8144 62.0787C69.3645 61.918 69.0592 61.9662 68.9307 62.0144C69.1235 61.693 69.6377 61.8537 70.1197 61.9501C71.0838 62.159 71.2927 62.6732 71.0838 62.9945Z" fill="#E27C37"/>
<path d="M68.5605 59.1867C68.5444 59.1706 68.5444 59.1385 68.5444 59.1063C68.8176 59.2831 69.5085 59.1385 69.8941 58.9617C70.1673 58.8332 70.1191 58.6564 70.0388 58.5279C70.1352 58.5922 70.2155 58.6725 70.2316 58.8011C70.3119 59.1063 68.7051 59.5402 68.5605 59.1867Z" fill="#E27C37"/>
<path d="M64.1428 58.5117C64.0946 58.5439 64.0303 58.5278 63.95 58.4635C63.484 57.9976 63.4358 57.2102 63.6929 57.0817C63.7893 57.0335 63.8857 57.0174 63.95 57.0174C63.8536 57.0335 63.6929 57.1299 63.6929 57.4994C63.709 57.9494 63.9179 58.3028 64.1428 58.5117Z" fill="#E27C37"/>
<path d="M67.0185 57.1299C67.0024 57.0496 66.9382 56.9853 66.7614 57.0335C66.6007 57.0657 66.5525 57.1942 66.5365 57.3067C66.5043 57.2906 66.4883 57.2746 66.4722 57.2424C66.3918 57.0657 66.9542 56.7443 67.0346 57.0335C67.0346 57.0817 67.0346 57.1139 67.0185 57.1299Z" fill="#E27C37"/>
<path d="M71.695 64.9069C71.5986 64.8748 70.9077 64.682 70.1203 65.5978C69.7186 66.0638 69.574 66.4173 69.5419 66.6744C69.333 66.3209 69.5901 65.6942 70.1525 65.2283C70.7148 64.7462 71.3897 64.6177 71.695 64.9069Z" fill="#E27C37"/>
<path d="M72.1442 61.2273C71.9674 61.1791 71.7264 60.906 71.6621 60.4882C71.6139 60.2472 71.7425 60.0062 71.9031 59.9419C71.8389 60.0383 71.7746 60.1668 71.7907 60.3597C71.8228 60.665 71.9513 60.9702 72.1442 61.2273Z" fill="#E27C37"/>
<path d="M59.4827 66.6742C59.4345 66.5778 59.3863 66.4653 59.3381 66.3689C59.547 66.1761 59.7398 65.8387 59.4827 65.3084C59.1614 64.6336 59.0168 64.0712 58.7275 63.9587V63.9427C58.8722 63.9266 59.081 63.9909 59.2256 64.4086C59.4185 64.9389 60.3022 66.2565 59.4827 66.6742Z" fill="#E27C37"/>
<path opacity="0.35" d="M73.3494 63.4123C73.3494 63.8461 73.3172 64.2639 73.2369 64.6656C72.9959 66.0795 72.3371 67.365 71.4052 68.3773C70.8428 68.9718 70.2001 69.4859 69.477 69.8716C69.011 70.1287 68.4969 70.3215 67.9666 70.4661C67.356 70.6268 66.6972 70.7232 66.0385 70.7232C65.7332 70.7232 65.4279 70.7071 65.1387 70.675C62.6642 70.3697 60.5593 68.8272 59.4988 66.674C59.081 65.8385 58.8239 64.9066 58.7436 63.9425C58.7275 63.7658 58.7275 63.589 58.7275 63.4123C58.7275 62.3036 58.9686 61.2592 59.4024 60.3272C59.4667 66.658 72.562 68.2487 72.8995 60.8896C73.1566 61.5805 73.3012 62.3357 73.3333 63.107C73.3333 63.2034 73.3494 63.3158 73.3494 63.4123Z" fill="url(#paint19_linear_2_3571)"/>
<path opacity="0.45" d="M70.4576 69.2289C70.1523 69.47 69.8149 69.6788 69.4614 69.8717C68.9954 70.1288 68.4812 70.3216 67.951 70.4662C67.3404 70.6269 66.6816 70.7233 66.0228 70.7233C65.7175 70.7233 65.4123 70.7072 65.123 70.6751C62.6486 70.3698 60.5437 68.8272 59.4832 66.6741C59.0654 65.8386 58.8083 64.9067 58.728 63.9426C58.7119 63.7658 58.7119 63.5891 58.7119 63.4123C58.7119 62.3037 58.9529 61.2592 59.3868 60.3273C59.7724 59.4918 60.3187 58.7366 60.9936 58.1099C58.9529 67.831 66.4567 69.1807 70.4576 69.2289Z" fill="url(#paint20_linear_2_3571)"/>
<path d="M73.35 63.4124C73.35 63.8462 73.3178 64.264 73.2375 64.6657C73.2054 64.8906 73.1572 65.0995 73.0929 65.3084C72.8358 59.4275 68.851 56.0854 63.0986 56.696C63.9984 56.3103 64.9786 56.0854 66.023 56.0854C69.1723 56.0854 71.8717 58.0778 72.9001 60.8736C73.1572 61.5646 73.3018 62.3198 73.3339 63.091C73.3339 63.2035 73.35 63.316 73.35 63.4124Z" fill="url(#paint21_linear_2_3571)"/>
</g>
<g filter="url(#filter2_d_2_3571)">
<path d="M16.7958 21.6573C16.7958 21.6958 16.7958 21.7266 16.7958 21.7651C16.7881 21.9962 16.765 22.2195 16.7265 22.4351C16.7188 22.4582 16.7188 22.489 16.7111 22.5121C16.6957 22.5968 16.6726 22.6815 16.6495 22.7585C16.5725 23.0434 16.4647 23.313 16.3338 23.5748C16.2953 23.6595 16.2491 23.7365 16.2029 23.8135C16.1875 23.8443 16.1721 23.8674 16.1567 23.8982C16.1105 23.9752 16.0566 24.0522 16.0104 24.1215C15.9026 24.2678 15.7948 24.4064 15.6716 24.5373C15.4791 24.7453 15.2711 24.9301 15.0401 25.0995C14.863 25.2304 14.6705 25.3459 14.4703 25.446C13.8927 25.7386 13.2382 25.908 12.5451 25.908C12.4373 25.908 12.3372 25.908 12.2371 25.9003C11.7135 25.8618 11.2206 25.7309 10.7663 25.523C10.389 25.3536 10.0502 25.1226 9.74214 24.8531C9.50342 24.6451 9.28781 24.4064 9.10299 24.1523C8.68716 23.5748 8.40994 22.8971 8.32524 22.1502C8.30983 21.9885 8.29443 21.8267 8.29443 21.6573C8.29443 21.5264 8.30213 21.4032 8.30983 21.28C8.34064 20.9104 8.41764 20.5562 8.54085 20.225C8.57935 20.1249 8.61786 20.0171 8.66406 19.917C8.73337 19.7553 8.81807 19.5936 8.91048 19.4473C9.13379 19.0776 9.41101 18.7465 9.73444 18.4616C9.95775 18.2614 10.2042 18.092 10.466 17.9457C10.8972 17.6992 11.3747 17.5298 11.8829 17.4528C12.0985 17.422 12.3218 17.3989 12.5451 17.3989C13.7233 17.3989 14.786 17.8764 15.5561 18.6464C15.7871 18.8774 15.9873 19.1316 16.1567 19.4011C16.303 19.6398 16.4339 19.8939 16.534 20.1634C16.5956 20.3174 16.6418 20.4791 16.6803 20.6486C16.7496 20.9258 16.7881 21.2107 16.7958 21.511C16.7958 21.5726 16.7958 21.6111 16.7958 21.6573Z" fill="url(#paint22_radial_2_3571)"/>
<path d="M15.5412 18.6849C15.2563 19.5782 13.7932 19.7014 11.7371 19.1855C10.4819 18.8774 9.48086 19.1932 8.90332 19.4781C9.28065 18.8543 9.81969 18.3384 10.4588 17.9842C11.0287 17.9457 11.4907 18.1305 11.8372 18.2922C12.615 18.6387 13.7393 18.862 13.8394 18.4693C13.9626 17.9842 13.516 17.8995 12.538 17.7686C12.1299 17.7147 11.945 17.6068 11.8757 17.499C12.0914 17.4682 12.3147 17.4451 12.538 17.4451C13.7085 17.4451 14.7711 17.9226 15.5412 18.6849Z" fill="url(#paint23_linear_2_3571)"/>
<path d="M16.5193 20.2016C14.8406 21.6185 12.7307 21.1873 10.7901 20.9563C9.37322 20.7869 8.63397 21.0949 8.31055 21.3028C8.34135 20.9409 8.41835 20.5867 8.54156 20.2555C9.70435 20.0091 10.4282 20.1323 12.5382 20.4326C14.5788 20.7253 15.7416 19.8397 16.142 19.4393C16.296 19.678 16.4192 19.9398 16.5193 20.2016Z" fill="url(#paint24_linear_2_3571)"/>
<path d="M16.7806 21.7881C16.7729 22.0422 16.7421 22.2886 16.6959 22.535C16.3801 22.4426 15.9566 22.4657 15.1326 22.8046C13.9853 23.2743 13.5078 23.1049 11.9831 22.7276C10.4584 22.3502 9.83466 22.7044 9.88086 23.0279C9.92706 23.3513 10.5816 23.7979 11.8291 23.5977C13.0766 23.3975 14.224 23.9442 14.224 24.2985C14.224 24.6527 13.0535 24.2215 10.9743 24.7682C10.5431 24.8837 10.1119 24.9068 9.71915 24.8606C8.94909 24.183 8.42545 23.2358 8.30225 22.1731C8.95679 21.3415 10.0965 21.3877 11.1977 21.7573C12.5222 22.2039 13.4 22.2578 14.994 21.8574C15.972 21.611 16.5033 21.688 16.7806 21.7881Z" fill="url(#paint25_linear_2_3571)"/>
<path d="M16.3259 23.5902C16.1488 23.9444 15.9177 24.2678 15.6559 24.5527C15.5789 24.1138 14.4392 23.9675 15.0399 23.6441C15.4634 23.4131 16.0409 23.5132 16.3259 23.5902Z" fill="url(#paint26_linear_2_3571)"/>
<path d="M15.0254 25.107C14.8483 25.2379 14.6558 25.3534 14.4632 25.4535C14.0012 25.3842 13.3621 25.3919 12.6613 25.7153C12.4996 25.7846 12.361 25.8462 12.2301 25.9001C11.7064 25.8616 11.2136 25.7307 10.7593 25.5228C11.0981 25.4612 11.3984 25.3226 12.1377 25.0916C13.3313 24.722 14.4555 24.9453 15.0254 25.107Z" fill="url(#paint27_linear_2_3571)"/>
<path d="M10.7354 22.7969C10.412 22.8355 10.4582 23.1204 10.6353 23.2667C10.8124 23.413 11.5824 23.3668 11.6363 23.1897C11.6902 23.0126 11.1358 22.7507 10.7354 22.7969Z" fill="url(#paint28_linear_2_3571)"/>
<path d="M12.8843 17.9687C12.607 17.9687 12.3067 17.8686 12.2374 18.0688C12.1604 18.269 13.2154 18.4923 13.3155 18.3691C13.4079 18.2382 13.4618 17.9687 12.8843 17.9687Z" fill="url(#paint29_linear_2_3571)"/>
<path d="M16.7805 21.5416C16.3338 21.5108 15.8025 21.3953 15.8333 21.2259C15.8872 20.9256 16.4263 20.7485 16.665 20.6791C16.7343 20.9641 16.7728 21.249 16.7805 21.5416Z" fill="url(#paint30_linear_2_3571)"/>
<path d="M16.0103 24.3452L16.0412 24.2601C16.0257 24.3065 16.0103 24.3375 16.0103 24.3452Z" fill="url(#paint31_linear_2_3571)"/>
<path opacity="0.45" d="M16.0021 24.1292C15.8943 24.2755 15.7865 24.4141 15.6633 24.545C15.4708 24.7529 15.2628 24.9377 15.0318 25.1071C14.8547 25.238 14.6622 25.3536 14.462 25.4537C13.8844 25.7463 13.2299 25.9157 12.5368 25.9157C12.429 25.9157 12.3289 25.9157 12.2288 25.908C11.7052 25.8695 11.2123 25.7386 10.758 25.5307C10.3807 25.3613 10.0419 25.1302 9.73384 24.8607C8.96378 24.1831 8.44014 23.2282 8.31694 22.1578C8.30153 21.9961 8.28613 21.8344 8.28613 21.665C8.28613 21.5341 8.29383 21.4109 8.30153 21.2877C8.33234 20.918 8.40934 20.5638 8.53255 20.2327C8.57105 20.1326 8.60956 20.0248 8.65576 19.9247C9.52592 20.0171 10.6964 20.5099 12.0594 21.9961C13.7073 23.7826 15.0857 24.16 16.0021 24.1292Z" fill="url(#paint32_linear_2_3571)"/>
<path opacity="0.45" d="M16.6485 22.7661C16.5715 23.051 16.4637 23.3206 16.3328 23.5824C16.2327 23.7749 16.1248 23.9597 16.0016 24.1291C15.8938 24.2754 15.786 24.414 15.6628 24.5449C15.4703 24.7529 15.2624 24.9377 15.0314 25.1071C14.8543 25.238 14.6617 25.3535 14.4615 25.4536C13.884 25.7462 13.2294 25.9156 12.5364 25.9156C12.4286 25.9156 12.3285 25.9156 12.2284 25.9079C11.7047 25.8694 11.2119 25.7385 10.7576 25.5306C10.3802 25.3612 10.0414 25.1302 9.73338 24.8607C9.49467 24.6527 9.27905 24.414 9.09424 24.1599C9.76419 24.4294 10.5188 24.6142 11.3813 24.6836C14.862 24.9377 16.1633 23.6671 16.6485 22.7661Z" fill="url(#paint33_linear_2_3571)"/>
<path opacity="0.75" d="M16.7957 21.6574C16.7957 21.6959 16.7957 21.7268 16.7957 21.7653C16.788 21.9963 16.7649 22.2196 16.7264 22.4352L16.2027 23.8213L16.041 24.2448C16.0718 24.1678 16.1103 24.0523 16.1488 23.906C16.4491 22.8587 16.9343 20.2174 14.7242 18.7697C11.952 16.9601 9.76507 18.4386 9.72656 18.4694C9.94988 18.2692 10.1963 18.0998 10.4581 17.9535C10.8893 17.7071 11.3668 17.5376 11.875 17.4606C12.0906 17.4298 12.3139 17.4067 12.5373 17.4067C13.7155 17.4067 14.7781 17.8842 15.5482 18.6542C15.7792 18.8852 15.9794 19.1394 16.1488 19.4089C16.2951 19.6476 16.426 19.9017 16.5262 20.1712C16.5878 20.3252 16.634 20.487 16.6725 20.6564C16.7418 20.9336 16.7803 21.2185 16.788 21.5188C16.7957 21.5727 16.7957 21.6112 16.7957 21.6574Z" fill="url(#paint34_linear_2_3571)"/>
</g>
</g>
<defs>
<filter id="filter0_d_2_3571" x="2.51511" y="7.72318" width="74.8472" height="72.056" filterUnits="userSpaceOnUse" color-interpolation-filters="sRGB">
<feFlood flood-opacity="0" result="BackgroundImageFix"/>
<feColorMatrix in="SourceAlpha" type="matrix" values="0 0 0 0 0 0 0 0 0 0 0 0 0 0 0 0 0 0 127 0" result="hardAlpha"/>
<feOffset dy="2.54278"/>
<feGaussianBlur stdDeviation="3.17848"/>
<feColorMatrix type="matrix" values="0 0 0 0 0.155575 0 0 0 0 0.136615 0 0 0 0 0.5375 0 0 0 0.58 0"/>
<feBlend mode="normal" in2="BackgroundImageFix" result="effect1_dropShadow_2_3571"/>
<feBlend mode="normal" in="SourceGraphic" in2="effect1_dropShadow_2_3571" result="shape"/>
</filter>
<filter id="filter1_d_2_3571" x="55.9604" y="56.0854" width="20.1251" height="20.109" filterUnits="userSpaceOnUse" color-interpolation-filters="sRGB">
<feFlood flood-opacity="0" result="BackgroundImageFix"/>
<feColorMatrix in="SourceAlpha" type="matrix" values="0 0 0 0 0 0 0 0 0 0 0 0 0 0 0 0 0 0 127 0" result="hardAlpha"/>
<feOffset dy="2.73541"/>
<feGaussianBlur stdDeviation="1.36771"/>
<feColorMatrix type="matrix" values="0 0 0 0 0 0 0 0 0 0 0 0 0 0 0 0 0 0 0.15 0"/>
<feBlend mode="normal" in2="BackgroundImageFix" result="effect1_dropShadow_2_3571"/>
<feBlend mode="normal" in="SourceGraphic" in2="effect1_dropShadow_2_3571" result="shape"/>
</filter>
<filter id="filter2_d_2_3571" x="5.55072" y="17.3989" width="13.9806" height="13.9876" filterUnits="userSpaceOnUse" color-interpolation-filters="sRGB">
<feFlood flood-opacity="0" result="BackgroundImageFix"/>
<feColorMatrix in="SourceAlpha" type="matrix" values="0 0 0 0 0 0 0 0 0 0 0 0 0 0 0 0 0 0 127 0" result="hardAlpha"/>
<feOffset dy="2.73541"/>
<feGaussianBlur stdDeviation="1.36771"/>
<feColorMatrix type="matrix" values="0 0 0 0 0 0 0 0 0 0 0 0 0 0 0 0 0 0 0.15 0"/>
<feBlend mode="normal" in2="BackgroundImageFix" result="effect1_dropShadow_2_3571"/>
<feBlend mode="normal" in="SourceGraphic" in2="effect1_dropShadow_2_3571" result="shape"/>
</filter>
<linearGradient id="paint0_linear_2_3571" x1="20.2653" y1="10.398" x2="40.9706" y2="68.7" gradientUnits="userSpaceOnUse">
<stop stop-color="#966EE8"/>
<stop offset="1" stop-color="#3D068C"/>
</linearGradient>
<linearGradient id="paint1_linear_2_3571" x1="51.596" y1="10.9429" x2="40.9708" y2="29.9642" gradientUnits="userSpaceOnUse">
<stop stop-color="#DFD2F2"/>
<stop offset="1" stop-color="#A26EEF"/>
</linearGradient>
<linearGradient id="paint2_linear_2_3571" x1="28.1666" y1="23.4751" x2="60.5871" y2="38.4594" gradientUnits="userSpaceOnUse">
<stop stop-color="#B8A4DF"/>
<stop offset="1" stop-color="#B8A4DF" stop-opacity="0"/>
</linearGradient>
<linearGradient id="paint3_linear_2_3571" x1="27.0433" y1="39.0869" x2="59.5752" y2="41.4316" gradientUnits="userSpaceOnUse">
<stop stop-color="#F7B236"/>
<stop offset="1" stop-color="white"/>
</linearGradient>
<linearGradient id="paint4_linear_2_3571" x1="22.7405" y1="61.8649" x2="22.7405" y2="64.1436" gradientUnits="userSpaceOnUse">
<stop stop-color="#E12B84"/>
<stop offset="1" stop-color="#F58865"/>
</linearGradient>
<linearGradient id="paint5_linear_2_3571" x1="22.7405" y1="57.3073" x2="22.7405" y2="59.586" gradientUnits="userSpaceOnUse">
<stop stop-color="#E12B84"/>
<stop offset="1" stop-color="#F58865"/>
</linearGradient>
<linearGradient id="paint6_linear_2_3571" x1="22.7405" y1="48.1934" x2="22.7405" y2="50.4721" gradientUnits="userSpaceOnUse">
<stop stop-color="#E12B84"/>
<stop offset="1" stop-color="#F58865"/>
</linearGradient>
<linearGradient id="paint7_linear_2_3571" x1="22.7405" y1="52.7502" x2="22.7405" y2="55.0288" gradientUnits="userSpaceOnUse">
<stop stop-color="#E12B84"/>
<stop offset="1" stop-color="#F58865"/>
</linearGradient>
<linearGradient id="paint8_linear_2_3571" x1="22.7405" y1="43.6361" x2="22.7405" y2="45.9146" gradientUnits="userSpaceOnUse">
<stop stop-color="#E12B84"/>
<stop offset="1" stop-color="#F58865"/>
</linearGradient>
<linearGradient id="paint9_linear_2_3571" x1="22.7405" y1="39.0786" x2="22.7405" y2="41.3573" gradientUnits="userSpaceOnUse">
<stop stop-color="#E12B84"/>
<stop offset="1" stop-color="#F58865"/>
</linearGradient>
<linearGradient id="paint10_linear_2_3571" x1="22.7405" y1="34.5217" x2="22.7405" y2="36.8004" gradientUnits="userSpaceOnUse">
<stop stop-color="#E12B84"/>
<stop offset="1" stop-color="#F58865"/>
</linearGradient>
<linearGradient id="paint11_linear_2_3571" x1="21.4749" y1="25.3121" x2="21.4749" y2="23.2606" gradientUnits="userSpaceOnUse">
<stop stop-color="#F7B236"/>
<stop offset="1" stop-color="#FFD385"/>
</linearGradient>
<linearGradient id="paint12_linear_2_3571" x1="48.3388" y1="13.2222" x2="48.3388" y2="11.639" gradientUnits="userSpaceOnUse">
<stop stop-color="#F7B236"/>
<stop offset="1" stop-color="#FFD385"/>
</linearGradient>
<linearGradient id="paint13_linear_2_3571" x1="26.1594" y1="26.4845" x2="26.1637" y2="23.2606" gradientUnits="userSpaceOnUse">
<stop stop-color="#420FAB"/>
<stop offset="1" stop-color="#8152E1"/>
</linearGradient>
<linearGradient id="paint14_linear_2_3571" x1="10.0444" y1="37.8503" x2="10.0489" y2="34.5331" gradientUnits="userSpaceOnUse">
<stop stop-color="#420FAB"/>
<stop offset="1" stop-color="#8152E1"/>
</linearGradient>
<linearGradient id="paint15_linear_2_3571" x1="30.5605" y1="25.3122" x2="30.5605" y2="22.9676" gradientUnits="userSpaceOnUse">
<stop stop-color="#D80E70"/>
<stop offset="1" stop-color="#FC5AA9"/>
</linearGradient>
<linearGradient id="paint16_linear_2_3571" x1="10.3884" y1="64.1444" x2="10.3884" y2="60.5256" gradientUnits="userSpaceOnUse">
<stop stop-color="#D80E70"/>
<stop offset="1" stop-color="#FC5AA9"/>
</linearGradient>
<linearGradient id="paint17_linear_2_3571" x1="69.6715" y1="31.9548" x2="69.6715" y2="29.5422" gradientUnits="userSpaceOnUse">
<stop stop-color="#D80E70"/>
<stop offset="1" stop-color="#FC5AA9"/>
</linearGradient>
<radialGradient id="paint18_radial_2_3571" cx="0" cy="0" r="1" gradientUnits="userSpaceOnUse" gradientTransform="translate(65.7049 59.5358) scale(11.1706)">
<stop stop-color="#FFE46A"/>
<stop offset="1" stop-color="#FFA44A"/>
</radialGradient>
<linearGradient id="paint19_linear_2_3571" x1="59.7784" y1="67.2759" x2="72.7159" y2="61.223" gradientUnits="userSpaceOnUse">
<stop stop-color="#E27437"/>
<stop offset="1" stop-color="#E27437" stop-opacity="0.2"/>
</linearGradient>
<linearGradient id="paint20_linear_2_3571" x1="64.6141" y1="73.9901" x2="64.5427" y2="55.8604" gradientUnits="userSpaceOnUse">
<stop stop-color="#CC622E"/>
<stop offset="1" stop-color="#CC622E" stop-opacity="0.2"/>
</linearGradient>
<linearGradient id="paint21_linear_2_3571" x1="72.5348" y1="56.0904" x2="68.0841" y2="61.0217" gradientUnits="userSpaceOnUse">
<stop stop-color="#FFF2B6"/>
<stop offset="1" stop-color="#FFF49A" stop-opacity="0.2"/>
</linearGradient>
<radialGradient id="paint22_radial_2_3571" cx="0" cy="0" r="1" gradientUnits="userSpaceOnUse" gradientTransform="translate(12.317 18.8458) scale(6.37197)">
<stop stop-color="#FFB56F"/>
<stop offset="1" stop-color="#FB367E"/>
</radialGradient>
<linearGradient id="paint23_linear_2_3571" x1="13.4835" y1="27.5743" x2="11.4197" y2="13.6529" gradientUnits="userSpaceOnUse">
<stop stop-color="#E0386F"/>
<stop offset="1" stop-color="#C93890" stop-opacity="0"/>
</linearGradient>
<linearGradient id="paint24_linear_2_3571" x1="13.4256" y1="27.5826" x2="11.3617" y2="13.6612" gradientUnits="userSpaceOnUse">
<stop stop-color="#E0386F"/>
<stop offset="1" stop-color="#C93890" stop-opacity="0"/>
</linearGradient>
<linearGradient id="paint25_linear_2_3571" x1="13.3808" y1="27.5893" x2="11.317" y2="13.6679" gradientUnits="userSpaceOnUse">
<stop stop-color="#E0386F"/>
<stop offset="1" stop-color="#C93890" stop-opacity="0"/>
</linearGradient>
<linearGradient id="paint26_linear_2_3571" x1="16.1086" y1="27.185" x2="14.0448" y2="13.2635" gradientUnits="userSpaceOnUse">
<stop stop-color="#E0386F"/>
<stop offset="1" stop-color="#C93890" stop-opacity="0"/>
</linearGradient>
<linearGradient id="paint27_linear_2_3571" x1="13.2315" y1="27.6114" x2="11.1677" y2="13.6901" gradientUnits="userSpaceOnUse">
<stop stop-color="#E0386F"/>
<stop offset="1" stop-color="#C93890" stop-opacity="0"/>
</linearGradient>
<linearGradient id="paint28_linear_2_3571" x1="11.7716" y1="27.8279" x2="9.70774" y2="13.9065" gradientUnits="userSpaceOnUse">
<stop stop-color="#E0386F"/>
<stop offset="1" stop-color="#C93890" stop-opacity="0"/>
</linearGradient>
<linearGradient id="paint29_linear_2_3571" x1="14.1863" y1="27.47" x2="12.1225" y2="13.5486" gradientUnits="userSpaceOnUse">
<stop stop-color="#E0386F"/>
<stop offset="1" stop-color="#C93890" stop-opacity="0"/>
</linearGradient>
<linearGradient id="paint30_linear_2_3571" x1="17.157" y1="27.0294" x2="15.0932" y2="13.108" gradientUnits="userSpaceOnUse">
<stop stop-color="#E0386F"/>
<stop offset="1" stop-color="#C93890" stop-opacity="0"/>
</linearGradient>
<linearGradient id="paint31_linear_2_3571" x1="16.4455" y1="27.1494" x2="14.3715" y2="13.1597" gradientUnits="userSpaceOnUse">
<stop stop-color="#E0386F"/>
<stop offset="1" stop-color="#C93890" stop-opacity="0"/>
</linearGradient>
<linearGradient id="paint32_linear_2_3571" x1="10.9081" y1="24.5273" x2="13.2202" y2="20.4642" gradientUnits="userSpaceOnUse">
<stop stop-color="#CA1B6A"/>
<stop offset="1" stop-color="#CA1B6A" stop-opacity="0.1"/>
</linearGradient>
<linearGradient id="paint33_linear_2_3571" x1="10.6409" y1="27.7329" x2="13.943" y2="21.579" gradientUnits="userSpaceOnUse">
<stop stop-color="#A41B6A"/>
<stop offset="1" stop-color="#B51B6A" stop-opacity="0.13"/>
</linearGradient>
<linearGradient id="paint34_linear_2_3571" x1="15.9277" y1="17.6533" x2="13.5259" y2="20.5807" gradientUnits="userSpaceOnUse">
<stop stop-color="#FFB8B1"/>
<stop offset="1" stop-color="#FFC4B1" stop-opacity="0.1"/>
</linearGradient>
</defs>
</svg>
