<svg width="226" height="90" viewBox="0 0 226 90" fill="none" xmlns="http://www.w3.org/2000/svg">
<mask id="mask0_2_3749" style="mask-type:alpha" maskUnits="userSpaceOnUse" x="0" y="0" width="226" height="90">
<rect x="0.941406" y="0.190002" width="224.304" height="88.901" rx="10.2578" fill="url(#paint0_linear_2_3749)"/>
</mask>
<g mask="url(#mask0_2_3749)">
<path d="M11.0612 100.199C14.4018 99.3041 17.4309 97.5051 19.8154 95.0001C22.1999 92.4951 23.8474 89.381 24.5768 86.0004C25.3062 82.6197 25.0893 79.1034 23.9498 75.8381C22.8104 72.5727 20.7926 69.6848 18.1182 67.4919C15.4439 65.299 12.2167 63.886 8.79136 63.4083C5.36606 62.9306 1.87536 63.4068 -1.29689 64.7843C-4.46914 66.1619 -7.20009 68.3875 -9.18945 71.2166C-11.1788 74.0456 -12.3495 77.3684 -12.5728 80.8196L-2.92767 81.4438C-2.81912 79.7663 -2.2501 78.1513 -1.28317 76.7762C-0.316251 75.4012 1.01112 74.3194 2.55299 73.6498C4.09486 72.9803 5.79151 72.7489 7.45638 72.981C9.12124 73.2132 10.6898 73.9 11.9897 74.9658C13.2895 76.0317 14.2703 77.4354 14.8241 79.0225C15.378 80.6096 15.4834 82.3187 15.1289 83.9619C14.7743 85.605 13.9736 87.1186 12.8146 88.3362C11.6556 89.5537 10.1833 90.4281 8.55964 90.8632L11.0612 100.199Z" fill="url(#paint1_linear_2_3749)"/>
<path d="M207.488 -4.42137C205.471 -3.25721 203.815 -1.55955 202.701 0.484916C201.587 2.52939 201.058 4.84149 201.173 7.16699C201.288 9.4925 202.041 11.7413 203.351 13.6662C204.661 15.5911 206.477 17.1175 208.598 18.0775C210.719 19.0376 213.064 19.3941 215.375 19.1079C217.685 18.8217 219.872 17.9038 221.695 16.4552C223.518 15.0067 224.906 13.0835 225.707 10.8972C226.507 8.71087 226.69 6.34609 226.234 4.06288L219.853 5.33761C220.074 6.44737 219.986 7.59677 219.597 8.65942C219.207 9.72208 218.533 10.6568 217.647 11.3609C216.761 12.065 215.698 12.5111 214.575 12.6502C213.452 12.7893 212.312 12.616 211.281 12.1494C210.25 11.6828 209.368 10.9409 208.731 10.0053C208.094 9.06972 207.728 7.97667 207.672 6.84637C207.616 5.71606 207.873 4.59226 208.415 3.59855C208.956 2.60484 209.761 1.77969 210.741 1.21385L207.488 -4.42137Z" fill="url(#paint2_linear_2_3749)"/>
<path fill-rule="evenodd" clip-rule="evenodd" d="M180.264 31.8902C167.469 47.9566 145.421 61.3032 111.592 55.4832C81.632 50.3288 63.0523 58.3759 52.0008 69.3294C40.6192 80.6101 36.4515 95.7115 36.8384 105.577L23.1718 106.113C22.6469 92.7283 28.053 73.8081 42.3729 59.6152C57.0229 45.0951 80.2723 36.2169 113.911 42.0042C142.36 46.8987 159.577 35.9115 169.565 23.3698C174.68 16.9476 177.946 10.03 179.707 4.43978C180.589 1.64009 181.05 -0.689768 181.211 -2.3361C181.293 -3.16553 181.285 -3.69056 181.263 -3.94326C181.261 -3.96671 181.259 -3.98691 181.257 -4.00401C181.289 -3.84382 181.398 -3.43479 181.696 -2.91365L193.571 -9.6994C194.527 -8.02654 194.794 -6.25567 194.892 -5.09424C195.003 -3.78109 194.959 -2.38634 194.823 -1.00212C194.551 1.77882 193.854 5.05163 192.752 8.54916C190.546 15.5534 186.541 24.0084 180.264 31.8902ZM181.246 -4.07727C181.247 -4.07839 181.252 -4.05509 181.257 -4.00401C181.248 -4.0506 181.245 -4.07614 181.246 -4.07727Z" fill="url(#paint3_linear_2_3749)" fill-opacity="0.05"/>
<path fill-rule="evenodd" clip-rule="evenodd" d="M130.03 -4.0121C117.235 12.0543 95.1869 25.4009 61.358 19.5809C31.3981 14.4265 12.8184 22.4736 1.76695 33.427C-9.61468 44.7077 -13.7824 59.8092 -13.3955 69.6751L-27.0621 70.2111C-27.587 56.826 -22.1809 37.9058 -7.86103 23.7129C6.78901 9.19281 30.0384 0.314564 63.677 6.10184C92.1265 10.9964 109.343 0.00914001 119.331 -12.5325C124.446 -18.9547 127.712 -25.8723 129.473 -31.4625C130.355 -34.2622 130.816 -36.5921 130.977 -38.2384C131.059 -39.0678 131.051 -39.5929 131.029 -39.8456C131.027 -39.869 131.025 -39.8892 131.023 -39.9063C131.055 -39.7461 131.164 -39.3371 131.462 -38.816L143.337 -45.6017C144.293 -43.9289 144.56 -42.158 144.658 -40.9966C144.769 -39.6834 144.725 -38.2886 144.589 -36.9044C144.317 -34.1235 143.62 -30.8507 142.518 -27.3531C140.312 -20.3489 136.307 -11.8939 130.03 -4.0121ZM131.012 -39.9796C131.013 -39.9807 131.018 -39.9574 131.023 -39.9063C131.014 -39.9529 131.011 -39.9784 131.012 -39.9796Z" fill="url(#paint4_linear_2_3749)" fill-opacity="0.07"/>
</g>
<defs>
<linearGradient id="paint0_linear_2_3749" x1="97.0228" y1="92.59" x2="99.6452" y2="0.186793" gradientUnits="userSpaceOnUse">
<stop offset="1.38522e-07" stop-color="#6E1FEA"/>
<stop offset="1" stop-color="#A56EFC"/>
</linearGradient>
<linearGradient id="paint1_linear_2_3749" x1="-20.178" y1="106.473" x2="16.5398" y2="68.5228" gradientUnits="userSpaceOnUse">
<stop offset="1.38522e-07" stop-color="white" stop-opacity="0"/>
<stop offset="1" stop-color="white" stop-opacity="0.14"/>
</linearGradient>
<linearGradient id="paint2_linear_2_3749" x1="226.709" y1="-13.9442" x2="209.445" y2="17.1321" gradientUnits="userSpaceOnUse">
<stop offset="1.38522e-07" stop-color="white" stop-opacity="0"/>
<stop offset="1" stop-color="white" stop-opacity="0.14"/>
</linearGradient>
<linearGradient id="paint3_linear_2_3749" x1="113.129" y1="14.8929" x2="113.129" y2="101.742" gradientUnits="userSpaceOnUse">
<stop stop-color="white"/>
<stop offset="1" stop-color="white" stop-opacity="0"/>
</linearGradient>
<linearGradient id="paint4_linear_2_3749" x1="62.8954" y1="-21.0094" x2="62.8954" y2="65.84" gradientUnits="userSpaceOnUse">
<stop stop-color="white"/>
<stop offset="1" stop-color="white" stop-opacity="0"/>
</linearGradient>
</defs>
</svg>
