<svg width="226" height="68" viewBox="0 0 226 68" fill="none" xmlns="http://www.w3.org/2000/svg">
<mask id="mask0_2_3562" style="mask-type:alpha" maskUnits="userSpaceOnUse" x="0" y="0" width="226" height="90">
<rect x="0.941406" y="0.716309" width="224.304" height="88.901" rx="10.2578" fill="url(#paint0_linear_2_3562)"/>
</mask>
<g mask="url(#mask0_2_3562)">
<path d="M11.0612 100.726C14.4018 99.8305 17.4309 98.0315 19.8154 95.5265C22.1999 93.0215 23.8474 89.9074 24.5768 86.5268C25.3062 83.1461 25.0893 79.6298 23.9498 76.3644C22.8104 73.0991 20.7926 70.2112 18.1182 68.0183C15.4439 65.8254 12.2167 64.4124 8.79136 63.9347C5.36606 63.457 1.87536 63.9331 -1.29689 65.3107C-4.46914 66.6883 -7.20009 68.9139 -9.18945 71.7429C-11.1788 74.572 -12.3495 77.8948 -12.5728 81.346L-2.92767 81.9702C-2.81912 80.2927 -2.2501 78.6776 -1.28317 77.3026C-0.316251 75.9276 1.01112 74.8458 2.55299 74.1762C4.09486 73.5067 5.79151 73.2752 7.45638 73.5074C9.12124 73.7396 10.6898 74.4264 11.9897 75.4922C13.2895 76.5581 14.2703 77.9618 14.8241 79.5489C15.378 81.136 15.4834 82.8451 15.1289 84.4883C14.7743 86.1314 13.9736 87.645 12.8146 88.8626C11.6556 90.0801 10.1833 90.9545 8.55964 91.3896L11.0612 100.726Z" fill="url(#paint1_linear_2_3562)"/>
<path d="M207.488 -3.89488C205.471 -2.73071 203.815 -1.03306 202.701 1.01141C201.587 3.05588 201.058 5.36799 201.173 7.69349C201.288 10.019 202.041 12.2678 203.351 14.1927C204.661 16.1176 206.477 17.644 208.598 18.604C210.719 19.564 213.064 19.9206 215.375 19.6344C217.685 19.3481 219.872 18.4303 221.695 16.9817C223.518 15.5332 224.906 13.61 225.707 11.4237C226.507 9.23737 226.69 6.87259 226.234 4.58938L219.853 5.86411C220.074 6.97387 219.986 8.12326 219.597 9.18592C219.207 10.2486 218.533 11.1833 217.647 11.8874C216.761 12.5915 215.698 13.0376 214.575 13.1767C213.452 13.3158 212.312 13.1425 211.281 12.6759C210.25 12.2093 209.368 11.4674 208.731 10.5318C208.094 9.59621 207.728 8.50317 207.672 7.37286C207.616 6.24256 207.873 5.11876 208.415 4.12505C208.956 3.13133 209.761 2.30619 210.741 1.74035L207.488 -3.89488Z" fill="url(#paint2_linear_2_3562)"/>
<path fill-rule="evenodd" clip-rule="evenodd" d="M180.264 32.4165C167.469 48.4829 145.421 61.8295 111.592 56.0095C81.632 50.8551 63.0523 58.9022 52.0008 69.8556C40.6192 81.1363 36.4515 96.2378 36.8384 106.104L23.1718 106.64C22.6469 93.2546 28.053 74.3343 42.3729 60.1415C57.0229 45.6214 80.2723 36.7432 113.911 42.5304C142.36 47.4249 159.577 36.4377 169.565 23.8961C174.68 17.4739 177.946 10.5563 179.707 4.96605C180.589 2.16637 181.05 -0.163492 181.211 -1.80983C181.293 -2.63925 181.285 -3.16429 181.263 -3.41698C181.261 -3.44043 181.259 -3.46064 181.257 -3.47774C181.289 -3.31755 181.398 -2.90851 181.696 -2.38738L193.571 -9.17313C194.527 -7.50026 194.794 -5.7294 194.892 -4.56796C195.003 -3.25482 194.959 -1.86006 194.823 -0.475847C194.551 2.3051 193.854 5.57791 192.752 9.07544C190.546 16.0796 186.541 24.5347 180.264 32.4165ZM181.246 -3.55099C181.247 -3.55212 181.252 -3.52882 181.257 -3.47774C181.248 -3.52432 181.245 -3.54986 181.246 -3.55099Z" fill="url(#paint3_linear_2_3562)" fill-opacity="0.05"/>
<path fill-rule="evenodd" clip-rule="evenodd" d="M130.03 -3.48581C117.235 12.5806 95.1869 25.9272 61.358 20.1072C31.3981 14.9528 12.8184 22.9999 1.76695 33.9533C-9.61468 45.234 -13.7824 60.3355 -13.3955 70.2014L-27.0621 70.7374C-27.587 57.3523 -22.1809 38.432 -7.86103 24.2392C6.78901 9.7191 30.0384 0.840855 63.677 6.62813C92.1265 11.5227 109.343 0.535431 119.331 -12.0062C124.446 -18.4284 127.712 -25.346 129.473 -30.9362C130.355 -33.7359 130.816 -36.0658 130.977 -37.7121C131.059 -38.5416 131.051 -39.0666 131.029 -39.3193C131.027 -39.3427 131.025 -39.3629 131.023 -39.38C131.055 -39.2198 131.164 -38.8108 131.462 -38.2897L143.337 -45.0754C144.293 -43.4026 144.56 -41.6317 144.658 -40.4703C144.769 -39.1571 144.725 -37.7624 144.589 -36.3781C144.317 -33.5972 143.62 -30.3244 142.518 -26.8269C140.312 -19.8226 136.307 -11.3676 130.03 -3.48581ZM131.012 -39.4533C131.013 -39.4544 131.018 -39.4311 131.023 -39.38C131.014 -39.4266 131.011 -39.4522 131.012 -39.4533Z" fill="url(#paint4_linear_2_3562)" fill-opacity="0.07"/>
</g>
<defs>
<linearGradient id="paint0_linear_2_3562" x1="97.0228" y1="93.1163" x2="99.6452" y2="0.713099" gradientUnits="userSpaceOnUse">
<stop offset="1.38522e-07" stop-color="#6E1FEA"/>
<stop offset="1" stop-color="#A56EFC"/>
</linearGradient>
<linearGradient id="paint1_linear_2_3562" x1="-20.178" y1="106.999" x2="16.5398" y2="69.0491" gradientUnits="userSpaceOnUse">
<stop offset="1.38522e-07" stop-color="white" stop-opacity="0"/>
<stop offset="1" stop-color="white" stop-opacity="0.14"/>
</linearGradient>
<linearGradient id="paint2_linear_2_3562" x1="226.709" y1="-13.4177" x2="209.445" y2="17.6586" gradientUnits="userSpaceOnUse">
<stop offset="1.38522e-07" stop-color="white" stop-opacity="0"/>
<stop offset="1" stop-color="white" stop-opacity="0.14"/>
</linearGradient>
<linearGradient id="paint3_linear_2_3562" x1="113.129" y1="15.4192" x2="113.129" y2="102.269" gradientUnits="userSpaceOnUse">
<stop stop-color="white"/>
<stop offset="1" stop-color="white" stop-opacity="0"/>
</linearGradient>
<linearGradient id="paint4_linear_2_3562" x1="62.8954" y1="-20.4831" x2="62.8954" y2="66.3663" gradientUnits="userSpaceOnUse">
<stop stop-color="white"/>
<stop offset="1" stop-color="white" stop-opacity="0"/>
</linearGradient>
</defs>
</svg>
