<svg width="85" height="86" viewBox="0 0 85 86" fill="none" xmlns="http://www.w3.org/2000/svg">
<g filter="url(#filter0_d_2_3010)">
<circle cx="38.5" cy="37" r="29.5" fill="#FFFFFE"/>
</g>
<path d="M23.3123 30.2183C21.9482 30.2183 20.8628 31.3037 20.8628 32.6678V42.8712C20.8628 44.2352 21.9482 45.3207 23.3123 45.3207C24.6763 45.3207 25.7619 44.2352 25.7619 42.8712V32.6678C25.7619 31.3037 24.6763 30.2183 23.3123 30.2183ZM51.8817 30.2183C50.5175 30.2183 49.4321 31.3037 49.4321 32.6678V42.8712C49.4321 44.2352 50.5175 45.3207 51.8817 45.3207C53.2458 45.3207 54.3312 44.2352 54.3312 42.8712V32.6678C54.3312 31.3037 53.2458 30.2183 51.8817 30.2183Z" fill="#A4C639"/>
<path d="M33.5155 41.8621C32.1515 41.8621 31.0659 42.9475 31.0659 44.3117V54.515C31.0659 55.879 32.1515 56.9645 33.5155 56.9645C34.8796 56.9645 35.965 55.879 35.965 54.515V44.3117C35.965 42.9475 34.8796 41.8621 33.5155 41.8621ZM41.6783 41.8621C40.3141 41.8621 39.2286 42.9475 39.2286 44.3117V54.515C39.2286 55.879 40.3141 56.9645 41.6783 56.9645C43.0423 56.9645 44.1277 55.879 44.1277 54.515V44.3117C44.1277 42.9475 43.0423 41.8621 41.6783 41.8621Z" fill="#A4C639"/>
<path d="M30.8146 17.363C30.7567 17.3637 30.6999 17.3791 30.6496 17.4079C30.4749 17.5047 30.4175 17.7054 30.5145 17.8805L32.2402 20.9978C28.9203 22.7253 26.6778 26.0081 26.6733 29.7757H48.5205C48.5159 26.0081 46.2735 22.7252 42.9537 20.9978L44.6792 17.8807C44.7763 17.7056 44.7188 17.5047 44.5441 17.4079C44.4938 17.3791 44.437 17.3636 44.3791 17.363C44.255 17.3616 44.1377 17.4236 44.0715 17.543L42.3234 20.694C40.8934 20.0598 39.2895 19.7037 37.5969 19.7037C35.9043 19.7037 34.3004 20.0596 32.8703 20.694L31.1222 17.543C31.0924 17.4877 31.0479 17.4417 30.9937 17.4099C30.9395 17.3781 30.8776 17.3619 30.8147 17.363H30.8146ZM26.6733 30.6385V46.4726C26.6726 46.8196 26.7404 47.1633 26.8729 47.484C27.0053 47.8048 27.1998 48.0962 27.4452 48.3415C27.6906 48.5869 27.982 48.7814 28.3027 48.9138C28.6235 49.0463 28.9672 49.114 29.3142 49.1133H45.8797C46.2267 49.114 46.5704 49.0462 46.8912 48.9138C47.2119 48.7814 47.5033 48.5869 47.7487 48.3415C47.9941 48.0961 48.1886 47.8047 48.321 47.4839C48.4535 47.1632 48.5213 46.8194 48.5205 46.4724V30.6386H26.6733V30.6385Z" fill="#A4C639"/>
<path d="M32.5551 23.9537C32.0565 23.9537 31.6436 24.3665 31.6436 24.8652C31.6436 25.364 32.0565 25.7768 32.5551 25.7768C33.0539 25.7768 33.4667 25.364 33.4667 24.8652C33.4667 24.3665 33.0539 23.9537 32.5551 23.9537ZM42.6385 23.9537C42.1397 23.9537 41.7269 24.3665 41.7269 24.8652C41.7269 25.364 42.1397 25.7768 42.6385 25.7768C43.1371 25.7768 43.5501 25.364 43.5501 24.8652C43.5501 24.3665 43.1371 23.9537 42.6385 23.9537Z" fill="white"/>
<defs>
<filter id="filter0_d_2_3010" x="0" y="0.5" width="85" height="85" filterUnits="userSpaceOnUse" color-interpolation-filters="sRGB">
<feFlood flood-opacity="0" result="BackgroundImageFix"/>
<feColorMatrix in="SourceAlpha" type="matrix" values="0 0 0 0 0 0 0 0 0 0 0 0 0 0 0 0 0 0 127 0" result="hardAlpha"/>
<feOffset dx="4" dy="6"/>
<feGaussianBlur stdDeviation="6.5"/>
<feComposite in2="hardAlpha" operator="out"/>
<feColorMatrix type="matrix" values="0 0 0 0 0.841667 0 0 0 0 0.841667 0 0 0 0 0.841667 0 0 0 0.25 0"/>
<feBlend mode="normal" in2="BackgroundImageFix" result="effect1_dropShadow_2_3010"/>
<feBlend mode="normal" in="SourceGraphic" in2="effect1_dropShadow_2_3010" result="shape"/>
</filter>
</defs>
</svg>
