<svg width="85" height="86" viewBox="0 0 85 86" fill="none" xmlns="http://www.w3.org/2000/svg">
<g filter="url(#filter0_d_2_2990)">
<circle cx="38.5" cy="37" r="29.5" fill="#FFFFFE"/>
</g>
<path d="M33.2817 47.1399C33.2817 47.1399 31.7885 48.0203 34.3444 48.3182C37.4409 48.6764 39.0234 48.6251 42.4357 47.9702C42.4357 47.9702 43.3329 48.5405 44.5857 49.0346C36.9363 52.3586 27.2734 48.842 33.2817 47.1399Z" fill="#5382A1"/>
<path d="M32.3467 42.8022C32.3467 42.8022 30.672 44.0593 33.2298 44.3275C36.5375 44.6734 39.1496 44.7018 43.6697 43.8193C43.6697 43.8193 44.2949 44.4619 45.278 44.8134C36.0293 47.5555 25.7279 45.0296 32.3467 42.8022Z" fill="#5382A1"/>
<path d="M40.2268 35.4442C42.1117 37.6444 39.7316 39.6243 39.7316 39.6243C39.7316 39.6243 44.5175 37.1193 42.3196 33.9824C40.2668 31.0572 38.6925 29.6036 47.2148 24.5923C47.2148 24.5923 33.8376 27.9797 40.2268 35.4441" fill="#E76F00"/>
<path d="M50.3439 50.3483C50.3439 50.3483 51.4489 51.2714 49.1268 51.9856C44.7115 53.3418 30.7496 53.7513 26.871 52.0396C25.4768 51.4247 28.0914 50.5713 28.9138 50.3921C29.7715 50.2035 30.2618 50.2387 30.2618 50.2387C28.7112 49.1312 20.2397 52.4133 25.9587 53.3532C41.5551 55.9177 54.3893 52.1985 50.3439 50.3483Z" fill="#5382A1"/>
<path d="M34.0001 38.3081C34.0001 38.3081 26.8983 40.0184 31.4853 40.6394C33.422 40.9023 37.2828 40.8429 40.8791 40.5373C43.8182 40.2861 46.7694 39.7515 46.7694 39.7515C46.7694 39.7515 45.7331 40.2015 44.9833 40.7206C37.7714 42.6438 23.8394 41.7491 27.8502 39.7819C31.2422 38.1195 34.0002 38.3081 34.0002 38.3081" fill="#5382A1"/>
<path d="M46.7396 45.5282C54.0709 41.6656 50.6812 37.9537 48.3153 38.4538C47.7353 38.5761 47.4768 38.6821 47.4768 38.6821C47.4768 38.6821 47.6921 38.3403 48.1032 38.1923C52.7838 36.5238 56.3835 43.1131 46.5923 45.7228C46.5923 45.7229 46.7058 45.6202 46.7396 45.5282Z" fill="#5382A1"/>
<path d="M42.3198 16.5001C42.3198 16.5001 46.38 20.6183 38.4689 26.9505C32.1252 32.0302 37.0224 34.9265 38.4663 38.2356C34.7633 34.8481 32.0458 31.8661 33.869 29.0907C36.5448 25.0165 43.9579 23.0412 42.3198 16.5" fill="#E76F00"/>
<path d="M34.7202 55.9951C41.7573 56.4519 52.5634 55.7417 52.8194 52.3656C52.8194 52.3656 52.3274 53.6456 47.0036 54.6619C40.9973 55.8079 33.5895 55.6741 29.1958 54.9396C29.1959 54.9396 30.0952 55.6944 34.7203 55.9951" fill="#5382A1"/>
<defs>
<filter id="filter0_d_2_2990" x="0" y="0.5" width="85" height="85" filterUnits="userSpaceOnUse" color-interpolation-filters="sRGB">
<feFlood flood-opacity="0" result="BackgroundImageFix"/>
<feColorMatrix in="SourceAlpha" type="matrix" values="0 0 0 0 0 0 0 0 0 0 0 0 0 0 0 0 0 0 127 0" result="hardAlpha"/>
<feOffset dx="4" dy="6"/>
<feGaussianBlur stdDeviation="6.5"/>
<feComposite in2="hardAlpha" operator="out"/>
<feColorMatrix type="matrix" values="0 0 0 0 0.841667 0 0 0 0 0.841667 0 0 0 0 0.841667 0 0 0 0.25 0"/>
<feBlend mode="normal" in2="BackgroundImageFix" result="effect1_dropShadow_2_2990"/>
<feBlend mode="normal" in="SourceGraphic" in2="effect1_dropShadow_2_2990" result="shape"/>
</filter>
</defs>
</svg>
