<svg width="85" height="86" viewBox="0 0 85 86" fill="none" xmlns="http://www.w3.org/2000/svg">
<g filter="url(#filter0_d_2_3026)">
<circle cx="38.5" cy="37" r="29.5" fill="#FFFFFE"/>
</g>
<path d="M38.6335 16.5C28.0813 16.5 28.7402 21.0246 28.7402 21.0246L28.7519 25.7122H38.8217V27.1195H24.7523C24.7523 27.1195 18 26.3623 18 36.8897C18 47.4173 23.8936 47.0439 23.8936 47.0439H27.4109V42.1587C27.4109 42.1587 27.2213 36.3314 33.2104 36.3314H43.1978C43.1978 36.3314 48.8091 36.421 48.8091 30.9693V21.9552C48.8091 21.9552 49.6613 16.5 38.6335 16.5ZM33.081 19.6523C33.319 19.6521 33.5547 19.6983 33.7745 19.7882C33.9944 19.8782 34.1942 20.0101 34.3625 20.1765C34.5307 20.3428 34.6642 20.5404 34.7551 20.7578C34.8461 20.9752 34.8928 21.2082 34.8926 21.4435C34.8928 21.6788 34.8461 21.9118 34.7551 22.1292C34.6642 22.3466 34.5307 22.5441 34.3625 22.7105C34.1942 22.8769 33.9944 23.0088 33.7745 23.0987C33.5547 23.1887 33.319 23.2349 33.081 23.2346C32.8431 23.2349 32.6074 23.1887 32.3875 23.0987C32.1677 23.0088 31.9679 22.8769 31.7996 22.7105C31.6313 22.5441 31.4979 22.3466 31.407 22.1292C31.316 21.9118 31.2693 21.6788 31.2695 21.4435C31.2693 21.2082 31.316 20.9752 31.407 20.7578C31.4979 20.5404 31.6313 20.3428 31.7996 20.1765C31.9679 20.0101 32.1677 19.8782 32.3875 19.7882C32.6074 19.6983 32.8431 19.6521 33.081 19.6523Z" fill="url(#paint0_linear_2_3026)"/>
<path d="M38.9337 57.3852C49.4858 57.3852 48.827 52.8606 48.827 52.8606L48.8153 48.1731H38.7453V46.7658H52.8147C52.8147 46.7658 59.567 47.523 59.567 36.9953C59.567 26.4679 53.6734 26.8412 53.6734 26.8412H50.1561V31.7263C50.1561 31.7263 50.3457 37.5536 44.3566 37.5536H34.3692C34.3692 37.5536 28.7579 37.464 28.7579 42.9158V51.9301C28.7579 51.9301 27.9059 57.3852 38.9335 57.3852H38.9337ZM44.4861 54.2332C44.2482 54.2334 44.0125 54.1872 43.7926 54.0973C43.5727 54.0073 43.373 53.8754 43.2047 53.709C43.0364 53.5427 42.903 53.3451 42.812 53.1277C42.7211 52.9103 42.6744 52.6773 42.6746 52.442C42.6743 52.2067 42.721 51.9737 42.812 51.7563C42.9029 51.5388 43.0364 51.3413 43.2046 51.1749C43.3729 51.0085 43.5727 50.8766 43.7926 50.7866C44.0125 50.6967 44.2482 50.6505 44.4861 50.6507C44.7241 50.6505 44.9597 50.6966 45.1796 50.7866C45.3995 50.8765 45.5993 51.0085 45.7676 51.1748C45.9358 51.3412 46.0692 51.5387 46.1602 51.7561C46.2512 51.9736 46.2979 52.2066 46.2977 52.4418C46.2979 52.6771 46.2512 52.9101 46.1602 53.1275C46.0692 53.3449 45.9358 53.5425 45.7676 53.7089C45.5993 53.8752 45.3995 54.0072 45.1796 54.0971C44.9597 54.187 44.7241 54.2332 44.4861 54.233V54.2332Z" fill="url(#paint1_linear_2_3026)"/>
<defs>
<filter id="filter0_d_2_3026" x="0" y="0.5" width="85" height="85" filterUnits="userSpaceOnUse" color-interpolation-filters="sRGB">
<feFlood flood-opacity="0" result="BackgroundImageFix"/>
<feColorMatrix in="SourceAlpha" type="matrix" values="0 0 0 0 0 0 0 0 0 0 0 0 0 0 0 0 0 0 127 0" result="hardAlpha"/>
<feOffset dx="4" dy="6"/>
<feGaussianBlur stdDeviation="6.5"/>
<feComposite in2="hardAlpha" operator="out"/>
<feColorMatrix type="matrix" values="0 0 0 0 0.841667 0 0 0 0 0.841667 0 0 0 0 0.841667 0 0 0 0.25 0"/>
<feBlend mode="normal" in2="BackgroundImageFix" result="effect1_dropShadow_2_3026"/>
<feBlend mode="normal" in="SourceGraphic" in2="effect1_dropShadow_2_3026" result="shape"/>
</filter>
<linearGradient id="paint0_linear_2_3026" x1="21.9945" y1="20.1774" x2="42.3629" y2="40.572" gradientUnits="userSpaceOnUse">
<stop stop-color="#387EB8"/>
<stop offset="1" stop-color="#366994"/>
</linearGradient>
<linearGradient id="paint1_linear_2_3026" x1="34.6388" y1="33.1256" x2="56.5235" y2="54.0493" gradientUnits="userSpaceOnUse">
<stop stop-color="#FFE052"/>
<stop offset="1" stop-color="#FFC331"/>
</linearGradient>
</defs>
</svg>
